<svg width="121" height="56" viewBox="0 0 121 56" fill="none" xmlns="http://www.w3.org/2000/svg">
<path d="M102.877 7.80595C103.455 9.87797 105.527 9.29942 106.106 11.3714C104.034 11.95 101.383 10.4565 99.311 11.0351C94.5884 10.1201 88.3724 11.8558 83.6498 10.9408C72.7112 11.7616 62.351 14.6543 54.0629 16.9685C43.7028 19.8612 33.9213 24.826 26.7903 31.2842C19.0808 35.6705 9.87778 42.7072 5.97591 52.731C6.55446 54.803 7.13298 56.875 8.62645 54.2244C20.2379 39.8145 37.1504 28.3915 55.7986 23.1846C66.1587 20.2918 74.4468 17.9776 85.3855 17.1569C89.5295 15.9998 94.2521 16.9148 98.9746 17.8297C101.047 17.2511 105.769 18.1661 107.841 17.5875C103.697 18.7446 100.132 21.9737 98.6383 24.6243C97.1448 27.2748 97.7233 29.3469 101.867 28.1898C108.083 26.4541 111.07 21.153 117.286 19.4174C119.358 18.8388 118.78 16.7668 118.201 14.6948C114.394 9.05725 111.165 5.49175 105.863 2.5048C103.791 3.08335 100.226 6.31248 102.877 7.80595Z" fill="#231F20"/>
</svg>
