<svg width="119" height="26" viewBox="0 0 119 26" fill="none" xmlns="http://www.w3.org/2000/svg">
<path d="M105.676 4.33021C105.689 6.48144 107.84 6.46834 107.853 8.61958C105.702 8.63268 103.538 6.49453 101.387 6.50762C97.071 4.38258 90.6174 4.42187 86.3018 2.29683C75.5325 0.211074 64.7763 0.276547 56.1714 0.328932C45.4152 0.394413 34.6721 2.61113 26.0934 6.96599C17.5015 9.16961 6.77154 13.5376 0.37022 22.1818C0.383316 24.333 0.39638 26.4843 2.53452 24.3199C17.5277 13.4721 36.8495 6.90051 56.2106 6.78264C66.9668 6.71716 75.5718 6.66479 86.3411 8.75054C90.6436 8.72435 94.9591 10.8494 99.2747 12.9744C101.426 12.9613 105.741 15.0864 107.893 15.0733C103.59 15.0995 99.3009 17.2769 97.1627 19.4412C95.0246 21.6056 95.0377 23.7568 99.3401 23.7306C105.794 23.6913 110.07 19.3627 116.524 19.3234C118.675 19.3103 118.662 17.159 118.649 15.0078C116.458 8.5672 114.281 4.27781 109.952 0.00152629C107.801 0.0146225 103.512 2.19207 105.676 4.33021Z" fill="#401D8A"/>
</svg>
