<svg width="367" height="344" viewBox="0 0 367 344" fill="none" xmlns="http://www.w3.org/2000/svg">
<path d="M335.609 338.536C300.718 354.368 236.979 328.794 190.426 321.393C143.874 314.227 115.025 325.468 105.237 312.775C95.449 300.082 104.769 263.548 88.5177 233.15C72.2667 202.751 30.0701 178.676 14.4278 138.723C-1.49542 99.0511 9.1357 43.4538 42.434 17.3648C75.7323 -8.49008 132.026 -5.16455 162.28 25.2805C192.815 55.3976 197.639 112.634 229.907 147.482C262.503 182.049 322.589 194.508 349.565 229.496C376.541 264.485 370.5 322.424 335.609 338.536Z" fill="#A61A32"/>
<path d="M0 76.7452C5.58394 66.8648 14.7341 64.312 30.4536 69.7486C27.2628 62.5155 36.7883 48.2385 51.9916 63.3665C47.44 39.1145 83.5245 36.3253 81.7414 59.7736C90.7507 48.4276 114.588 54.9043 105.344 68.4249C119.28 64.9265 124.911 68.1885 134.061 76.7925H0V76.7452Z" fill="#FAF6EB"/>
<path d="M106.729 110.633H52.1044C50.0519 103.481 51.3114 95.3822 73.6089 101.918C80.6061 88.7039 94.2272 101.871 106.729 110.633Z" fill="#FAF6EB"/>
<path d="M253.885 338.745H305.297" stroke="#1C2628" stroke-width="0.699478" stroke-linecap="round" stroke-linejoin="round"/>
<path d="M134.246 331.789H177.198" stroke="#1C2628" stroke-width="0.699478" stroke-linecap="round" stroke-linejoin="round"/>
<path d="M140.506 335.963H178.251" stroke="#1C2628" stroke-width="0.699478" stroke-linecap="round" stroke-linejoin="round"/>
<path d="M151.833 323.15C150.734 326.017 150.615 330.488 154.464 330.488H175.271C175.271 330.488 175.332 327.317 170.475 326.893C162.249 326.179 159.661 319.657 159.546 316.572C159.31 299.948 165.791 249.227 166.87 239.415C159.858 239.199 152.879 238.37 146.012 236.936C149.536 248.876 141.947 258.673 141.355 270.679C140.77 282.653 145.853 303.351 148.617 312.43C148.839 314.038 150.323 321.513 151.833 323.15Z" fill="#FCBE9F" stroke="#070707" stroke-width="0.931235" stroke-linecap="round" stroke-linejoin="round"/>
<path d="M146.606 239.473C153.094 241.289 159.742 242.473 166.457 243.007L166.873 239.415C159.86 239.199 152.879 238.369 146.011 236.936L146.606 239.473Z" fill="#1C0E0C"/>
<path d="M208.573 232.581C201.651 235.267 186.335 238.805 178.99 239.891L190.068 249.182C190.068 251.241 184.419 260.25 181.928 268.759C178.919 279.055 178.511 308.551 177.561 313.145C176.966 316.016 183.209 321.164 186.124 323.929C187.881 325.588 190.111 324.972 190.111 324.972C190.111 324.972 187.875 314.765 190.111 307.428C198.355 280.356 212.025 250.238 212.025 245.945C212.025 243.627 210.837 239.236 209.069 233.992L208.573 232.581Z" fill="#FCBE9F" stroke="#070707" stroke-width="0.931235" stroke-linecap="round" stroke-linejoin="round"/>
<path d="M208.573 232.581C201.651 235.267 186.692 238.805 179.347 239.891L184.707 244.179C191.29 242.786 202.698 237.858 209.053 234.011L208.573 232.581Z" fill="#1C0E0C"/>
<path d="M138.056 234.877C138.056 234.877 173.527 246.914 209.955 232.028C209.955 232.028 183.346 172.792 181.129 168.356C178.912 163.92 179.068 156.795 179.068 156.795C179.068 156.795 180.18 145.398 183.506 141.596C186.831 137.795 188.73 133.519 186.987 128.131C185.244 122.742 183.193 112.128 183.193 112.128L175.902 109.751L150.192 109.275C150.192 109.275 147.011 112.983 147.696 119.952C148.292 126.001 155.873 143.043 149.293 156.789C146.283 161.698 135.694 170.544 134.412 186.016C132.763 205.98 138.056 234.877 138.056 234.877Z" fill="#B0FFAE" stroke="black" stroke-width="0.931235" stroke-linecap="round" stroke-linejoin="round"/>
<path d="M171.844 120.905C174.345 116.06 181.76 109.887 184.793 113.677C187.825 117.467 195.647 130.839 200.12 139.397C204.523 132.721 214.289 121.152 219.724 116.06C219.54 113.812 220.625 107.594 221.285 107.13C222.015 106.616 225.455 101.603 225.455 101.603C225.455 101.603 226.72 102.282 225.549 104.36C224.183 106.773 224.484 107.538 224.484 107.538C224.484 107.538 226.019 107.789 226.205 108.802C226.39 109.815 227.587 109.103 228.135 110.641C228.455 111.54 229.187 111.89 228.982 112.787C228.787 113.628 224.614 117.135 222.468 117.742C219.495 126.653 210.255 147.047 201.564 152.445C199.687 153.308 193.372 159.269 189.353 154.494C172.592 134.588 170.415 125.907 171.844 120.905Z" fill="#FCBE9F" stroke="#070707" stroke-width="0.931235" stroke-linecap="round" stroke-linejoin="round"/>
<path d="M158.352 89.3065C158.51 93.4263 159.115 99.8001 149.318 110.848C144.065 116.771 160.052 118.482 168.613 114.005C174.499 110.93 175.914 109.757 175.914 109.757C175.914 109.757 170.379 109.263 168.225 103.707C166.738 99.8723 168.225 95.5203 168.961 89.3026L158.352 89.3065Z" fill="#FCBE9F" stroke="#070707" stroke-width="0.931235" stroke-linecap="round" stroke-linejoin="round"/>
<path d="M160.866 90.1086C160.807 90.6356 161.892 100.187 167.667 101.937C167.109 98.8926 168.483 93.7405 168.793 90.1028L160.866 90.1086Z" fill="#1C0E0C"/>
<path d="M152.781 90.6353C151.462 96.9739 132.719 95.239 131.464 110.805" stroke="#070707" stroke-width="3.21016" stroke-linecap="round" stroke-linejoin="round"/>
<path d="M151.421 122.196C158.351 119.019 168.035 109.562 158.478 95.0575C159.573 94.6497 160.726 93.8866 161.081 92.4951C161.817 89.6049 171.721 86.2052 172.174 80.1456C172.324 78.1121 170.792 73.2098 160.387 73.7758C150.028 74.3378 149.087 86.7907 152.385 90.5416L152.401 90.5592C150.943 97.6297 131.08 97.6687 133.923 115.104C134.722 119.959 142.153 126.435 151.421 122.196Z" fill="#1C0E0C"/>
<path d="M161.523 92.4428C161.548 92.9678 162.536 96.3908 169.505 98.0282C170.771 98.3248 174.107 98.4185 174.189 97.6379C174.282 96.7206 174.844 93.0966 174.895 91.1587C174.913 90.5635 176.878 89.2227 176.519 88.7895C175.416 87.4585 173.466 85.9324 173.422 85.3821C173.098 81.2604 171.552 78.9634 170.036 79.0453C169.167 79.0922 170.27 86.7384 161.521 89.2383C161.521 89.2383 159.035 87.9484 158.664 89.3105C158.293 90.6727 161.523 92.4428 161.523 92.4428Z" fill="#FCBE9F" stroke="#070707" stroke-width="0.931235" stroke-linecap="round" stroke-linejoin="round"/>
<path d="M161.328 92.039C159.749 92.039 158.469 90.759 158.469 89.18C158.469 87.601 159.749 86.3209 161.328 86.3209C162.907 86.3209 164.188 87.601 164.188 89.18C164.188 90.759 162.907 92.039 161.328 92.039Z" fill="#FCBE9F"/>
<path d="M162.415 90.9242C162.415 90.9242 162.744 89.7982 162.438 88.7775C162.335 88.4072 162.132 88.0725 161.851 87.8104C161.57 87.5483 161.222 87.369 160.846 87.2924" stroke="#070707" stroke-width="3.21016" stroke-linecap="round" stroke-linejoin="round"/>
<path d="M160.847 89.5211L162.439 88.7834" stroke="#070707" stroke-width="3.21016" stroke-linecap="round" stroke-linejoin="round"/>
<path d="M159.202 93.7132C158.468 93.7132 157.873 93.1182 157.873 92.3842C157.873 91.6502 158.468 91.0552 159.202 91.0552C159.936 91.0552 160.531 91.6502 160.531 92.3842C160.531 93.1182 159.936 93.7132 159.202 93.7132Z" fill="#F7F3EF" stroke="#070707" stroke-width="3.21016" stroke-linecap="round" stroke-linejoin="round"/>
<path d="M174.18 92.3839C174.18 92.3839 172.708 92.5147 171.887 91.5214" stroke="#070707" stroke-width="0.733256" stroke-linecap="round" stroke-linejoin="round"/>
<path fill-rule="evenodd" clip-rule="evenodd" d="M202.153 258.829C202.509 260.043 201.344 261.688 199.989 261.688C199.204 261.688 198.348 261.182 198.039 260.221C197.73 259.284 198.111 258.297 198.729 257.791C199.823 256.93 201.796 257.588 202.153 258.829Z" fill="#1C0E0C" stroke="#1C0E0C" stroke-width="0.817823" stroke-linecap="round" stroke-linejoin="round"/>
<path fill-rule="evenodd" clip-rule="evenodd" d="M202.486 250.252C201.788 250.159 200.817 247.206 202.213 245.9C202.729 245.403 203.669 245.03 204.094 245.403C205.004 246.211 203.366 250.346 202.486 250.252Z" fill="#1C0E0C" stroke="#1C0E0C" stroke-width="0.733256" stroke-linecap="round" stroke-linejoin="round"/>
<path d="M144.423 224.946C140.162 221.848 134.924 223.655 133.402 224.946L134.532 234.832C142.14 238.858 168.019 240.96 177.099 239.352C182.881 240.281 201.965 235.896 210.247 231.818C210.501 231.818 198.894 203.514 195.933 200.553C194.426 199.046 192.237 198.462 192.543 204.696C192.763 209.176 198.657 220.549 195.777 221.461C192.07 222.634 190.071 230.753 183.224 230.753C178.278 230.753 174.094 227.269 168.768 224.946C163.443 222.622 161.16 229.205 157.356 230.753C153.552 232.302 149.748 228.818 144.423 224.946Z" fill="black" stroke="black" stroke-width="0.733256" stroke-linecap="round"/>
<path fill-rule="evenodd" clip-rule="evenodd" d="M196.614 328.041C194.99 322.888 190.533 313.468 190.533 313.468L189.125 320.122L173.886 312.853L172.279 317.272L197.431 332.058C197.408 331.173 197.189 329.889 196.614 328.041Z" fill="#FAF6EB" stroke="black" stroke-width="0.699478" stroke-linecap="round" stroke-linejoin="round"/>
<path fill-rule="evenodd" clip-rule="evenodd" d="M171.904 316.861L171.189 318.82L196.725 333.743C196.725 333.743 197.236 333.371 197.166 331.713L171.904 316.861Z" fill="black" stroke="black" stroke-width="0.699478" stroke-linecap="round" stroke-linejoin="round"/>
<path fill-rule="evenodd" clip-rule="evenodd" d="M174.49 327.032C171.054 323.845 163.651 318.659 163.651 318.659L165.446 324.279L150.84 325.342L151.525 329.362L176.831 329.709C176.433 329.052 175.717 328.179 174.49 327.032Z" fill="#FAF6EB" stroke="black" stroke-width="0.699478" stroke-linecap="round" stroke-linejoin="round"/>
<path d="M209.153 240.242C208.211 238.387 209.545 234.833 210.33 233.287C213.782 240.396 213.076 244.492 212.292 245.651C208.939 254.408 200.244 277.872 200.129 278.49C200.521 276.43 200.129 269.893 201.306 268.445C202.875 266.514 205.622 259.946 205.229 257.241C204.981 255.531 206.406 251.059 209.153 248.355C211.899 245.651 210.33 242.56 209.153 240.242L209.153 240.242Z" fill="#1C0E0C" stroke="#1C0E0C" stroke-width="0.733256" stroke-linecap="round"/>
<path d="M170.771 82.3069C170.771 82.3069 170.803 83.1659 171.443 83.5597C172.083 83.9534 172.723 83.667 172.915 82.9154" stroke="#1C2628" stroke-width="0.549942" stroke-linecap="round" stroke-linejoin="round"/>
<path d="M303.669 324.071C303.669 324.071 306.676 330.327 304.612 332.59H278.068C278.068 332.59 278.217 328.208 284.61 327.518C290.349 326.898 293.842 324.065 293.842 324.065L303.669 324.071Z" fill="#1C0E0C"/>
<path d="M277.767 332.589H305.019C305.219 332.589 305.381 332.751 305.381 332.951V333.801C305.381 334.001 305.219 334.163 305.019 334.163H277.767C277.567 334.163 277.405 334.001 277.405 333.801V332.951C277.405 332.751 277.567 332.589 277.767 332.589Z" fill="#1C0E0C"/>
<path d="M292.123 327.311L291.231 325.297C291.179 325.179 291.103 325.073 291.009 324.986C290.915 324.898 290.804 324.83 290.682 324.787C290.561 324.744 290.433 324.726 290.304 324.734C290.176 324.742 290.05 324.776 289.935 324.834V324.834C289.73 324.937 289.569 325.112 289.483 325.325C289.397 325.539 289.392 325.776 289.468 325.993L289.592 326.333" stroke="#070707" stroke-width="4.39954" stroke-linecap="round" stroke-linejoin="round"/>
<path d="M289.49 328.244L288.627 326.182C288.581 326.079 288.515 325.987 288.433 325.91C288.351 325.834 288.254 325.775 288.148 325.737C288.042 325.699 287.93 325.683 287.817 325.69C287.705 325.697 287.595 325.726 287.495 325.777V325.777C287.316 325.868 287.175 326.02 287.1 326.207C287.025 326.393 287.02 326.601 287.086 326.791L287.161 327.076" stroke="#070707" stroke-width="4.39954" stroke-linecap="round" stroke-linejoin="round"/>
<path d="M286.834 329.084L286.265 327C286.233 326.892 286.18 326.792 286.108 326.706C286.037 326.62 285.948 326.549 285.848 326.498C285.748 326.447 285.639 326.417 285.527 326.409C285.415 326.402 285.303 326.417 285.197 326.455C284.804 326.591 284.546 326.971 284.606 327.521" stroke="#070707" stroke-width="4.39954" stroke-linecap="round" stroke-linejoin="round"/>
<path d="M350.933 324.071C350.933 324.071 353.94 330.327 351.876 332.59H326.813C326.813 332.59 326.962 328.208 333.355 327.518C339.092 326.898 342.586 324.065 342.586 324.065L350.933 324.071Z" fill="#1C0E0C"/>
<path d="M326.513 332.589H352.283C352.483 332.589 352.645 332.751 352.645 332.951V333.801C352.645 334.001 352.483 334.163 352.283 334.163H326.513C326.313 334.163 326.152 334.001 326.152 333.801V332.951C326.152 332.751 326.313 332.589 326.513 332.589Z" fill="#1C0E0C"/>
<path d="M340.867 327.31L339.98 325.297C339.929 325.179 339.853 325.073 339.759 324.986C339.665 324.898 339.554 324.83 339.433 324.787C339.312 324.744 339.183 324.726 339.055 324.734C338.927 324.742 338.801 324.776 338.687 324.834V324.834C338.481 324.937 338.32 325.112 338.233 325.325C338.147 325.538 338.142 325.776 338.218 325.993L338.341 326.333" stroke="#070707" stroke-width="4.39954" stroke-linecap="round" stroke-linejoin="round"/>
<path d="M338.238 328.244L337.373 326.182C337.328 326.079 337.262 325.987 337.18 325.91C337.098 325.834 337.001 325.775 336.895 325.737C336.789 325.699 336.677 325.683 336.565 325.69C336.453 325.697 336.343 325.726 336.243 325.777V325.777C336.063 325.867 335.922 326.02 335.847 326.206C335.772 326.393 335.767 326.601 335.834 326.791L335.909 327.076" stroke="#070707" stroke-width="4.39954" stroke-linecap="round" stroke-linejoin="round"/>
<path d="M335.58 329.084L335.013 327C334.981 326.892 334.928 326.792 334.856 326.706C334.784 326.62 334.695 326.549 334.596 326.498C334.496 326.447 334.386 326.417 334.275 326.41C334.163 326.402 334.05 326.417 333.945 326.455V326.455C333.552 326.591 333.294 326.971 333.354 327.521" stroke="#070707" stroke-width="4.39954" stroke-linecap="round" stroke-linejoin="round"/>
<path d="M296.267 188.903C294.268 196.353 293.579 221.396 292.932 258.3C292.463 285.078 290.135 323.196 290.135 323.196C290.135 323.196 296.252 325.853 307.066 323.788C307.066 323.788 317.424 289.663 313.734 264.8C313.143 260.817 318.742 237.224 318.742 237.224C318.742 237.224 341.032 317.692 341.032 324.279C341.032 324.279 349.72 325.951 354.882 324.279C354.882 324.279 362.678 287.62 350.31 266.27C343.65 254.773 345.177 212.721 345.002 209.334C344.39 197.38 338.54 188.37 338.54 188.37L296.267 188.903Z" fill="#0B3F7E" stroke="black" stroke-width="0.931235" stroke-linecap="round" stroke-linejoin="round"/>
<path d="M318.743 237.521C319.481 234.275 323.324 210.808 324.357 209.915C325.389 209.023 327.159 207.851 328.34 206.67" stroke="#070707" stroke-width="0.931235" stroke-linecap="round" stroke-linejoin="round"/>
<path d="M295.572 192.55C311.04 200.793 334.524 196.761 340.121 191.247C339.643 190.268 339.115 189.313 338.54 188.387L296.267 188.914C295.964 190.112 295.732 191.326 295.572 192.55Z" fill="#1C0E0C"/>
<path d="M337.606 174.771C337.728 175.568 337.902 176.358 338.126 177.133C344.226 177.035 349.618 176.143 352.209 173.657C359.743 166.424 354.079 148.743 353.724 147.671C351.088 149.424 347.295 151.383 341.891 153.197C339.454 163.022 337.228 172.156 337.606 174.771Z" fill="#FCBE9F" stroke="#070707" stroke-width="0.931235" stroke-linecap="round" stroke-linejoin="round"/>
<path d="M353.723 147.665C351.086 149.419 347.293 151.378 341.889 153.192C341.327 155.458 340.777 157.685 340.268 159.804C347.537 156.557 351.22 152.685 354.4 150.037L353.723 147.665Z" fill="#1C0E0C"/>
<path d="M241.786 115.206C242.149 114.732 242.765 114.636 242.889 114.44C243.012 114.243 242.969 113.749 243.334 113.431C243.699 113.113 244.23 113.162 244.457 112.977C244.684 112.791 244.53 112.25 244.961 111.787C245.391 111.323 246.011 111.381 246.149 111.241C246.287 111.101 243.876 106.902 244.795 106.359C245.715 105.815 250.41 111.77 251.337 113.166C253.245 116.042 253.265 119.653 253.518 120.947C253.537 120.961 253.555 120.977 253.57 120.994C254.308 121.879 271.713 139.137 274.81 144.889L277.568 140.709L293.393 151.91C293.393 151.91 281.89 168.629 271.713 165.09C262.082 161.741 251.132 129.199 249.109 124.72C245.787 124.064 243.011 120.373 242.104 118.69C240.921 116.52 241.422 115.683 241.786 115.206Z" fill="#FCBE9F" stroke="#070707" stroke-width="0.931235" stroke-linecap="round" stroke-linejoin="round"/>
<path d="M276.788 141.885C279.437 147.997 283.97 153.102 289.725 156.457C291.033 155.016 292.255 153.499 293.383 151.914L277.559 140.713L276.788 141.885Z" fill="#1C0E0C"/>
<path d="M327.959 113.591C326.356 112.843 320.752 107.08 321.637 100.122L309.175 101.54C309.175 101.54 307.93 110.188 305.867 114.551C310.24 115.656 314.737 116.189 319.247 116.137C326.683 116.046 327.959 113.591 327.959 113.591Z" fill="#FCBE9F" stroke="#070707" stroke-width="0.931235" stroke-linecap="round" stroke-linejoin="round"/>
<path d="M307.433 110.21C308.687 110.064 311.357 109.517 312.772 108.211C315.076 106.084 318.313 101.385 318.344 100.526L309.174 101.54C309.174 101.54 308.404 105.87 307.433 110.21Z" fill="#1C0E0C"/>
<path d="M315.336 100.6C315.336 100.6 313.375 104.094 311.365 104.597C309.355 105.101 304.749 104.708 303.348 103.871C302.483 103.355 302.744 99.0677 302.912 97.5104C302.943 97.2106 300.577 96.2093 300.731 95.297C300.893 94.3248 303.575 92.0261 303.82 90.7359C304.514 86.9543 305.456 83.3835 305.763 83.2526C306.266 83.0309 314.153 83.5325 315.087 85.6859C316.021 87.8392 314.843 94.5066 314.843 94.5066C314.843 94.5066 317.388 93.0201 318.151 95.0063C319.265 97.9102 315.336 100.6 315.336 100.6Z" fill="#FCBE9F" stroke="#070707" stroke-width="0.549942" stroke-linecap="round" stroke-linejoin="round"/>
<path d="M303.395 97.7258C303.395 97.7258 306.484 100.239 308.227 100.452C309.969 100.664 311.416 95.4271 311.956 93.1138C313.16 87.7385 313.019 85.5887 308.023 87.4223C301.436 89.841 300.117 81.6908 302.659 80.3207C304.278 79.4466 305.061 79.7174 307.344 80.8749C309.888 82.1597 315.278 77.9002 321.683 79.7846C327.7 81.5509 326.782 87.624 326.782 87.624C326.782 87.624 329.156 87.1933 329.586 90.6624C329.926 93.4063 326.119 98.2674 323.184 103.704C322.363 105.229 318.37 104.319 317.387 102.781C317.387 102.781 316.072 100.537 317.72 97.813C319.07 95.5815 316.744 93.7807 314.429 95.7269C314.769 97.2879 315.506 101.504 314.113 103.679C312.028 106.932 301.283 107.417 301.016 105.609C300.749 103.801 303.395 97.7258 303.395 97.7258Z" fill="#1C0E0C"/>
<path d="M312.696 100.354C313.901 100.688 315.189 100.53 316.278 99.9143C317.366 99.2985 318.165 98.2756 318.499 97.0708C318.833 95.8659 318.674 94.5777 318.058 93.4895C317.443 92.4014 316.42 91.6024 315.215 91.2684" fill="#FCBE9F"/>
<path d="M312.696 100.354C313.901 100.688 315.189 100.53 316.278 99.9143C317.366 99.2985 318.165 98.2756 318.499 97.0708C318.833 95.8659 318.674 94.5777 318.058 93.4895C317.443 92.4014 316.42 91.6024 315.215 91.2684" stroke="#070707" stroke-width="4.39954" stroke-linecap="round" stroke-linejoin="round"/>
<path d="M316.83 95.2609C316.83 95.2609 314.949 94.0379 313.539 96.2004L316.83 95.2609Z" fill="#FCBE9F"/>
<path d="M316.83 95.2609C316.83 95.2609 314.949 94.0379 313.539 96.2004" stroke="#070707" stroke-width="4.39954" stroke-linecap="round" stroke-linejoin="round"/>
<path d="M314.715 95.1101L315.684 97" stroke="#070707" stroke-width="4.39954" stroke-linecap="round" stroke-linejoin="round"/>
<path d="M305.938 93.139C305.532 93.0598 305.3 92.4996 305.42 91.8879C305.539 91.2763 305.965 90.8446 306.371 90.9239C306.776 91.0031 307.009 91.5633 306.889 92.1749C306.77 92.7866 306.344 93.2183 305.938 93.139Z" fill="#1C0E0C"/>
<path d="M307.011 88.4469L308.74 89.3806C309.059 89.5532 309.178 89.9524 309.006 90.272C308.833 90.5916 308.434 90.7108 308.114 90.5381L306.386 89.6044C306.066 89.4317 305.947 89.0326 306.12 88.7129C306.293 88.3933 306.692 88.2742 307.011 88.4469Z" fill="#1C0E0C"/>
<path d="M346.83 134.5L341.889 153.193" stroke="#070707" stroke-width="0.931235" stroke-linecap="round" stroke-linejoin="round"/>
<path d="M286.01 123.542C286.01 123.542 296.566 124.186 298.186 135.628" stroke="#070707" stroke-width="0.931235" stroke-linecap="round" stroke-linejoin="round"/>
<path d="M341.89 153.193C339.453 163.022 337.227 172.156 337.605 174.771C338.401 180.257 342.811 187.015 340.743 188.592C334.952 193.008 316.258 197.597 294.768 190.046C294.768 190.046 297.521 184.856 294.545 164.127C294.103 161.063 293.525 156.799 292.934 152.108H292.924C283.265 148.712 275.778 138.627 275.778 138.627C275.778 138.627 280.467 126.161 285.646 121.957C288.917 119.304 305.864 114.55 307.247 113.744L327.356 113.476C328.697 113.591 343.058 118.141 348.962 122.49C354.336 126.448 359.375 142.243 359.375 142.243C359.375 142.243 356.602 148.25 341.89 153.193Z" fill="#F4F1ED" stroke="#070707" stroke-width="0.931235" stroke-linecap="round" stroke-linejoin="round"/>
<path fill-rule="evenodd" clip-rule="evenodd" d="M355.351 146.091C355.351 146.091 346.324 151.899 343.735 151.899C342.714 146.443 337.786 145.348 336.411 138.338C335.39 133.059 337.786 131.817 336.189 128.489C333.483 122.811 325.453 124.497 323.368 119.439C322.702 117.842 323.555 115.92 324.132 114.145C328.879 113.391 345.002 118.252 348.817 123.221C355.351 129.029 358.981 142.098 358.981 142.098L355.351 146.091Z" fill="black" stroke="black" stroke-width="0.817823" stroke-linecap="round" stroke-linejoin="round"/>
<path fill-rule="evenodd" clip-rule="evenodd" d="M270.789 332.263C270.734 332.455 268.263 332.565 269.142 334.294C270.048 336.051 274.138 336.985 276.032 337.396C282.813 338.824 295.304 335.667 302.743 335.365C304.857 335.283 310.375 335.145 310.457 332.482C310.595 328.42 305.736 327.404 301.7 327.349C294.37 327.239 286.821 329.682 279.821 331.357C278.091 331.741 271.118 331.137 270.789 332.263Z" fill="#FAF6EB" stroke="#1C2628" stroke-width="0.817823" stroke-linecap="round" stroke-linejoin="round"/>
<path fill-rule="evenodd" clip-rule="evenodd" d="M287.068 333.745C286.107 331.192 281.056 328.529 279.299 327.843C278.942 327.706 278.256 327.431 277.569 327.267C276.389 327.925 275.153 328.694 274.22 329.106C268.373 331.577 268.675 332.126 269.8 333.443C270.953 334.734 282.099 334.898 287.068 333.745Z" fill="#1C2628" stroke="#1C2628" stroke-width="0.817823" stroke-linecap="round" stroke-linejoin="round"/>
<path fill-rule="evenodd" clip-rule="evenodd" d="M307.548 325.18C305.736 326.416 302.909 328.145 301.316 329.957C306.011 330.753 310.046 330.616 310.046 330.616L307.548 325.18Z" fill="#1C2628" stroke="#1C2628" stroke-width="0.817823" stroke-linecap="round" stroke-linejoin="round"/>
<path fill-rule="evenodd" clip-rule="evenodd" d="M310.046 317.851C310.046 317.851 304.418 324.439 299.971 322.6C295.524 320.761 290.171 315.984 290.171 315.984C290.171 315.984 283.692 323.753 277.598 327.267C278.284 327.432 278.97 327.706 279.327 327.843C281.084 328.53 286.135 331.165 287.096 333.746H287.124C292.12 332.593 296.402 329.134 301.179 329.957C301.234 329.957 301.289 329.957 301.344 329.957C302.909 328.145 305.764 326.416 307.575 325.18L310.046 317.851Z" fill="#FAF6EB" stroke="#1C2628" stroke-width="0.817823" stroke-linecap="round" stroke-linejoin="round"/>
<path fill-rule="evenodd" clip-rule="evenodd" d="M282.924 323.286C284.242 324.631 284.132 324.577 285.038 325.373L282.924 323.286Z" fill="#F45B49"/>
<path d="M282.924 323.286C284.242 324.631 284.132 324.577 285.038 325.373" stroke="#1C2628" stroke-width="0.817823" stroke-linecap="round" stroke-linejoin="round"/>
<path fill-rule="evenodd" clip-rule="evenodd" d="M285.037 321.859L287.123 323.89L285.037 321.859Z" fill="#F45B49"/>
<path d="M285.037 321.859L287.123 323.89" stroke="#1C2628" stroke-width="0.817823" stroke-linecap="round" stroke-linejoin="round"/>
<path fill-rule="evenodd" clip-rule="evenodd" d="M287.205 319.937L289.182 321.886L287.205 319.937Z" fill="#F45B49"/>
<path d="M287.205 319.937L289.182 321.886" stroke="#1C2628" stroke-width="0.817823" stroke-linecap="round" stroke-linejoin="round"/>
<path fill-rule="evenodd" clip-rule="evenodd" d="M318.709 332.989C318.654 333.181 316.183 333.291 317.062 335.02C317.968 336.777 322.058 337.71 323.952 338.122C330.733 339.55 343.224 336.393 350.663 336.091C352.777 336.008 358.295 335.871 358.377 333.208C358.514 329.145 353.655 328.13 349.62 328.075C342.29 327.965 334.741 330.408 327.741 332.083C326.011 332.467 319.038 331.863 318.709 332.989Z" fill="#FAF6EB" stroke="#1C2628" stroke-width="0.817823" stroke-linecap="round" stroke-linejoin="round"/>
<path fill-rule="evenodd" clip-rule="evenodd" d="M334.988 334.471C334.027 331.918 328.976 329.255 327.219 328.569C326.862 328.432 326.175 328.157 325.489 327.992C324.309 328.651 323.073 329.42 322.14 329.832C316.293 332.302 316.595 332.852 317.72 334.169C318.873 335.459 330.019 335.624 334.988 334.471Z" fill="#1C2628" stroke="#1C2628" stroke-width="0.817823" stroke-linecap="round" stroke-linejoin="round"/>
<path fill-rule="evenodd" clip-rule="evenodd" d="M355.468 325.906C353.656 327.142 350.829 328.871 349.236 330.683C353.931 331.479 357.966 331.342 357.966 331.342L355.468 325.906Z" fill="#1C2628" stroke="#1C2628" stroke-width="0.817823" stroke-linecap="round" stroke-linejoin="round"/>
<path fill-rule="evenodd" clip-rule="evenodd" d="M357.966 318.577C357.966 318.577 352.338 325.165 347.891 323.326C343.444 321.487 338.091 316.71 338.091 316.71C338.091 316.71 331.612 324.479 325.518 327.993C326.204 328.157 326.89 328.432 327.247 328.569C329.004 329.256 334.055 331.891 335.016 334.471H335.043C340.04 333.318 344.322 329.859 349.099 330.683C349.154 330.683 349.209 330.683 349.264 330.683C350.828 328.871 353.683 327.142 355.495 325.906L357.966 318.577Z" fill="#FAF6EB" stroke="#1C2628" stroke-width="0.817823" stroke-linecap="round" stroke-linejoin="round"/>
<path fill-rule="evenodd" clip-rule="evenodd" d="M330.844 324.012C332.161 325.357 332.052 325.302 332.958 326.099L330.844 324.012Z" fill="#F45B49"/>
<path d="M330.844 324.012C332.161 325.357 332.052 325.302 332.958 326.099" stroke="#1C2628" stroke-width="0.817823" stroke-linecap="round" stroke-linejoin="round"/>
<path fill-rule="evenodd" clip-rule="evenodd" d="M332.957 322.585L335.043 324.616L332.957 322.585Z" fill="#F45B49"/>
<path d="M332.957 322.585L335.043 324.616" stroke="#1C2628" stroke-width="0.817823" stroke-linecap="round" stroke-linejoin="round"/>
<path fill-rule="evenodd" clip-rule="evenodd" d="M335.125 320.663L337.102 322.612L335.125 320.663Z" fill="#F45B49"/>
<path d="M335.125 320.663L337.102 322.612" stroke="#1C2628" stroke-width="0.817823" stroke-linecap="round" stroke-linejoin="round"/>
</svg>
