<svg width="455" height="432" viewBox="0 0 455 432" fill="none" xmlns="http://www.w3.org/2000/svg">
<path d="M217.189 168.103C236.122 180.996 271.945 174.751 293.967 186.346C316.169 197.896 324.704 227.063 317.139 243.717C309.574 260.192 274.035 272.593 254.877 289.247C235.943 305.722 233.213 326.271 221.844 342.567C207.923 352.64 188.235 367.548 172.07 367.548C160.543 367.548 137.963 345.119 120.461 332.046C103.139 318.795 84.3841 311.676 72.4778 298.604C60.3925 285.71 55.3345 266.684 48.3071 244.075C41.2797 221.333 32.4171 194.83 39.4445 173.743C46.651 152.836 69.5684 137.391 94.0972 127.363C118.447 117.335 144.05 112.903 164.103 122.259C183.976 131.75 198.255 155.209 217.189 168.103Z" fill="#A61A32"/>
<path d="M177.244 385.17H184.671" stroke="#FAF6EB" stroke-width="2.13" stroke-linecap="round" stroke-linejoin="round"/>
<path d="M169.894 400.274H192.02" stroke="#1C2628" stroke-width="2.13" stroke-linecap="round" stroke-linejoin="round"/>
<path d="M153.306 412.916H208.487" stroke="#1C2628" stroke-width="2.13" stroke-linecap="round" stroke-linejoin="round"/>
<path d="M267.145 404.734H217.5V405.285H267.145V404.734Z" fill="#1C2628" stroke="#1C2628" stroke-width="2.13" stroke-linecap="round" stroke-linejoin="round"/>
<path fill-rule="evenodd" clip-rule="evenodd" d="M321.677 7.67129C318.434 4.42775 289.618 24.9701 289.618 24.9701C289.618 24.9701 271.52 76.4436 267.054 86.5033C262.542 96.657 246.183 123.357 246.183 123.357C246.183 123.357 213.137 121.195 197.483 134.921C188.316 142.96 177.599 172.668 177.599 172.668C177.599 172.668 162.744 175.395 154.471 167.827C149.723 163.502 144.552 150.857 141.168 144.981C138.629 140.656 137.219 142.254 137.219 142.254L140.745 165.57L132.283 163.784L141.638 178.827C141.638 178.827 172.804 205.903 185.073 197.818C197.342 189.732 206.837 175.395 206.837 175.395L206.885 209.758L264.657 190.625L265.315 153.348C265.315 153.348 285.246 122.088 294.319 88.9947C298.597 73.2941 303.532 41.4228 303.532 41.4228C303.532 41.4228 317.242 30.711 324.827 21.1625C326.331 11.902 325.579 11.5729 321.677 7.67129Z" fill="#D9A191" stroke="#1C2628" stroke-width="1.65922" stroke-linecap="round" stroke-linejoin="round"/>
<path fill-rule="evenodd" clip-rule="evenodd" d="M329.34 7.01346L328.964 6.12031C328.4 4.75709 326.849 4.09898 325.486 4.66307L317.541 7.71857C316.178 8.23566 315.52 9.73991 316.084 11.1031L316.413 11.9963C316.977 13.3595 318.528 14.0176 319.892 13.4535L327.836 10.398C329.246 9.83393 329.904 8.32968 329.34 7.01346Z" fill="#D9A190" stroke="#1C2628" stroke-width="1.65922" stroke-linecap="round" stroke-linejoin="round"/>
<path fill-rule="evenodd" clip-rule="evenodd" d="M329.387 13.218L329.011 12.3249C328.447 10.9617 326.896 10.3036 325.532 10.8677L317.588 13.9232C316.225 14.4402 315.567 15.9445 316.131 17.3077L316.507 18.2009C317.071 19.5641 318.622 20.2222 319.985 19.6581L327.93 16.6026C329.293 16.0855 329.951 14.5813 329.387 13.218Z" fill="#D9A190" stroke="#1C2628" stroke-width="1.65922" stroke-linecap="round" stroke-linejoin="round"/>
<path fill-rule="evenodd" clip-rule="evenodd" d="M329.106 20.0808L328.73 19.1877C328.166 17.8245 326.614 17.1664 325.251 17.7305L317.307 20.786C315.944 21.303 315.285 22.8073 315.85 24.1705L316.226 25.0637C316.79 26.4269 318.341 27.085 319.704 26.5209L327.649 23.4654C328.965 22.9483 329.623 21.4441 329.106 20.0808Z" fill="#D9A190" stroke="#1C2628" stroke-width="1.65922" stroke-linecap="round" stroke-linejoin="round"/>
<path fill-rule="evenodd" clip-rule="evenodd" d="M301.23 35.8286C301.7 32.5381 302.17 25.91 299.82 23.2776C297.469 20.6451 305.648 14.4401 303.345 11.5727C299.537 6.87188 290.418 24.9229 290.418 24.9229" fill="#D9A190"/>
<path d="M301.23 35.8286C301.7 32.5381 302.17 25.91 299.82 23.2776C297.469 20.6451 305.648 14.4401 303.345 11.5727C299.537 6.87188 290.418 24.9229 290.418 24.9229" stroke="#1C2628" stroke-width="1.65922" stroke-linecap="round" stroke-linejoin="round"/>
<path fill-rule="evenodd" clip-rule="evenodd" d="M212.619 98.255C208.06 83.4946 214.077 72.1187 235.136 74.7982C237.58 75.1272 240.495 75.4093 242.704 76.6785C252.67 82.5074 250.79 89.2765 252.012 90.6398C255.584 94.7294 257.277 110.477 258.781 114.896L209.423 114.379L212.619 98.255Z" fill="#1C2628" stroke="#1C2628" stroke-width="1.65922" stroke-linecap="round" stroke-linejoin="round"/>
<path fill-rule="evenodd" clip-rule="evenodd" d="M225.311 312.046C225.311 312.046 233.114 351.015 239.978 372.31C244.913 387.634 247.358 393.604 235.465 394.827C223.525 396.049 210.88 394.262 210.88 394.262L189.115 396.613C189.115 396.613 180.842 396.331 189.303 390.502C197.671 384.72 211.35 383.545 215.016 375.929C218.636 368.22 195.32 325.161 195.32 325.161L225.311 312.046Z" fill="#D9A191" stroke="#1C2628" stroke-width="1.65922" stroke-linecap="round" stroke-linejoin="round"/>
<path fill-rule="evenodd" clip-rule="evenodd" d="M238.474 108.221L238.286 121.195L241.577 125.003C241.577 125.003 243.175 137.93 238.051 140.939C232.457 144.276 219.859 137.742 215.581 136.661C211.727 135.674 217.885 127.588 217.885 127.588L218.308 112.687L217.932 106.905L238.474 108.221Z" fill="#D9A191" stroke="#1C2628" stroke-width="1.65922" stroke-linecap="round" stroke-linejoin="round"/>
<path fill-rule="evenodd" clip-rule="evenodd" d="M241.107 100.511C242 97.2679 241.671 90.7808 240.872 87.8193C239.415 82.4604 237.911 84.8108 232.458 83.3066C226.394 81.6143 223.432 79.2169 219.483 84.0587C217.932 85.939 213.372 92.9902 212.667 95.5286C210.176 104.601 214.971 113.862 223.385 116.212C228.791 117.716 233.21 117.246 237.158 113.392C239.462 111.276 240.214 103.755 241.107 100.511Z" fill="#D9A191" stroke="#1C2628" stroke-width="1.65922" stroke-linecap="round" stroke-linejoin="round"/>
<path fill-rule="evenodd" clip-rule="evenodd" d="M228.884 99.6657C229.308 98.3965 228.132 96.8923 226.299 96.2812C224.466 95.6701 222.632 96.1872 222.209 97.4564C221.786 98.7256 222.961 100.23 224.795 100.841C226.675 101.452 228.461 100.935 228.884 99.6657Z" fill="#FAFCFF" stroke="#1C2628" stroke-width="1.65922" stroke-linecap="round" stroke-linejoin="round"/>
<path fill-rule="evenodd" clip-rule="evenodd" d="M217.931 94.6352C218.354 93.366 217.179 91.8618 215.346 91.2507C213.513 90.6396 211.679 91.1567 211.256 92.4259C210.833 93.6951 212.008 95.1993 213.842 95.8104C215.722 96.4215 217.508 95.8574 217.931 94.6352Z" fill="#FAFCFF" stroke="#1C2628" stroke-width="1.65922" stroke-linecap="round" stroke-linejoin="round"/>
<path fill-rule="evenodd" clip-rule="evenodd" d="M236.593 122.7L237.909 109.443C237.909 109.443 227.239 107.093 224.653 109.866C222.115 112.64 224.794 121.759 224.794 121.759L231.234 122.747" fill="#D9A191"/>
<path fill-rule="evenodd" clip-rule="evenodd" d="M247.547 99.1479C245.008 103.661 240.73 93.507 240.73 93.507L223.479 89.4173L222.256 80.6269L218.214 90.4515L212.056 90.3105C212.056 90.3105 216.944 78.0885 218.167 76.9133C223.196 72.1185 231.752 72.3535 237.299 76.9603C241.953 80.8149 252.811 89.8404 247.547 99.1479Z" fill="#1C2628" stroke="#1C2628" stroke-width="1.65922" stroke-linecap="round" stroke-linejoin="round"/>
<path fill-rule="evenodd" clip-rule="evenodd" d="M239.414 101.452C240.636 99.9947 243.034 101.452 243.504 102.862C244.444 105.777 242.235 110.712 237.675 107.751" fill="#D9A191"/>
<path d="M239.414 101.452C240.636 99.9947 243.034 101.452 243.504 102.862C244.444 105.777 242.235 110.712 237.675 107.751" stroke="#1C2628" stroke-width="1.65922" stroke-linecap="round" stroke-linejoin="round"/>
<path fill-rule="evenodd" clip-rule="evenodd" d="M223.15 100.182C224.043 100.746 225.124 100.605 225.595 99.9C226.065 99.1949 225.689 98.1607 224.795 97.5966C223.902 97.0325 222.821 97.1735 222.351 97.8787C221.881 98.5838 222.257 99.6179 223.15 100.182Z" fill="#1C2628" stroke="#1C2628" stroke-width="1.65922" stroke-linecap="round" stroke-linejoin="round"/>
<path fill-rule="evenodd" clip-rule="evenodd" d="M214.501 94.7766C215.065 93.8835 214.924 92.4732 212.574 92.0502C211.727 91.9091 211.821 92.3322 211.21 93.1783C210.646 94.0715 211.398 95.0116 212.103 95.4817C212.856 95.9518 213.937 95.6698 214.501 94.7766Z" fill="#1C2628" stroke="#1C2628" stroke-width="1.65922" stroke-linecap="round" stroke-linejoin="round"/>
<path d="M240.636 104.319C240.542 104.414 240.448 104.508 240.4 104.649" stroke="#1C2628" stroke-width="1.65922" stroke-linecap="round" stroke-linejoin="round"/>
<path fill-rule="evenodd" clip-rule="evenodd" d="M401.779 198.194C401.779 198.194 401.262 198.993 400.321 200.403C393.787 210.322 366.241 249.95 340.199 256.061C334.323 257.424 327.224 257.424 319.609 256.578C288.819 253.052 249.521 235.142 248.91 234.86L220.846 274.723L241.247 333.435L231.235 334.94L196.637 340.204C196.637 340.204 168.855 292.209 169.89 280.364C171.535 261.184 206.226 198.664 206.226 198.664L237.346 190.062L266.866 181.882L297.045 196.596L298.738 197.395L337.566 210.416L374.843 174.455L401.779 198.194Z" fill="#B0FFAE" stroke="#1C2628" stroke-width="1.65922" stroke-linecap="round" stroke-linejoin="round"/>
<path fill-rule="evenodd" clip-rule="evenodd" d="M275.187 171.964C275.187 171.964 260.192 174.784 253.328 176.1C248.299 177.041 242.611 181.224 230.577 184.468C229.778 184.703 228.931 184.891 228.085 185.126C222.585 186.489 205.898 189.357 205.898 189.357L204.581 169.284L201.949 162.139C200.727 158.802 200.727 155.182 201.902 151.844L207.496 136.332L211.21 125.943L217.791 124.016L216.38 135.251L235.936 135.204L240.73 122.794L246.935 122.135L247.264 127.306C247.735 134.452 251.448 141.033 257.277 145.169L265.597 151.045L267.055 154.195L275.187 171.964Z" fill="#B0FFAE" stroke="#1C2628" stroke-width="1.65922" stroke-linecap="round" stroke-linejoin="round"/>
<path fill-rule="evenodd" clip-rule="evenodd" d="M227.851 104.413C226.676 106.904 223.244 106.058 220.847 106.905C220.847 106.905 222.727 111.041 226.817 108.879C229.496 107.422 227.851 104.413 227.851 104.413Z" fill="#1C2628" stroke="#1C2628" stroke-width="1.65922" stroke-linecap="round" stroke-linejoin="round"/>
<path d="M220.235 98.4432C220.235 94.8707 223.338 92.0032 227.192 92.0032C231.047 92.0032 234.15 94.8707 234.15 98.4432C234.15 102.016 231.047 104.883 227.192 104.883C223.338 104.883 220.235 102.016 220.235 98.4432Z" stroke="#DDD8D8" stroke-width="1.65922" stroke-linecap="round" stroke-linejoin="round"/>
<path d="M206.509 94.1774C206.509 90.6048 209.611 87.7373 213.466 87.7373C217.321 87.7373 220.423 90.6048 220.423 94.1774C220.423 97.7499 217.321 100.617 213.466 100.617C209.611 100.617 206.509 97.7029 206.509 94.1774Z" stroke="#DDD8D8" stroke-width="1.65922" stroke-linecap="round" stroke-linejoin="round"/>
<path fill-rule="evenodd" clip-rule="evenodd" d="M218.966 98.8662C215.817 98.3021 213.043 96.0927 212.056 97.691C210.787 99.7593 214.923 103.144 215.581 103.332" fill="#D9A191"/>
<path d="M218.966 98.8662C215.817 98.3021 213.043 96.0927 212.056 97.691C210.787 99.7593 214.923 103.144 215.581 103.332" stroke="#1C2628" stroke-width="1.65922" stroke-linecap="round" stroke-linejoin="round"/>
<path d="M223.808 78.3711C226.628 78.3711 226.581 86.9735 227.098 90.123" stroke="#FAF6EB" stroke-width="1.65922" stroke-linecap="round" stroke-linejoin="round"/>
<path d="M235.09 74.6099C245.432 84.4815 244.491 98.3488 245.808 105.494" stroke="#FAF6EB" stroke-width="1.65922" stroke-linecap="round" stroke-linejoin="round"/>
<path d="M249.521 94.2124C250.508 99.6653 251.777 105.071 252.952 110.524" stroke="#FAF6EB" stroke-width="1.65922" stroke-linecap="round" stroke-linejoin="round"/>
<path d="M219.811 147.002C218.542 155.37 213.888 164.489 209.516 169.19C208.717 170.036 207.636 171.07 206.461 171.916" stroke="#1C2628" stroke-width="1.65922" stroke-linecap="round" stroke-linejoin="round"/>
<path d="M204.581 156.874C209.893 149.682 225.17 134.169 235.277 141.831C244.538 148.836 227.286 174.502 221.786 181.788" stroke="#1C2628" stroke-width="1.65922" stroke-linecap="round" stroke-linejoin="round"/>
<path d="M214.828 181.459C216.52 177.604 219.435 173.374 220.14 172.387C226.016 164.066 242.751 142.725 255.161 146.673C255.396 146.72 255.584 146.814 255.772 146.908" stroke="#1C2628" stroke-width="1.65922" stroke-linecap="round" stroke-linejoin="round"/>
<path d="M259.91 147.002C260.004 148.6 255.773 166.886 248.252 176.993" stroke="#1C2628" stroke-width="1.65922" stroke-linecap="round" stroke-linejoin="round"/>
<path d="M241.248 176.1C241.765 174.784 242.329 173.467 242.94 172.198C246.325 164.912 251.355 156.874 257.842 151.139" stroke="#1C2628" stroke-width="1.65922" stroke-linecap="round" stroke-linejoin="round"/>
<path d="M276.927 205.339C290.23 208.865 331.973 227.856 341.327 224.895C350.682 221.886 360.977 207.784 370.096 202.425" stroke="#1C2628" stroke-width="1.65922" stroke-linecap="round" stroke-linejoin="round"/>
<path d="M206.603 218.219C209.753 231.569 185.356 245.813 182.347 260.902C179.15 276.932 194.428 258.552 200.304 258.552C206.086 258.552 197.578 274.393 196.543 277.919C193.488 288.355 194.24 292.303 199.505 301.893" stroke="#1C2628" stroke-width="1.65922" stroke-linecap="round" stroke-linejoin="round"/>
<path d="M222.867 200.967L275.187 185.877" stroke="#1C2628" stroke-width="1.65922" stroke-linecap="round" stroke-linejoin="round"/>
<path fill-rule="evenodd" clip-rule="evenodd" d="M212.479 364.836L215.911 384.109L244.022 381.524L237.347 359.806L212.479 364.836Z" fill="#A61A32" stroke="#1C2628" stroke-width="1.65922" stroke-linecap="round" stroke-linejoin="round"/>
<path fill-rule="evenodd" clip-rule="evenodd" d="M232.598 360.747C235.042 365.918 236.922 375.554 238.521 381.242Z" fill="#FAF6EB"/>
<path d="M232.598 360.747C235.042 365.918 236.922 375.554 238.521 381.242" stroke="#1C2628" stroke-width="1.65922" stroke-linecap="round" stroke-linejoin="round"/>
<path fill-rule="evenodd" clip-rule="evenodd" d="M227.662 362.062C229.589 368.878 232.692 376.446 233.491 383.451Z" fill="#FAF6EB"/>
<path d="M227.662 362.062C229.589 368.878 232.692 376.446 233.491 383.451" stroke="#1C2628" stroke-width="1.65922" stroke-linecap="round" stroke-linejoin="round"/>
<path fill-rule="evenodd" clip-rule="evenodd" d="M222.679 362.908C224.7 370.054 226.674 377.763 228.273 385.002Z" fill="#FAF6EB"/>
<path d="M222.679 362.908C224.7 370.054 226.674 377.763 228.273 385.002" stroke="#1C2628" stroke-width="1.65922" stroke-linecap="round" stroke-linejoin="round"/>
<path fill-rule="evenodd" clip-rule="evenodd" d="M217.603 363.802C219.436 370.242 220.658 377.716 222.115 384.344Z" fill="#FAF6EB"/>
<path d="M217.603 363.802C219.436 370.242 220.658 377.716 222.115 384.344" stroke="#1C2628" stroke-width="1.65922" stroke-linecap="round" stroke-linejoin="round"/>
<path fill-rule="evenodd" clip-rule="evenodd" d="M207.073 378.327L212.103 369.678C212.103 369.678 219.06 369.631 218.825 371.417C218.59 373.203 215.864 380.725 215.864 380.725L207.073 378.327Z" fill="#FAF6EB" stroke="#1C2628" stroke-width="1.65922" stroke-linecap="round" stroke-linejoin="round"/>
<path fill-rule="evenodd" clip-rule="evenodd" d="M209.189 375.225L222.727 379.408C222.727 379.408 234.432 381.994 236.876 381.336C239.368 380.631 238.756 378.703 240.12 377.622C241.483 376.541 244.068 376.776 244.068 376.776C244.068 376.776 244.632 379.126 245.055 384.438C245.479 389.75 243.504 396.002 243.504 396.002L201.808 397.6L180.561 397.694C180.561 397.694 176.612 389.75 182.488 387.212C188.458 384.626 194.005 383.78 202.372 380.348C206.556 378.609 209.189 375.225 209.189 375.225Z" fill="#47584E" stroke="#1C2628" stroke-width="1.65922" stroke-linecap="round" stroke-linejoin="round"/>
<path fill-rule="evenodd" clip-rule="evenodd" d="M243.739 394.216C242.658 393.934 224.184 393.652 224.184 393.652C224.184 393.652 220.846 395.25 210.598 396.425C200.351 397.6 180.561 397.365 180.561 397.365C180.561 397.365 184.744 400.656 193.911 399.951C204.534 399.152 243.222 398.87 243.222 398.87C243.222 398.87 245.337 397.977 245.478 396.942C245.525 395.908 244.914 394.545 243.739 394.216Z" fill="#FAF6EB" stroke="#1C2628" stroke-width="1.65922" stroke-linecap="round" stroke-linejoin="round"/>
<path d="M208.06 380.489C208.06 379.925 208.53 379.455 209.141 379.455C209.752 379.455 210.222 379.925 210.222 380.489C210.222 381.053 209.752 381.523 209.141 381.523C208.577 381.523 208.06 381.053 208.06 380.489Z" fill="#FAF6EB" stroke="#1C2628" stroke-width="1.65922" stroke-linecap="round" stroke-linejoin="round"/>
<path d="M201.526 383.451C201.526 382.887 201.996 382.417 202.608 382.417C203.219 382.417 203.689 382.887 203.689 383.451C203.689 384.015 203.219 384.485 202.608 384.485C202.043 384.485 201.526 384.015 201.526 383.451Z" fill="#FAF6EB" stroke="#1C2628" stroke-width="1.65922" stroke-linecap="round" stroke-linejoin="round"/>
<path d="M194.897 386.037C194.897 385.473 195.368 385.002 195.979 385.002C196.59 385.002 197.06 385.473 197.06 386.037C197.06 386.601 196.59 387.071 195.979 387.071C195.415 387.071 194.897 386.601 194.897 386.037Z" fill="#FAF6EB" stroke="#1C2628" stroke-width="1.65922" stroke-linecap="round" stroke-linejoin="round"/>
<path fill-rule="evenodd" clip-rule="evenodd" d="M206.697 376.729L208.766 379.878Z" fill="#FAF6EB"/>
<path d="M206.697 376.729L208.766 379.878" stroke="#1C2628" stroke-width="1.65922" stroke-linecap="round" stroke-linejoin="round"/>
<path fill-rule="evenodd" clip-rule="evenodd" d="M200.398 379.69L202.467 382.84Z" fill="#FAF6EB"/>
<path d="M200.398 379.69L202.467 382.84" stroke="#1C2628" stroke-width="1.65922" stroke-linecap="round" stroke-linejoin="round"/>
<path fill-rule="evenodd" clip-rule="evenodd" d="M193.77 382.182L195.838 385.332Z" fill="#FAF6EB"/>
<path d="M193.77 382.182L195.838 385.332" stroke="#1C2628" stroke-width="1.65922" stroke-linecap="round" stroke-linejoin="round"/>
<path fill-rule="evenodd" clip-rule="evenodd" d="M222.538 379.268C222.538 379.268 220.282 382.981 222.821 385.708C225.359 388.387 231.376 393.417 231.376 393.417C231.376 393.417 231.282 389.609 234.102 388.105C236.923 386.648 244.585 384.767 244.585 384.767L245.008 380.866L238.427 380.772C238.427 380.772 233.914 381.289 230.154 380.772C226.346 380.255 222.538 379.268 222.538 379.268Z" fill="#FAF6EB" stroke="#1C2628" stroke-width="1.65922" stroke-linecap="round" stroke-linejoin="round"/>
<path fill-rule="evenodd" clip-rule="evenodd" d="M179.667 389.515C179.667 389.515 181.547 391.536 185.919 391.395C190.291 391.254 192.97 391.16 192.97 391.16L193.205 388.716C193.205 388.716 190.197 389.186 189.962 387.728C189.727 386.271 189.022 384.626 189.022 384.626C189.022 384.626 186.53 385.284 182.534 386.976C180.184 387.964 179.667 389.515 179.667 389.515Z" fill="#FAF6EB" stroke="#1C2628" stroke-width="1.65922" stroke-linecap="round" stroke-linejoin="round"/>
<path d="M192.923 388.716L207.072 387.681L214.029 395.72" stroke="#1C2628" stroke-width="1.65922" stroke-linecap="round" stroke-linejoin="round"/>
<path fill-rule="evenodd" clip-rule="evenodd" d="M396.974 193.342L421.942 179.445L393.878 161.359L379.7 178.42L396.974 193.342Z" fill="#A61A32" stroke="#1C2628" stroke-width="1.65922" stroke-linecap="round" stroke-linejoin="round"/>
<path fill-rule="evenodd" clip-rule="evenodd" d="M387.535 178.074C390.309 173.092 397.125 165.993 400.791 161.34Z" fill="#FAF6EB"/>
<path d="M387.535 178.074C390.309 173.092 397.125 165.993 400.791 161.34" stroke="#1C2628" stroke-width="1.65922" stroke-linecap="round" stroke-linejoin="round"/>
<path fill-rule="evenodd" clip-rule="evenodd" d="M391.484 181.365C395.903 175.818 405.775 166.981 410.993 162.28Z" fill="#FAF6EB"/>
<path d="M391.484 181.365C395.903 175.818 405.775 166.981 410.993 162.28" stroke="#1C2628" stroke-width="1.65922" stroke-linecap="round" stroke-linejoin="round"/>
<path fill-rule="evenodd" clip-rule="evenodd" d="M395.058 184.89C399.664 179.108 409.348 172.151 414.331 166.651Z" fill="#FAF6EB"/>
<path d="M395.058 184.89C399.664 179.108 409.348 172.151 414.331 166.651" stroke="#1C2628" stroke-width="1.65922" stroke-linecap="round" stroke-linejoin="round"/>
<path fill-rule="evenodd" clip-rule="evenodd" d="M398.724 188.51C402.907 183.245 414.706 176.711 419.266 171.681Z" fill="#FAF6EB"/>
<path d="M398.724 188.51C402.907 183.245 414.706 176.711 419.266 171.681" stroke="#1C2628" stroke-width="1.65922" stroke-linecap="round" stroke-linejoin="round"/>
<path fill-rule="evenodd" clip-rule="evenodd" d="M425.095 175.818L419.313 183.951C419.313 183.951 412.356 183.387 412.779 181.647C413.155 179.861 416.54 172.622 416.54 172.622L425.095 175.818Z" fill="#FAF6EB" stroke="#1C2628" stroke-width="1.65922" stroke-linecap="round" stroke-linejoin="round"/>
<path fill-rule="evenodd" clip-rule="evenodd" d="M422.745 178.686L409.63 173.327C409.63 173.327 398.207 169.708 395.715 170.178C393.177 170.648 393.6 172.622 392.143 173.562C390.685 174.502 384.856 171.823 384.856 171.823C384.856 171.823 387.771 171.682 387.818 166.37C387.865 161.058 390.403 154.994 390.403 154.994L432.099 157.109L453.253 158.896C453.253 158.896 456.449 167.122 450.385 169.19C444.227 171.212 438.586 171.588 429.984 174.267C425.659 175.584 422.745 178.686 422.745 178.686Z" fill="#47584E" stroke="#1C2628" stroke-width="1.65922" stroke-linecap="round" stroke-linejoin="round"/>
<path fill-rule="evenodd" clip-rule="evenodd" d="M390.027 156.733C391.061 157.109 409.441 159.036 409.441 159.036C409.441 159.036 412.919 157.72 423.214 157.485C433.556 157.25 453.205 159.224 453.205 159.224C453.205 159.224 449.35 155.558 440.137 155.464C429.466 155.323 390.967 152.126 390.967 152.126C390.967 152.126 388.757 152.831 388.569 153.819C388.381 154.853 388.851 156.31 390.027 156.733Z" fill="#FAF6EB" stroke="#1C2628" stroke-width="1.65922" stroke-linecap="round" stroke-linejoin="round"/>
<path d="M424.296 173.562C424.249 174.126 423.732 174.549 423.121 174.502C422.509 174.455 422.086 173.938 422.133 173.374C422.18 172.81 422.698 172.387 423.309 172.434C423.92 172.481 424.343 172.998 424.296 173.562Z" fill="#FAF6EB" stroke="#1C2628" stroke-width="1.65922" stroke-linecap="round" stroke-linejoin="round"/>
<path d="M431.065 171.211C431.018 171.775 430.501 172.199 429.89 172.151C429.279 172.104 428.856 171.587 428.903 171.023C428.95 170.459 429.467 170.036 430.078 170.083C430.689 170.13 431.112 170.6 431.065 171.211Z" fill="#FAF6EB" stroke="#1C2628" stroke-width="1.65922" stroke-linecap="round" stroke-linejoin="round"/>
<path d="M437.928 169.19C437.881 169.754 437.364 170.178 436.752 170.131C436.141 170.084 435.718 169.566 435.765 169.002C435.812 168.438 436.329 168.015 436.94 168.062C437.505 168.109 437.975 168.626 437.928 169.19Z" fill="#FAF6EB" stroke="#1C2628" stroke-width="1.65922" stroke-linecap="round" stroke-linejoin="round"/>
<path fill-rule="evenodd" clip-rule="evenodd" d="M425.33 177.464L423.544 174.126Z" fill="#FAF6EB"/>
<path d="M425.33 177.464L423.544 174.126" stroke="#1C2628" stroke-width="1.65922" stroke-linecap="round" stroke-linejoin="round"/>
<path fill-rule="evenodd" clip-rule="evenodd" d="M431.864 175.019L430.078 171.681Z" fill="#FAF6EB"/>
<path d="M431.864 175.019L430.078 171.681" stroke="#1C2628" stroke-width="1.65922" stroke-linecap="round" stroke-linejoin="round"/>
<path fill-rule="evenodd" clip-rule="evenodd" d="M438.727 173.139L436.987 169.801Z" fill="#FAF6EB"/>
<path d="M438.727 173.139L436.987 169.801" stroke="#1C2628" stroke-width="1.65922" stroke-linecap="round" stroke-linejoin="round"/>
<path fill-rule="evenodd" clip-rule="evenodd" d="M409.771 173.467C409.771 173.467 412.356 169.942 410.053 167.027C407.749 164.113 402.203 158.613 402.203 158.613C402.203 158.613 401.968 162.421 399.006 163.643C396.045 164.865 388.288 166.04 388.288 166.04L387.536 169.895L394.07 170.553C394.07 170.553 398.63 170.412 402.297 171.305C406.057 172.198 409.771 173.467 409.771 173.467Z" fill="#FAF6EB" stroke="#1C2628" stroke-width="1.65922" stroke-linecap="round" stroke-linejoin="round"/>
<path fill-rule="evenodd" clip-rule="evenodd" d="M453.441 167.075C453.441 167.075 451.748 164.865 447.377 164.63C443.005 164.395 440.326 164.254 440.326 164.254L439.855 166.652C439.855 166.652 442.864 166.464 443.005 167.921C443.099 169.378 443.663 171.071 443.663 171.071C443.663 171.071 446.202 170.647 450.338 169.331C452.783 168.579 453.441 167.075 453.441 167.075Z" fill="#FAF6EB" stroke="#1C2628" stroke-width="1.65922" stroke-linecap="round" stroke-linejoin="round"/>
<path d="M440.091 166.699L425.894 166.464L419.736 157.814" stroke="#1C2628" stroke-width="1.65922" stroke-linecap="round" stroke-linejoin="round"/>
<path fill-rule="evenodd" clip-rule="evenodd" d="M400.322 200.403C393.788 210.321 366.241 249.949 340.199 256.06C334.323 257.423 327.225 257.423 319.609 256.577C324.169 251.923 331.549 249.15 338.13 246.705C350.023 242.287 352.75 244.402 357.451 240.171C363.797 234.483 360.506 229.171 366.617 218.877C368.45 215.774 375.972 204.116 389.369 201.202C391.907 200.638 396.138 200.121 400.322 200.403Z" fill="#1C2628" stroke="#1C2628" stroke-width="1.65922" stroke-linecap="round" stroke-linejoin="round"/>
<path fill-rule="evenodd" clip-rule="evenodd" d="M248.909 234.86L220.846 274.722L241.247 333.435L231.235 334.939C221.128 330.285 213.513 320.837 212.478 311.388C211.914 306.123 213.983 306.17 213.607 299.448C212.949 286.145 204.816 283.654 206.226 275.38C207.543 267.624 215.017 267.953 218.354 257.235C220.329 250.842 218.26 248.868 220.141 243.697C221.833 239.137 226.158 233.496 238.004 229.031C241.153 230.065 245.196 231.804 248.909 234.86Z" fill="#1C2628" stroke="#1C2628" stroke-width="1.65922" stroke-linecap="round" stroke-linejoin="round"/>
<path fill-rule="evenodd" clip-rule="evenodd" d="M297.046 196.548C291.687 199.321 287.268 199.886 283.93 199.745C275.657 199.368 271.99 194.48 263.482 195.984C256.948 197.112 255.679 200.591 250.884 200.403C245.431 200.215 240.871 195.467 237.346 190.061L266.867 181.882L297.046 196.548Z" fill="#1C2628" stroke="#1C2628" stroke-width="1.65922" stroke-linecap="round" stroke-linejoin="round"/>
<path fill-rule="evenodd" clip-rule="evenodd" d="M275.187 171.963C275.187 171.963 260.192 174.784 253.329 176.1C248.299 177.04 242.611 181.224 230.577 184.467C230.201 183.01 230.06 181.459 230.812 180.19C232.128 177.886 235.043 178.638 240.072 176.429C245.384 174.079 244.82 172.104 248.91 170.929C254.269 169.425 256.572 172.527 259.628 170.788C263.388 168.626 261.32 163.173 264.375 157.626C265.08 156.357 265.974 155.229 267.008 154.147L275.187 171.963Z" fill="#1C2628" stroke="#1C2628" stroke-width="1.65922" stroke-linecap="round" stroke-linejoin="round"/>
<path d="M289.853 87.584C289.806 89.4643 289.43 91.3916 288.772 93.1309C288.349 94.1651 287.832 95.2463 287.926 96.3274C289.007 96.7505 290.37 95.7163 290.276 94.5411C290.041 94.4001 289.712 94.5881 289.524 94.8232C287.644 96.8445 286.563 99.5239 286.516 102.25" stroke="#1C2628" stroke-width="1.65922" stroke-linecap="round" stroke-linejoin="round"/>
<path d="M301.136 245.389C302.922 246 304.755 246.423 306.589 246.658C309.55 247.034 312.653 246.987 315.473 248.022" stroke="#1C2628" stroke-width="1.65922" stroke-linecap="round" stroke-linejoin="round"/>
<path fill-rule="evenodd" clip-rule="evenodd" d="M112.5 348.66C112.5 348.66 101.319 366.471 102.689 370.183C104.235 374.47 115.505 387.419 115.505 387.419L147.635 386.58L133.316 381.718L125.582 368.636L134.907 351.577L112.5 348.66Z" fill="#D9A191" stroke="#1C2628" stroke-width="1.52783" stroke-linecap="round" stroke-linejoin="round"/>
<path fill-rule="evenodd" clip-rule="evenodd" d="M153.734 386.227L134.067 386.669L96.4131 386.138L100.081 366.825L116.831 366.383C116.831 366.383 116.257 361.963 120.632 362.14C123.991 362.273 133.891 372.526 143.039 375.355C155.591 379.244 153.734 386.227 153.734 386.227Z" fill="#47584E"/>
<path fill-rule="evenodd" clip-rule="evenodd" d="M153.514 383.708L110.954 383.487C109.717 383.487 108.744 384.371 108.7 385.476V386.183C108.7 387.288 109.672 388.172 110.91 388.172L153.47 388.393C154.707 388.393 155.68 387.509 155.724 386.404V385.697C155.724 384.592 154.752 383.708 153.514 383.708Z" fill="#1C2628" stroke="#1C2628" stroke-width="1.52783" stroke-linecap="round" stroke-linejoin="round"/>
<path fill-rule="evenodd" clip-rule="evenodd" d="M114.534 388.216L94.4248 387.906L95.6623 377.344C95.6623 377.344 105.871 376.769 109.363 380.04C112.898 383.399 114.534 388.216 114.534 388.216Z" fill="#1C2628" stroke="#1C2628" stroke-width="1.52783" stroke-linecap="round" stroke-linejoin="round"/>
<path fill-rule="evenodd" clip-rule="evenodd" d="M145.028 375.974L121.428 361.522C121.428 361.522 117.671 362.096 116.699 363.643C115.726 365.146 117.45 367.576 117.45 367.576C117.45 367.576 130.93 376.592 136.675 378.404C140.697 379.686 145.028 375.974 145.028 375.974Z" fill="#1C2628" stroke="#1C2628" stroke-width="1.52783" stroke-linecap="round" stroke-linejoin="round"/>
<path d="M123.814 370.272L115.594 385.564" stroke="#1C2628" stroke-width="1.52783" stroke-linecap="round" stroke-linejoin="round"/>
<path d="M100.083 366.825L98.0938 380.835" stroke="#1C2628" stroke-width="1.52783" stroke-linecap="round" stroke-linejoin="round"/>
<path fill-rule="evenodd" clip-rule="evenodd" d="M74.0951 95.8191C74.1835 90.8692 66.2283 88.4827 59.5106 92.1509C52.793 95.8191 52.3952 106.514 51.2019 108.768C44.5726 121.408 54.5166 131.44 69.7639 133.341C74.1835 133.871 88.6795 127.993 88.105 122.557C87.5304 117.077 71.3108 119.773 70.1617 114.779" fill="#1C2628"/>
<path d="M74.0951 95.8191C74.1835 90.8692 66.2283 88.4827 59.5106 92.1509C52.793 95.8191 52.3952 106.514 51.2019 108.768C44.5726 121.408 54.5166 131.44 69.7639 133.341C74.1835 133.871 88.6795 127.993 88.105 122.557C87.5304 117.077 71.3108 119.773 70.1617 114.779" stroke="#1C2628" stroke-width="1.52783" stroke-linecap="round" stroke-linejoin="round"/>
<path fill-rule="evenodd" clip-rule="evenodd" d="M48.9035 229.643C48.9035 229.643 44.6607 277.727 40.4622 282.81C38.164 285.594 8.06705 287.185 8.06705 287.185C8.06705 287.185 11.0723 289.439 11.2049 291.251C11.3375 293.063 10.1 293.682 10.1 293.682C10.1 293.682 2.0123 291.339 1.04001 288.864C0.421274 287.273 7.13895 282.058 10.1442 280.29C17.8784 275.783 25.6126 275.606 27.3804 270.744C29.1482 265.883 33.0816 226.637 33.0816 226.637L48.9035 229.643Z" fill="#D9A191" stroke="#1C2628" stroke-width="1.52783" stroke-linecap="round" stroke-linejoin="round"/>
<path fill-rule="evenodd" clip-rule="evenodd" d="M77.5868 352.611C77.5868 352.611 60.3496 388.443 62.3385 394.609L111.929 396.311L91.3324 378.236L99.9952 356.12L77.5868 352.611Z" fill="#D9A191" stroke="#1C2628" stroke-width="1.52783" stroke-linecap="round" stroke-linejoin="round"/>
<path fill-rule="evenodd" clip-rule="evenodd" d="M168.805 292.709C164.562 308.884 142.774 353.212 142.774 353.212L115.948 350.649L109.318 360.372L69.2773 359.311L74.4482 348.174L99.2417 294.654L63.7529 248.425L65.2556 225.267L65.344 223.764L89.7397 221.378L118.201 216.914C118.201 216.87 173.048 276.533 168.805 292.709Z" fill="#47584E" stroke="#1C2628" stroke-width="1.52783" stroke-linecap="round" stroke-linejoin="round"/>
<path fill-rule="evenodd" clip-rule="evenodd" d="M110.91 297.748C110.203 303.979 107.905 303.316 103.22 316.531C99.3308 327.403 100.745 328.331 97.6956 332.839C92.6132 340.352 84.7906 343.799 81.0782 345.478C78.2939 346.716 76.1725 347.644 74.4931 348.174L99.2866 294.654L63.7979 248.426L65.3005 225.267C69.8084 225.842 75.1118 226.947 81.4318 228.626C89.1217 238.968 90.315 246.923 89.7405 252.492C89.2985 256.823 87.7959 259.74 89.4311 263.585C91.7293 269.065 97.0769 268.402 102.69 273.44C109.584 279.76 111.75 290.323 110.91 297.748Z" fill="#1C2628" stroke="#1C2628" stroke-width="1.52783" stroke-linecap="round" stroke-linejoin="round"/>
<path fill-rule="evenodd" clip-rule="evenodd" d="M140.698 345.434C143.349 345.434 145.515 347.6 145.515 350.251C145.515 352.903 143.349 355.069 140.698 355.069H118.158C115.506 355.069 115.904 350.605 115.904 350.605" fill="#47584E"/>
<path d="M140.698 345.434C143.349 345.434 145.515 347.6 145.515 350.251C145.515 352.903 143.349 355.069 140.698 355.069H118.158C115.506 355.069 115.904 350.605 115.904 350.605" stroke="#1C2628" stroke-width="1.52783" stroke-linecap="round" stroke-linejoin="round"/>
<path fill-rule="evenodd" clip-rule="evenodd" d="M59.0242 237.112L59.0684 237.465L58.5381 249.752L111.661 238.438L112.721 226.593C108.921 227.521 102.159 226.593 91.2426 228.582C77.1885 231.145 73.2993 236.847 59.0242 237.112Z" fill="#F3A140" stroke="#1C2628" stroke-width="1.52783" stroke-linecap="round" stroke-linejoin="round"/>
<path fill-rule="evenodd" clip-rule="evenodd" d="M113.252 226.505L117.009 235.653L134.377 228.803L133.272 220.538C126.776 222.925 120.146 224.781 113.252 226.505Z" fill="#F3A140" stroke="#1C2628" stroke-width="1.52783" stroke-linecap="round" stroke-linejoin="round"/>
<path fill-rule="evenodd" clip-rule="evenodd" d="M131.327 205.644L129.294 190.043L128.499 183.989L126.687 170.156L124.566 154.201C124.566 154.201 133.228 138.468 136.896 117.165C138.089 110.315 138.575 101.741 138.708 93.2558C138.752 91.0019 138.752 88.7479 138.708 86.5382C138.62 71.2908 137.559 57.988 137.559 57.988L111.926 59.2697C111.926 59.2697 111.926 80.4834 108.478 98.5151C105.031 116.503 99.5952 131.264 99.5952 131.264L91.2865 138.468L70.5147 143.152C70.5147 143.152 42.9369 148.632 38.6942 161.582C36.6612 167.725 34.9818 175.503 33.6117 183.149C33.3465 184.607 33.1256 186.022 32.9046 187.436C32.1091 192.209 31.4903 196.805 31.0042 200.695C30.7832 202.286 30.6064 203.744 30.4738 205.07C29.9435 209.445 29.6783 212.229 29.6783 212.229L21.458 262.214L49.301 263.894L54.6044 231.189L57.3445 210.904L59.0682 237.244C73.3432 236.979 80.6796 229.51 94.9105 228.803C106.578 228.228 108.876 227.698 112.721 226.77C112.721 226.77 126.819 223.057 133.316 220.627L131.327 205.644Z" fill="#FAF6EB" stroke="#1C2628" stroke-width="1.52783" stroke-linecap="round" stroke-linejoin="round"/>
<path d="M113.163 132.016L107.417 128.303L107.992 135.109L102.688 139.44L109.362 141.031L111.837 147.396L115.373 141.562L122.223 141.164L117.759 135.993L119.483 129.364L113.163 132.016Z" fill="#1C2628"/>
<path d="M138.707 93.2555L137.293 92.9903L136.763 93.4323L133.846 95.863L133.625 91.3993L129.824 89.0127L134.023 87.4217L135.083 83.0906L137.426 86.0517L137.868 86.582L138.663 86.5378C138.752 88.7476 138.752 91.0015 138.707 93.2555Z" fill="#1C2628"/>
<path d="M131.327 205.644C130.797 205.733 130.178 205.644 129.736 205.291L121.074 199.28L114.179 201.888L111.218 203.037C110.467 203.302 109.583 203.169 109.008 202.595C108.39 202.02 108.169 201.181 108.434 200.429L111.483 190.309L104.898 182.088C104.589 181.69 104.412 181.204 104.412 180.762C104.412 180.453 104.456 180.144 104.589 179.878C104.942 179.127 105.65 178.641 106.489 178.641L117.052 178.42L122.842 169.625C123.283 168.962 124.079 168.564 124.875 168.653C125.67 168.741 126.377 169.316 126.642 170.067L126.687 170.2L128.499 184.033L127.88 183.856C127.217 183.679 126.642 183.149 126.421 182.486L125.051 178.641L123.991 175.591L119.969 181.735C119.571 182.309 118.908 182.707 118.201 182.707L110.865 182.84L115.461 188.585C115.903 189.115 116.035 189.867 115.859 190.529L113.737 197.557L116.787 196.407L120.632 194.949C121.295 194.684 122.046 194.772 122.621 195.214L128.631 199.413L128.278 192.076C128.278 191.723 128.322 191.369 128.454 191.06C128.587 190.75 128.808 190.485 129.117 190.264L129.294 190.132L131.327 205.644Z" fill="#1C2628"/>
<path d="M80.4153 210.55L74.0954 213.202L68.35 209.489L68.9245 216.295L63.6211 220.671L69.1013 221.952L70.2946 222.218L72.7695 228.626L76.3493 222.748L83.1554 222.35L78.6917 217.179L79.001 215.986L80.4153 210.55Z" fill="#1C2628"/>
<path d="M67.1999 161.581L63.4433 159.15L63.7968 163.614L60.3496 166.443L64.6807 167.459L66.316 171.658L68.6583 167.813L73.122 167.547L70.2052 164.144L71.31 159.813L67.1999 161.581Z" fill="#1C2628"/>
<path d="M43.9092 186.596L37.4567 194.949L40.683 204.981C40.9482 205.776 40.7272 206.616 40.1526 207.191C39.5781 207.765 38.6942 207.942 37.9429 207.677L30.4297 204.981C30.6065 203.655 30.7832 202.197 30.96 200.606L35.2912 202.152L33.0372 195.17C32.8162 194.507 32.9488 193.755 33.3908 193.225L37.8545 187.435H32.8604C33.0814 186.021 33.3466 184.607 33.5676 183.148H42.1856C42.9811 183.148 43.7325 183.635 44.086 184.342C44.4838 185.049 44.3954 185.933 43.9092 186.596Z" fill="#1C2628"/>
<path fill-rule="evenodd" clip-rule="evenodd" d="M72.7245 123.132L71.8848 141.385C71.8848 141.385 84.5688 143.109 88.2812 141.518C91.9936 139.926 97.7832 136.965 97.7832 136.965L90.4468 119.597L72.7245 123.132Z" fill="#D9A191" stroke="#1C2628" stroke-width="1.52783" stroke-linecap="round" stroke-linejoin="round"/>
<path d="M115.374 237.729C115.374 237.729 151.79 284.355 149.89 293.239C147.99 302.122 112.28 356.04 112.28 356.04L81.7852 355.068" stroke="#1C2628" stroke-width="1.52783" stroke-linecap="round" stroke-linejoin="round"/>
<path fill-rule="evenodd" clip-rule="evenodd" d="M87.972 147.572L82.2266 151.329L87.6626 153.318L87.972 147.572Z" fill="#1C2628" stroke="#1C2628" stroke-width="1.52783" stroke-linecap="round" stroke-linejoin="round"/>
<path fill-rule="evenodd" clip-rule="evenodd" d="M88.2815 141.473L71.6641 136.258L69.6311 142.18C68.8798 144.39 70.0289 146.82 72.2386 147.616L82.2267 151.284L87.9721 147.572L88.2815 141.473Z" fill="#FAF6EB" stroke="#1C2628" stroke-width="1.52783" stroke-linecap="round" stroke-linejoin="round"/>
<path d="M52.6602 172.365C52.6602 172.365 55.0909 176.962 57.2123 191.06C57.9636 195.965 57.3448 222.659 57.3448 222.659" stroke="#1C2628" stroke-width="1.52783" stroke-linecap="round" stroke-linejoin="round"/>
<path fill-rule="evenodd" clip-rule="evenodd" d="M73.1651 127.6C63.9725 124.728 58.669 115.491 61.3208 106.961C62.6466 102.718 61.5859 97.4149 65.4309 95.5587C69.3201 93.7025 78.1592 95.2935 82.7555 96.7077C91.9481 99.5804 97.2515 108.817 94.5998 117.347C93.1413 121.987 91.4619 126.407 87.1308 128.175C83.4626 129.633 77.3636 128.926 73.1651 127.6Z" fill="#D9A190" stroke="#1C2628" stroke-width="1.52783" stroke-linecap="round" stroke-linejoin="round"/>
<path fill-rule="evenodd" clip-rule="evenodd" d="M77.7188 99.8851C80.9008 99.0895 87.5301 95.9959 88.635 97.5427C90.0934 99.5757 85.8507 102.846 85.1877 103.023" fill="#D9A190"/>
<path d="M77.7188 99.8851C80.9008 99.0895 87.5301 95.9959 88.635 97.5427C90.0934 99.5757 85.8507 102.846 85.1877 103.023" stroke="#1C2628" stroke-width="1.52783" stroke-linecap="round" stroke-linejoin="round"/>
<path fill-rule="evenodd" clip-rule="evenodd" d="M84.7905 117.122C82.2714 118.492 79.3545 115.133 79.3545 115.133L85.8954 110.227C85.9396 110.183 89.5194 114.559 84.7905 117.122Z" fill="#1C2628" stroke="#1C2628" stroke-width="1.52783" stroke-linecap="round" stroke-linejoin="round"/>
<path fill-rule="evenodd" clip-rule="evenodd" d="M71.1782 111.729C70.0292 110.978 69.985 109.033 71.0899 107.398C72.1505 105.719 73.9625 104.967 75.1116 105.719C76.2607 106.47 76.3049 108.415 75.2 110.05C74.0951 111.729 72.3273 112.481 71.1782 111.729Z" fill="#FAFCFF" stroke="#1C2628" stroke-width="1.52783" stroke-linecap="round" stroke-linejoin="round"/>
<path fill-rule="evenodd" clip-rule="evenodd" d="M73.0338 131.176L72.415 124.546C72.415 124.546 79.9282 118.933 83.1103 121.099C86.2923 123.309 85.6736 132.943 85.6736 132.943L79.4863 135.374" fill="#D9A190"/>
<path fill-rule="evenodd" clip-rule="evenodd" d="M64.7255 93.0348C66.184 92.2393 62.6926 91.2228 64.4604 91.4438C70.1174 92.0625 70.2499 96.8356 68.4821 100.636C66.8027 104.26 64.1068 107.398 64.1068 107.398C64.1068 107.398 71.6642 118.27 67.0237 122.999C63.9742 126.093 58.5382 125.518 56.7704 121.85C55.3119 118.845 55.2236 115.53 55.7097 112.304C56.1958 108.989 58.0521 105.851 58.4056 102.581" fill="#1C2628"/>
<path d="M64.7255 93.0348C66.184 92.2393 62.6926 91.2228 64.4604 91.4438C70.1174 92.0625 70.2499 96.8356 68.4821 100.636C66.8027 104.26 64.1068 107.398 64.1068 107.398C64.1068 107.398 71.6642 118.27 67.0237 122.999C63.9742 126.093 58.5382 125.518 56.7704 121.85C55.3119 118.845 55.2236 115.53 55.7097 112.304C56.1958 108.989 58.0521 105.851 58.4056 102.581" stroke="#1C2628" stroke-width="1.52783" stroke-linecap="round" stroke-linejoin="round"/>
<path fill-rule="evenodd" clip-rule="evenodd" d="M59.2887 100.371C45.8975 97.7637 43.9087 108.15 49.9193 111.729C42.6271 113.497 41.9641 127.463 54.5156 127.286C52.792 128.833 60.6587 136.346 63.6198 125.297" fill="#1C2628"/>
<path d="M59.2887 100.371C45.8975 97.7637 43.9087 108.15 49.9193 111.729C42.6271 113.497 41.9641 127.463 54.5156 127.286C52.792 128.833 60.6587 136.346 63.6198 125.297" stroke="#1C2628" stroke-width="1.52783" stroke-linecap="round" stroke-linejoin="round"/>
<path fill-rule="evenodd" clip-rule="evenodd" d="M67.7758 122.071C68.0851 121.629 65.0798 122.734 66.8035 126.49C67.9967 129.142 74.4934 129.937 74.3608 125.12" fill="#D9A191"/>
<path d="M67.7758 122.071C68.0851 121.629 65.0798 122.734 66.8035 126.49C67.9967 129.142 74.4934 129.937 74.3608 125.12" stroke="#1C2628" stroke-width="1.52783" stroke-linecap="round" stroke-linejoin="round"/>
<path d="M69.4551 125.342L69.8528 125.386H70.5158L71.2671 125.121" stroke="#1C2628" stroke-width="1.52783" stroke-linecap="round" stroke-linejoin="round"/>
<path fill-rule="evenodd" clip-rule="evenodd" d="M74.7574 106.161C73.9619 105.719 72.9454 106.029 72.5477 106.868C72.1499 107.664 72.4151 108.68 73.2548 109.078C74.0503 109.52 75.0668 109.211 75.4645 108.371C75.8623 107.575 75.5529 106.559 74.7574 106.161Z" fill="#1C2628" stroke="#1C2628" stroke-width="1.52783" stroke-linecap="round" stroke-linejoin="round"/>
<path fill-rule="evenodd" clip-rule="evenodd" d="M79.8842 95.4208C79.1329 95.023 78.249 95.1998 77.9396 95.8628C77.5861 96.4815 77.9396 97.3212 78.6909 97.719C79.4423 98.1167 80.3262 97.9399 80.6355 97.277C80.9891 96.6583 80.6355 95.8186 79.8842 95.4208Z" fill="#1C2628" stroke="#1C2628" stroke-width="1.52783" stroke-linecap="round" stroke-linejoin="round"/>
<path d="M69.6312 95.6861C69.9405 93.9183 68.2169 92.2831 67.1562 91.0898" stroke="#FAF6EB" stroke-width="1.52783" stroke-linecap="round" stroke-linejoin="round"/>
<path d="M55.488 120.171C54.3389 117.828 52.6595 109.299 55.5763 107.884C58.2281 106.559 59.3771 113.188 58.1839 112.437C53.6318 109.52 57.1674 99.4873 61.1449 97.366" stroke="#FAF6EB" stroke-width="1.52783" stroke-linecap="round" stroke-linejoin="round"/>
<path fill-rule="evenodd" clip-rule="evenodd" d="M82.4922 128.965L92.2593 123.529L94.2039 130.379C94.2039 130.379 90.7567 130.644 87.5746 130.07C84.4368 129.495 82.4922 128.965 82.4922 128.965Z" fill="#1C2628" stroke="#1C2628" stroke-width="1.52783" stroke-linecap="round" stroke-linejoin="round"/>
<path d="M120.014 344.992C120.014 344.992 134.996 345.611 138.178 345.213" stroke="#1C2628" stroke-width="1.52783" stroke-linecap="round" stroke-linejoin="round"/>
<path d="M23.2256 250.988L47.312 254.303" stroke="#1C2628" stroke-width="1.52783" stroke-linecap="round" stroke-linejoin="round"/>
<path fill-rule="evenodd" clip-rule="evenodd" d="M117.981 397.409L98.3145 397.851L60.6602 397.321L64.3284 378.007L81.0784 377.565C81.0784 377.565 80.5038 373.146 84.8792 373.323C88.238 373.455 98.1377 383.708 107.286 386.537C119.838 390.47 117.981 397.409 117.981 397.409Z" fill="#47584E"/>
<path fill-rule="evenodd" clip-rule="evenodd" d="M117.76 394.89L75.2002 394.669C73.9628 394.669 72.9905 395.553 72.9463 396.658V397.365C72.9463 398.47 73.9186 399.354 75.1561 399.354L117.716 399.575C118.954 399.575 119.926 398.691 119.97 397.586V396.879C119.97 395.818 118.998 394.89 117.76 394.89Z" fill="#1C2628" stroke="#1C2628" stroke-width="1.52783" stroke-linecap="round" stroke-linejoin="round"/>
<path fill-rule="evenodd" clip-rule="evenodd" d="M78.7797 399.398L58.6709 399.089L59.9084 388.526C59.9084 388.526 70.1175 387.952 73.6089 391.222C77.1445 394.625 78.7797 399.398 78.7797 399.398Z" fill="#1C2628" stroke="#1C2628" stroke-width="1.52783" stroke-linecap="round" stroke-linejoin="round"/>
<path fill-rule="evenodd" clip-rule="evenodd" d="M109.274 387.199L85.6737 372.748C85.6737 372.748 81.9171 373.322 80.9448 374.869C79.9725 376.372 81.6961 378.802 81.6961 378.802C81.6961 378.802 95.1757 387.818 100.921 389.63C104.943 390.868 109.274 387.199 109.274 387.199Z" fill="#1C2628" stroke="#1C2628" stroke-width="1.52783" stroke-linecap="round" stroke-linejoin="round"/>
<path d="M88.0599 381.499L79.8838 396.79" stroke="#1C2628" stroke-width="1.52783" stroke-linecap="round" stroke-linejoin="round"/>
<path d="M64.3277 378.007L62.3389 392.017" stroke="#1C2628" stroke-width="1.52783" stroke-linecap="round" stroke-linejoin="round"/>
<path fill-rule="evenodd" clip-rule="evenodd" d="M127.439 22.7202C127.439 22.7202 128.632 8.40098 125.185 4.64438C122.312 1.55071 109.407 -1.63135 105.562 4.4676C101.717 10.5665 110.424 29.2611 110.424 29.2611L113.65 59.1813L137.56 57.9881C133.759 39.9122 127.439 22.7202 127.439 22.7202Z" fill="#D9A191" stroke="#1C2628" stroke-width="1.52783" stroke-linecap="round" stroke-linejoin="round"/>
<path d="M111.573 17.9469C114.976 12.0248 111.352 8.31235 111.352 8.31235C111.352 8.31235 118.776 8.7985 119.97 5.0861C121.561 0.00364456 110.468 1.24111 110.468 1.24111" fill="#D9A190"/>
<path d="M111.573 17.9469C114.976 12.0248 111.352 8.31235 111.352 8.31235C111.352 8.31235 118.776 8.7985 119.97 5.0861C121.561 0.00364456 110.468 1.24111 110.468 1.24111" stroke="#1C2628" stroke-width="1.52783" stroke-linecap="round" stroke-linejoin="round"/>
<path d="M118.247 13.8812C118.733 12.025 117.938 9.50584 117.23 7.78223Z" fill="#CC8D7B"/>
<path d="M118.247 13.8812C118.733 12.025 117.938 9.50584 117.23 7.78223" stroke="#1C2628" stroke-width="1.52783" stroke-linecap="round" stroke-linejoin="round"/>
<path d="M122.533 11.6714C122.975 9.24065 122.445 5.9702 120.5 4.24658Z" fill="#CC8D7B"/>
<path d="M122.533 11.6714C122.975 9.24065 122.445 5.9702 120.5 4.24658" stroke="#1C2628" stroke-width="1.52783" stroke-linecap="round" stroke-linejoin="round"/>
<path d="M93.7178 254.259C96.1485 259.076 90.3147 261.374 102.424 267.871" stroke="#1C2628" stroke-width="1.52783" stroke-linecap="round" stroke-linejoin="round"/>
<path d="M33.04 405.934H94.6768" stroke="#1C2628" stroke-width="2.13" stroke-linecap="round" stroke-linejoin="round"/>
<path d="M80.1484 402.882H104.863" stroke="#1C2628" stroke-width="2.13" stroke-linecap="round" stroke-linejoin="round"/>
<path d="M95.2702 399.029H39.8174V400.261H95.2702V399.029Z" fill="#1C2628" stroke="#1C2628" stroke-linecap="round" stroke-linejoin="round"/>
<path fill-rule="evenodd" clip-rule="evenodd" d="M92.6249 153.187L97.423 148.437L90.7246 147.724L92.6249 153.187Z" fill="#1C2628" stroke="#1C2628" stroke-width="1.64229" stroke-linecap="round" stroke-linejoin="round"/>
<path fill-rule="evenodd" clip-rule="evenodd" d="M97.5659 132.854L88.4922 141.358L90.6775 147.676L97.4234 148.437L101.224 144.731C102.982 143.021 103.219 140.218 101.699 138.27L97.5659 132.854Z" fill="#FAF6EB" stroke="#1C2628" stroke-width="1.64229" stroke-linecap="round" stroke-linejoin="round"/>
</svg>
