<svg width="441" height="434" viewBox="0 0 441 434" fill="none" xmlns="http://www.w3.org/2000/svg">
<path d="M320.888 234.897C321.737 248.584 304.841 260.524 293.75 274.683C282.423 288.748 276.948 304.795 265.951 310.93C254.907 317.349 238.672 313.668 219.888 316.075C201.151 318.482 180.007 327.166 164.621 320.322C149.329 313.668 139.654 291.58 137.624 271.191C135.736 250.991 141.494 232.537 136.869 210.119C132.008 187.606 116.811 161.271 120.634 146.545C124.362 131.631 147.3 128.658 166.414 116.481C185.765 104.399 186.709 88.2105 204.36 87.5026C218.047 86.7475 216.867 102.747 238.011 112.8C255.474 121.106 263.686 142.817 256.276 160.232C252.028 170.191 248.913 179.819 253.208 187.984C263.686 207.429 320.18 221.163 320.888 234.897Z" fill="#0B3F7E"/>
<path fill-rule="evenodd" clip-rule="evenodd" d="M161.459 120.964C164.998 119.407 164.054 113.035 159.287 109.496C154.521 105.956 146.828 109.165 144.893 109.071C133.849 108.504 130.026 118.793 133.66 130.12C134.698 133.424 143.618 141.684 147.205 139.512C150.887 137.294 143.713 126.769 146.828 124.362" fill="#1C2628"/>
<path d="M161.459 120.964C164.998 119.407 164.054 113.035 159.287 109.496C154.521 105.956 146.828 109.165 144.893 109.071C133.849 108.504 130.026 118.793 133.66 130.12C134.698 133.424 143.618 141.684 147.205 139.512C150.887 137.294 143.713 126.769 146.828 124.362" stroke="#1C2628" stroke-width="1.05074" stroke-linecap="round" stroke-linejoin="round"/>
<path fill-rule="evenodd" clip-rule="evenodd" d="M141.118 130.733C141.118 130.733 140.504 142.816 139.23 145.364C135.501 152.821 118.086 168.585 118.086 168.585C118.086 168.585 138.758 167.499 145.413 166.744C152.067 165.989 163.3 156.219 163.3 156.219L157.778 135.264L141.118 130.733Z" fill="#CC8D7B" stroke="#1C2628" stroke-width="1.05074" stroke-linecap="round" stroke-linejoin="round"/>
<path fill-rule="evenodd" clip-rule="evenodd" d="M138.287 130.214C137.295 122.805 142.062 116.056 148.953 115.159C152.351 114.687 155.749 112.233 158.345 114.356C160.941 116.48 162.687 123.229 163.159 126.911C164.15 134.321 159.383 141.07 152.493 141.966C148.764 142.438 145.083 142.721 142.44 140.22C140.174 138.096 138.711 133.613 138.287 130.214Z" fill="#CC8D7B" stroke="#1C2628" stroke-width="1.05074" stroke-linecap="round" stroke-linejoin="round"/>
<path fill-rule="evenodd" clip-rule="evenodd" d="M159.76 124.835C161.364 126.817 165.707 130.451 164.951 131.726C164.007 133.425 160.326 131.49 159.949 131.112" fill="#CC8D7B"/>
<path d="M159.76 124.835C161.364 126.817 165.707 130.451 164.951 131.726C164.007 133.425 160.326 131.49 159.949 131.112" stroke="#1C2628" stroke-width="1.05074" stroke-linecap="round" stroke-linejoin="round"/>
<path fill-rule="evenodd" clip-rule="evenodd" d="M149.329 124.079C149.471 123.04 150.839 122.379 152.35 122.568C153.86 122.804 154.993 123.795 154.851 124.834C154.71 125.872 153.341 126.533 151.831 126.344C150.273 126.155 149.14 125.117 149.329 124.079Z" fill="#FAFCFF" stroke="#1C2628" stroke-width="1.05074" stroke-linecap="round" stroke-linejoin="round"/>
<path fill-rule="evenodd" clip-rule="evenodd" d="M159.618 124.316C159.76 123.325 160.798 122.711 162.025 122.9C163.205 123.089 164.102 124.032 163.961 125.024C163.819 126.015 162.781 126.628 161.554 126.439C160.374 126.251 159.524 125.26 159.618 124.316Z" fill="#FAFCFF" stroke="#1C2628" stroke-width="1.05074" stroke-linecap="round" stroke-linejoin="round"/>
<path fill-rule="evenodd" clip-rule="evenodd" d="M153.436 112.044C150.888 101.755 142.912 103.785 142.392 109.165C138.758 104.587 128.753 108.693 132.953 117.471C131.301 116.764 128.564 124.74 137.342 123.229" fill="#1C2628"/>
<path d="M153.436 112.044C150.888 101.755 142.912 103.785 142.392 109.165C138.758 104.587 128.753 108.693 132.953 117.471C131.301 116.764 128.564 124.74 137.342 123.229" stroke="#1C2628" stroke-width="1.05074" stroke-linecap="round" stroke-linejoin="round"/>
<path fill-rule="evenodd" clip-rule="evenodd" d="M140.929 125.07C141.307 125.117 139.561 123.371 137.484 125.825C136.021 127.524 137.578 132.385 140.929 130.686" fill="#CC8D7B"/>
<path d="M140.929 125.07C141.307 125.117 139.561 123.371 137.484 125.825C136.021 127.524 137.578 132.385 140.929 130.686" stroke="#1C2628" stroke-width="1.05074" stroke-linecap="round" stroke-linejoin="round"/>
<path d="M139.182 127.336L139.276 127.619L139.465 128.091L139.89 128.516" stroke="#1C2628" stroke-width="1.05074" stroke-linecap="round" stroke-linejoin="round"/>
<path fill-rule="evenodd" clip-rule="evenodd" d="M154.379 124.787C154.427 124.079 153.86 123.465 153.152 123.465C152.444 123.418 151.831 123.985 151.831 124.693C151.784 125.4 152.35 126.014 153.058 126.014C153.766 126.061 154.379 125.495 154.379 124.787Z" fill="#1C2628" stroke="#1C2628" stroke-width="1.05074" stroke-linecap="round" stroke-linejoin="round"/>
<path fill-rule="evenodd" clip-rule="evenodd" d="M163.63 124.928C163.678 124.268 163.253 123.701 162.686 123.701C162.12 123.654 161.648 124.173 161.648 124.834C161.601 125.495 162.026 126.061 162.592 126.061C163.111 126.108 163.583 125.589 163.63 124.928Z" fill="#1C2628" stroke="#1C2628" stroke-width="1.05074" stroke-linecap="round" stroke-linejoin="round"/>
<path d="M160.09 117.755C161.459 117.377 162.025 115.631 162.497 114.545" stroke="#FAF6EB" stroke-width="1.05074" stroke-linecap="round" stroke-linejoin="round"/>
<path fill-rule="evenodd" clip-rule="evenodd" d="M162.685 112.705C162.685 112.705 154.898 112.705 153.057 112.847C149.046 113.224 146.45 114.64 143.288 117C140.22 119.313 137.624 122.381 135.123 125.307C134.84 125.637 133.471 128.422 133.943 128.186C134.462 127.95 132.574 129.224 131.725 129.46C129.931 129.885 127.477 129.224 126.25 127.808C121.861 122.664 122.521 119.266 124.787 113.602C126.533 109.213 129.412 106.806 132.338 105.531C137.577 103.266 143.005 104.588 143.005 104.588C143.005 104.588 152.538 103.644 155.936 104.871C158.06 105.673 159.571 106.995 160.609 108.363C162.214 110.487 162.685 112.705 162.685 112.705Z" fill="#FAF6EB" stroke="#1C2628" stroke-width="1.05074" stroke-linecap="round" stroke-linejoin="round"/>
<path fill-rule="evenodd" clip-rule="evenodd" d="M152.606 135.695C151.237 133.901 153.456 131.305 153.456 131.305L154.872 134.515L158.034 135.695C158.081 135.742 155.155 138.998 152.606 135.695Z" fill="#1C2628"/>
<path fill-rule="evenodd" clip-rule="evenodd" d="M105.956 178.969C105.956 178.969 61.119 152.492 69.2367 141.306C77.4017 130.12 115.064 108.033 115.064 108.033L111.713 93.7793L124.598 82.5938C124.598 82.5938 126.25 83.5377 125.07 86.7942C123.89 90.0508 119.265 93.5433 119.265 93.5433C119.265 93.5433 130.498 108.127 125.872 113.602C116.669 124.646 93.2125 142.769 93.2125 142.769L119.973 157.353L105.956 178.969Z" fill="#CC8D7B" stroke="#1C2628" stroke-width="1.05074" stroke-linecap="round" stroke-linejoin="round"/>
<path fill-rule="evenodd" clip-rule="evenodd" d="M150.367 259.722L136.822 285.68L118.84 320.133C118.84 320.133 97.5074 364.97 91.7022 376.958C89.5784 381.347 86.1802 384.745 82.7821 387.246C76.8826 391.589 70.8414 393.382 70.8414 393.382C70.8414 393.382 56.1162 402.161 45.8273 404.237C35.5385 406.314 29.5918 401.641 29.5918 401.641L58.5232 375.117L84.0092 312.11L104.256 263.922L150.367 259.722Z" fill="#CC8D7B" stroke="#1C2628" stroke-width="1.05074" stroke-linecap="round" stroke-linejoin="round"/>
<path fill-rule="evenodd" clip-rule="evenodd" d="M136.775 285.679L118.793 320.133C118.793 320.133 97.4604 364.969 91.6552 376.957C89.5314 381.346 86.1333 384.745 82.7351 387.246C79.9977 386.727 77.9211 385.689 76.93 384.037C73.0599 377.382 86.0389 358.598 93.4015 349.914C96.6109 346.138 99.537 343.353 100.67 338.162C102.51 329.855 97.602 324.711 100.67 320.841C103.832 316.829 110.864 320.086 113.838 315.791C115.537 313.289 114.215 310.646 113.838 306.54C112.941 296.393 118.699 284.075 125.589 282.234C129.082 281.29 133.188 282.942 136.775 285.679Z" fill="#1C2628" stroke="#1C2628" stroke-width="1.05074" stroke-linecap="round" stroke-linejoin="round"/>
<path fill-rule="evenodd" clip-rule="evenodd" d="M213.987 306.351C213.374 320.51 170.283 383.895 170.283 383.895L173.068 385.594L199.734 401.735L134.98 398.054L173.54 309.419L160.136 268.075L191.144 248.583C191.144 248.583 200.111 265.291 206.813 281.384C210.919 291.249 214.223 300.924 213.987 306.351Z" fill="#CC8D7B" stroke="#1C2628" stroke-width="1.05074" stroke-linecap="round" stroke-linejoin="round"/>
<path fill-rule="evenodd" clip-rule="evenodd" d="M213.989 306.352C213.376 320.511 170.285 383.895 170.285 383.895L173.07 385.594C168.775 384.886 165.66 383.376 164.716 381.3C162.828 377.005 171.276 372.946 175.618 357.796C178.781 346.752 175.713 343.92 179.819 338.492C185.577 330.847 193.978 333.301 198.698 325.089C201.057 320.935 198.839 320.416 201.718 312.912C205.069 304.181 209.553 300.971 207.995 297.384C206.957 294.977 204.455 295.402 201.718 292.759C197.99 289.172 197.518 283.414 197.895 278.647C200.869 279.544 203.795 280.441 206.768 281.338C210.921 291.249 214.225 300.924 213.989 306.352Z" fill="#1C2628" stroke="#1C2628" stroke-width="1.05074" stroke-linecap="round" stroke-linejoin="round"/>
<path d="M194.024 286.482L186.709 287.851L186.662 287.898L167.311 291.532L163.583 283.934V283.886L159.241 274.966L159.146 274.73L155.984 268.312L152.586 261.279L167.311 291.532L212.62 282.942L194.072 286.482H194.024Z" fill="#FB564C"/>
<path d="M143.43 278.034L134.321 294.694L121.389 291.249L115.537 289.691L134.321 294.694L144.327 276.429L143.43 278.034Z" fill="#FB564C"/>
<path d="M183.452 219.321L114.451 222.389L100.48 259.863L105.578 246.223L105.672 245.987L114.451 222.389L183.452 219.321L190.201 234.047L195.676 246.034L195.77 246.223L197.516 250.046L197.563 250.093L205.634 267.698L208.56 274.116L208.607 274.163L212.619 282.942L183.452 219.321Z" fill="#FB564C"/>
<path d="M92.3164 283.509L110.487 288.37L92.3164 283.509Z" fill="#F3A140" stroke="#1C2628" stroke-width="1.05074" stroke-linecap="round" stroke-linejoin="round"/>
<path d="M100.48 259.864L99.6309 262.082L100.48 259.864Z" fill="#F3A140" stroke="#1C2628" stroke-width="1.05074" stroke-linecap="round" stroke-linejoin="round"/>
<path d="M91.7969 283.367L92.316 283.509L91.7969 283.367Z" fill="#F3A140" stroke="#1C2628" stroke-width="1.05074" stroke-linecap="round" stroke-linejoin="round"/>
<path d="M99.6315 262.081L99.5371 262.317L99.6315 262.081Z" fill="#F3A140" stroke="#1C2628" stroke-width="1.05074" stroke-linecap="round" stroke-linejoin="round"/>
<path d="M91.7031 283.367L99.5377 262.317L91.7031 283.367H91.7975H91.7031Z" fill="#F3A140"/>
<path d="M91.7031 283.367L99.5377 262.317L91.7031 283.367ZM91.7031 283.367H91.7975H91.7031Z" stroke="#1C2628" stroke-width="1.05074" stroke-linecap="round" stroke-linejoin="round"/>
<path d="M110.486 288.37L115.536 289.691L110.486 288.37Z" fill="#F3A140" stroke="#1C2628" stroke-width="1.05074" stroke-linecap="round" stroke-linejoin="round"/>
<path d="M144.326 276.429L152.586 261.279L144.326 276.429Z" fill="#F3A140" stroke="#1C2628" stroke-width="1.05074" stroke-linecap="round" stroke-linejoin="round"/>
<path d="M178.213 230.601C175.995 229.516 172.124 229.374 165.942 230.649H165.895H165.942C168.018 230.271 174.673 228.95 178.213 230.601Z" fill="#F3A140" stroke="#1C2628" stroke-width="1.05074" stroke-linecap="round" stroke-linejoin="round"/>
<path d="M160.186 222.011C160.941 223.002 161.129 224.088 160.893 225.268C161.271 224.04 161.177 222.813 160.186 222.011Z" fill="#F3A140" stroke="#1C2628" stroke-width="1.05074" stroke-linecap="round" stroke-linejoin="round"/>
<path d="M150.369 221.633C149.425 221.822 148.528 222.058 147.584 222.294C151.784 221.445 156.032 221.303 160.185 222.058C158.439 220.595 151.36 221.397 150.369 221.633Z" fill="#F3A140" stroke="#1C2628" stroke-width="1.05074" stroke-linecap="round" stroke-linejoin="round"/>
<path d="M194.072 286.482C195.488 285.585 196.998 284.499 198.603 283.272C197.14 284.405 195.63 285.49 194.072 286.482Z" fill="#F3A140" stroke="#1C2628" stroke-width="1.05074" stroke-linecap="round" stroke-linejoin="round"/>
<path d="M147.583 222.295C138.049 224.183 128.61 229.421 119.926 235.462C128.563 229.657 137.813 224.796 147.583 222.295Z" fill="#F3A140" stroke="#1C2628" stroke-width="1.05074" stroke-linecap="round" stroke-linejoin="round"/>
<path d="M110.109 254.294C119.69 248.064 130.404 242.353 141.448 237.964C130.451 242.259 119.785 247.734 110.109 254.294Z" fill="#F3A140" stroke="#1C2628" stroke-width="1.05074" stroke-linecap="round" stroke-linejoin="round"/>
<path d="M158.155 230.224C157.636 230.884 157.117 231.498 156.551 232.112C158.58 229.988 160.562 227.533 160.94 225.268C160.374 227.392 158.58 229.657 158.155 230.224Z" fill="#F3A140" stroke="#1C2628" stroke-width="1.05074" stroke-linecap="round" stroke-linejoin="round"/>
<path d="M156.55 232.112C156.22 232.489 155.842 232.82 155.512 233.15H155.559C155.889 232.82 156.22 232.442 156.55 232.112Z" fill="#F3A140" stroke="#1C2628" stroke-width="1.05074" stroke-linecap="round" stroke-linejoin="round"/>
<path d="M155.372 233.292C155.419 233.245 155.466 233.198 155.514 233.15H155.466C155.419 233.198 155.372 233.245 155.324 233.292C155.324 233.34 155.372 233.292 155.372 233.292Z" fill="#F3A140" stroke="#1C2628" stroke-width="1.05074" stroke-linecap="round" stroke-linejoin="round"/>
<path d="M155.465 233.15C150.792 234.472 146.073 236.124 141.447 237.964C146.025 236.171 150.651 234.661 155.276 233.292C155.37 233.292 155.417 233.198 155.465 233.15Z" fill="#F3A140" stroke="#1C2628" stroke-width="1.05074" stroke-linecap="round" stroke-linejoin="round"/>
<path d="M152.02 236.36C153.152 235.369 154.332 234.33 155.37 233.292H155.323C154.002 234.566 152.775 235.652 152.02 236.36Z" fill="#F3A140" stroke="#1C2628" stroke-width="1.05074" stroke-linecap="round" stroke-linejoin="round"/>
<path d="M165.896 230.649C162.451 231.31 159.005 232.159 155.513 233.15C155.465 233.198 155.418 233.245 155.371 233.292C158.864 232.301 162.403 231.404 165.896 230.649Z" fill="#F3A140" stroke="#1C2628" stroke-width="1.05074" stroke-linecap="round" stroke-linejoin="round"/>
<path d="M151.973 236.406C144.516 242.447 137.247 248.772 129.885 255.002C137.389 248.866 144.752 242.636 151.973 236.406Z" fill="#F3A140" stroke="#1C2628" stroke-width="1.05074" stroke-linecap="round" stroke-linejoin="round"/>
<path d="M129.883 255.002C120.255 262.884 110.439 270.624 100.527 277.892C110.816 271.001 120.397 263.072 129.883 255.002Z" fill="#F3A140" stroke="#1C2628" stroke-width="1.05074" stroke-linecap="round" stroke-linejoin="round"/>
<path d="M177.742 239.758C176.326 240.419 174.91 241.127 173.447 241.834C174.863 241.127 176.279 240.466 177.742 239.758Z" fill="#F3A140" stroke="#1C2628" stroke-width="1.05074" stroke-linecap="round" stroke-linejoin="round"/>
<path d="M142.675 259.485C141.353 260.382 140.079 261.279 138.805 262.223C140.079 261.326 141.4 260.382 142.675 259.485Z" fill="#F3A140" stroke="#1C2628" stroke-width="1.05074" stroke-linecap="round" stroke-linejoin="round"/>
<path d="M129.885 255.002C137.248 248.725 144.516 242.401 151.973 236.407C152.728 235.651 153.955 234.613 155.277 233.339C150.651 234.66 146.026 236.218 141.448 238.011C130.404 242.401 119.691 248.111 110.11 254.341C106.428 256.843 102.889 259.533 99.5377 262.365L91.7031 283.367L91.7975 283.414C94.7709 281.668 97.6499 279.827 100.529 277.939C110.393 270.624 120.257 262.931 129.885 255.002Z" fill="#F3A140" stroke="#1C2628" stroke-width="1.05074" stroke-linecap="round" stroke-linejoin="round"/>
<path d="M176.183 244.996C174.626 247.403 173.021 249.763 171.322 252.029C173.824 248.819 176.419 245.185 178.213 241.834C177.411 243.25 176.608 244.383 176.183 244.996Z" fill="#F3A140" stroke="#1C2628" stroke-width="1.05074" stroke-linecap="round" stroke-linejoin="round"/>
<path d="M150.605 254.341C147.915 255.993 145.272 257.739 142.676 259.532C145.272 257.692 147.915 255.993 150.605 254.341Z" fill="#F3A140" stroke="#1C2628" stroke-width="1.05074" stroke-linecap="round" stroke-linejoin="round"/>
<path d="M154.662 251.887C153.294 252.69 151.972 253.492 150.604 254.341C151.972 253.492 153.294 252.69 154.662 251.887Z" fill="#F3A140" stroke="#1C2628" stroke-width="1.05074" stroke-linecap="round" stroke-linejoin="round"/>
<path d="M171.324 242.873C169.908 243.581 168.492 244.288 167.076 244.996C168.492 244.288 169.908 243.581 171.324 242.873Z" fill="#F3A140" stroke="#1C2628" stroke-width="1.05074" stroke-linecap="round" stroke-linejoin="round"/>
<path d="M158.768 249.527C157.399 250.282 156.031 251.085 154.662 251.887C156.031 251.085 157.399 250.282 158.768 249.527Z" fill="#F3A140" stroke="#1C2628" stroke-width="1.05074" stroke-linecap="round" stroke-linejoin="round"/>
<path d="M129.413 269.633C127.808 271.002 126.298 272.37 124.74 273.786C126.251 272.37 127.808 271.002 129.413 269.633Z" fill="#F3A140" stroke="#1C2628" stroke-width="1.05074" stroke-linecap="round" stroke-linejoin="round"/>
<path d="M115.443 282.848C115.396 282.895 115.301 282.99 115.254 283.037C115.301 282.943 115.349 282.895 115.443 282.848Z" fill="#F3A140" stroke="#1C2628" stroke-width="1.05074" stroke-linecap="round" stroke-linejoin="round"/>
<path d="M122.946 275.438C122.805 275.579 122.663 275.721 122.521 275.863C122.663 275.674 122.805 275.532 122.946 275.438Z" fill="#F3A140" stroke="#1C2628" stroke-width="1.05074" stroke-linecap="round" stroke-linejoin="round"/>
<path d="M115.254 283.037C113.696 284.688 112.186 286.388 110.676 288.134C112.186 286.388 113.696 284.688 115.254 283.037Z" fill="#F3A140" stroke="#1C2628" stroke-width="1.05074" stroke-linecap="round" stroke-linejoin="round"/>
<path d="M110.486 288.37C110.534 288.275 110.628 288.228 110.675 288.134C110.628 288.181 110.534 288.275 110.486 288.37Z" fill="#F3A140" stroke="#1C2628" stroke-width="1.05074" stroke-linecap="round" stroke-linejoin="round"/>
<path d="M135.029 265.102C133.755 266.093 132.528 267.084 131.301 268.075C132.528 267.037 133.755 266.045 135.029 265.102Z" fill="#F3A140" stroke="#1C2628" stroke-width="1.05074" stroke-linecap="round" stroke-linejoin="round"/>
<path d="M124.741 273.786C124.127 274.305 123.561 274.871 122.947 275.438C123.514 274.871 124.127 274.305 124.741 273.786Z" fill="#F3A140" stroke="#1C2628" stroke-width="1.05074" stroke-linecap="round" stroke-linejoin="round"/>
<path d="M138.803 262.223C137.529 263.167 136.255 264.111 134.98 265.102C136.255 264.111 137.529 263.167 138.803 262.223Z" fill="#F3A140" stroke="#1C2628" stroke-width="1.05074" stroke-linecap="round" stroke-linejoin="round"/>
<path d="M105.625 257.314C103.549 258.777 101.519 260.382 99.6315 262.081L99.5371 262.364C102.888 259.532 106.428 256.842 110.109 254.341C108.599 255.285 107.089 256.276 105.625 257.314Z" fill="#F3A140" stroke="#1C2628" stroke-width="1.05074" stroke-linecap="round" stroke-linejoin="round"/>
<path d="M147.583 222.295C148.527 222.059 149.423 221.823 150.367 221.634C151.358 221.445 158.438 220.596 160.184 222.059C161.175 222.861 161.222 224.041 160.892 225.315C160.467 227.581 158.532 230.035 156.503 232.159C156.172 232.489 155.842 232.867 155.512 233.197C158.957 232.206 162.449 231.357 165.895 230.696H165.942C172.125 229.421 175.995 229.563 178.213 230.649C178.685 230.885 179.157 231.168 179.487 231.498C181.422 233.433 180.998 236.218 179.865 238.814C183.31 237.209 186.756 235.651 190.201 234.094L183.452 219.369L114.451 222.436L105.625 246.035C110.156 242.4 114.923 238.814 119.878 235.51C128.61 229.421 138.049 224.135 147.583 222.295Z" fill="#F3A140" stroke="#1C2628" stroke-width="1.05074" stroke-linecap="round" stroke-linejoin="round"/>
<path d="M178.261 241.881C176.467 245.232 173.871 248.819 171.37 252.075C169.907 254.01 168.397 255.945 166.792 257.739C163.488 261.467 159.901 265.007 156.031 268.311L159.146 274.73C161.223 272.7 163.347 270.718 165.565 268.783C166.886 267.603 168.255 266.423 169.624 265.243C177.694 257.975 186.426 250.943 195.771 245.987L190.201 234.046C186.756 235.604 183.311 237.161 179.865 238.766C179.393 239.852 178.827 240.937 178.261 241.881Z" fill="#F3A140" stroke="#1C2628" stroke-width="1.05074" stroke-linecap="round" stroke-linejoin="round"/>
<path d="M195.77 246.223L195.676 246.035C186.378 250.943 177.6 257.975 169.529 265.291C177.6 258.306 186.284 251.368 195.77 246.223Z" fill="#F3A140" stroke="#1C2628" stroke-width="1.05074" stroke-linecap="round" stroke-linejoin="round"/>
<path d="M195.865 276.571C199.075 273.55 202.284 270.529 205.588 267.65C202.284 270.529 199.075 273.597 195.865 276.571Z" fill="#F3A140" stroke="#1C2628" stroke-width="1.05074" stroke-linecap="round" stroke-linejoin="round"/>
<path d="M197.564 250.093L197.517 250.046C196.856 250.848 196.243 251.651 195.582 252.453C196.243 251.651 196.904 250.848 197.564 250.093Z" fill="#F3A140" stroke="#1C2628" stroke-width="1.05074" stroke-linecap="round" stroke-linejoin="round"/>
<path d="M159.24 274.966L163.582 283.886C167.122 281.385 170.52 278.647 173.777 275.768C181.092 269.161 187.7 261.704 194.26 254.011C194.732 253.492 195.157 252.925 195.629 252.406C196.289 251.604 196.903 250.802 197.564 249.999L195.817 246.176C186.331 251.321 177.647 258.306 169.623 265.244C165.989 268.5 162.544 271.804 159.24 274.966Z" fill="#F3A140" stroke="#1C2628" stroke-width="1.05074" stroke-linecap="round" stroke-linejoin="round"/>
<path d="M173.778 275.768C170.569 278.647 167.171 281.384 163.631 283.933L167.312 291.532L186.663 287.85C186.38 287.52 186.285 287.142 186.474 286.812C186.568 286.623 186.71 286.434 186.804 286.246C187.512 284.499 189.778 282.187 191.901 280.252C193.223 279.024 194.592 277.797 195.866 276.57C199.075 273.55 202.285 270.529 205.588 267.65L197.518 250.046C196.857 250.801 196.196 251.603 195.583 252.359C188.834 260.712 181.707 268.736 173.778 275.768Z" fill="#F3A140" stroke="#1C2628" stroke-width="1.05074" stroke-linecap="round" stroke-linejoin="round"/>
<path d="M105.626 257.314C107.09 256.323 108.6 255.285 110.11 254.341C119.785 247.733 130.452 242.258 141.448 238.011C146.074 236.17 150.793 234.518 155.466 233.197C155.796 232.866 156.174 232.489 156.504 232.158C157.07 231.545 157.59 230.931 158.109 230.271C158.534 229.704 160.327 227.439 160.893 225.315C161.082 224.182 160.941 223.049 160.185 222.058C156.032 221.303 151.784 221.492 147.584 222.294C137.814 224.843 128.564 229.704 119.927 235.462C114.83 238.955 110.016 242.73 105.579 246.223L100.482 259.91L99.6797 262.081C101.568 260.382 103.55 258.777 105.626 257.314Z" fill="#F3A140" stroke="#1C2628" stroke-width="1.05074" stroke-linecap="round" stroke-linejoin="round"/>
<path d="M105.673 245.988L105.578 246.224C110.015 242.731 114.829 238.955 119.926 235.463C114.97 238.719 110.203 242.354 105.673 245.988Z" fill="#F3A140" stroke="#1C2628" stroke-width="1.05074" stroke-linecap="round" stroke-linejoin="round"/>
<path d="M155.984 268.311C159.807 264.96 163.441 261.468 166.745 257.739C168.067 256.134 169.671 254.152 171.323 252.075C173.022 249.81 174.627 247.45 176.184 245.043C176.609 244.43 177.411 243.297 178.261 241.928C178.827 240.89 179.299 239.899 179.677 238.908C179.016 239.191 178.355 239.521 177.742 239.804C176.326 240.465 174.91 241.173 173.447 241.881C172.739 242.211 172.031 242.589 171.323 242.919C169.907 243.627 168.491 244.335 167.075 245.043C164.291 246.506 161.506 247.969 158.722 249.527C157.353 250.282 155.984 251.084 154.616 251.887C153.247 252.689 151.925 253.491 150.557 254.341C147.866 255.993 145.224 257.739 142.628 259.533C141.306 260.429 140.032 261.326 138.758 262.27C137.483 263.214 136.209 264.158 134.935 265.149C133.66 266.14 132.433 267.131 131.206 268.122C130.593 268.641 129.979 269.161 129.366 269.68L129.318 269.727C127.761 271.096 126.203 272.464 124.646 273.88C124.032 274.399 123.466 274.966 122.852 275.532C122.711 275.674 122.569 275.815 122.428 275.957C120.54 277.75 118.699 279.544 116.858 281.432C116.339 281.951 115.867 282.47 115.348 282.989C115.301 283.036 115.207 283.131 115.159 283.178C113.602 284.83 112.092 286.529 110.581 288.275C110.534 288.369 110.44 288.417 110.393 288.511L115.395 289.833L121.295 291.39C121.908 291.06 122.522 290.729 123.183 290.399C124.41 289.738 125.637 289.077 126.864 288.369C128.091 287.662 129.318 287.001 130.545 286.293C131.773 285.585 132.952 284.877 134.18 284.122C135.973 283.036 137.766 281.904 139.56 280.724C140.834 279.874 142.109 279.025 143.383 278.128L144.232 276.523L152.539 261.373L155.984 268.311Z" fill="#F3A140" stroke="#1C2628" stroke-width="1.05074" stroke-linecap="round" stroke-linejoin="round"/>
<path d="M123.278 290.258C122.665 290.588 122.051 290.919 121.391 291.249C122.051 290.919 122.665 290.588 123.278 290.258Z" fill="#F3A140" stroke="#1C2628" stroke-width="1.05074" stroke-linecap="round" stroke-linejoin="round"/>
<path d="M198.745 283.131C198.698 283.179 198.651 283.226 198.556 283.273C196.952 284.5 195.441 285.586 194.025 286.482L212.574 282.943L208.562 274.164C205.447 277.515 202.096 280.63 198.745 283.131Z" fill="#F3A140" stroke="#1C2628" stroke-width="1.05074" stroke-linecap="round" stroke-linejoin="round"/>
<path d="M134.321 294.695L143.43 278.034C142.155 278.931 140.881 279.78 139.607 280.63C137.813 281.81 136.02 282.943 134.226 284.028C132.999 284.783 131.819 285.491 130.592 286.199C129.365 286.907 128.138 287.615 126.911 288.276C125.684 288.937 124.457 289.644 123.23 290.305C122.616 290.636 122.003 290.966 121.342 291.296L134.321 294.695Z" fill="#F3A140" stroke="#1C2628" stroke-width="1.05074" stroke-linecap="round" stroke-linejoin="round"/>
<path d="M134.273 283.981C136.067 282.895 137.86 281.762 139.654 280.583C137.86 281.762 136.067 282.895 134.273 283.981Z" fill="#F3A140" stroke="#1C2628" stroke-width="1.05074" stroke-linecap="round" stroke-linejoin="round"/>
<path d="M143.43 278.034C142.156 278.931 140.882 279.78 139.607 280.63C140.929 279.78 142.203 278.884 143.43 278.034Z" fill="#F3A140" stroke="#1C2628" stroke-width="1.05074" stroke-linecap="round" stroke-linejoin="round"/>
<path d="M126.959 288.275C128.186 287.615 129.413 286.907 130.64 286.199C129.413 286.859 128.186 287.567 126.959 288.275Z" fill="#F3A140" stroke="#1C2628" stroke-width="1.05074" stroke-linecap="round" stroke-linejoin="round"/>
<path d="M165.518 268.783C163.347 270.718 161.223 272.7 159.1 274.73L159.194 274.966C162.498 271.804 165.943 268.5 169.53 265.291C168.209 266.423 166.84 267.603 165.518 268.783Z" fill="#F3A140" stroke="#1C2628" stroke-width="1.05074" stroke-linecap="round" stroke-linejoin="round"/>
<path d="M166.745 257.692C168.35 255.852 169.86 253.964 171.323 252.029C169.719 254.153 168.114 256.088 166.745 257.692C163.441 261.421 159.854 264.961 155.984 268.264C159.854 264.961 163.441 261.468 166.745 257.692Z" fill="#F3A140"/>
<path d="M166.745 257.692C168.35 255.852 169.86 253.964 171.323 252.029C169.719 254.153 168.114 256.088 166.745 257.692ZM166.745 257.692C163.441 261.421 159.854 264.961 155.984 268.264C159.854 264.961 163.441 261.468 166.745 257.692Z" stroke="#1C2628" stroke-width="1.05074" stroke-linecap="round" stroke-linejoin="round"/>
<path d="M179.487 231.45C179.157 231.12 178.685 230.837 178.213 230.601C181.139 232.017 181.139 235.132 179.676 238.86C179.723 238.813 179.818 238.813 179.865 238.766C180.95 236.17 181.375 233.385 179.487 231.45Z" fill="#F3A140" stroke="#1C2628" stroke-width="1.05074" stroke-linecap="round" stroke-linejoin="round"/>
<path d="M179.678 238.861C179.3 239.805 178.828 240.843 178.262 241.881C178.828 240.937 179.394 239.852 179.866 238.766C179.819 238.814 179.725 238.814 179.678 238.861Z" fill="#F3A140" stroke="#1C2628" stroke-width="1.05074" stroke-linecap="round" stroke-linejoin="round"/>
<path d="M195.866 276.571C195.299 277.232 193.647 278.648 191.901 280.252C189.966 282.093 188.173 284.028 186.804 286.246C186.568 286.86 186.521 287.379 186.757 287.851L194.072 286.482C195.63 285.491 197.14 284.406 198.603 283.273C201.812 280.772 205.258 277.609 208.609 274.117L205.682 267.698C202.284 270.53 199.075 273.598 195.866 276.571Z" fill="#F3A140" stroke="#1C2628" stroke-width="1.05074" stroke-linecap="round" stroke-linejoin="round"/>
<path d="M115.443 282.848C115.915 282.329 116.434 281.81 116.954 281.291C116.765 281.48 116.529 281.716 116.34 281.905C116.01 282.235 115.727 282.518 115.443 282.848Z" fill="#F3A140" stroke="#1C2628" stroke-width="1.05074" stroke-linecap="round" stroke-linejoin="round"/>
<path d="M116.906 281.29C118.747 279.45 120.588 277.609 122.475 275.816C120.588 277.609 118.747 279.45 116.906 281.29Z" fill="#F3A140" stroke="#1C2628" stroke-width="1.05074" stroke-linecap="round" stroke-linejoin="round"/>
<path d="M129.412 269.633C130.073 269.066 130.686 268.547 131.3 268.075C130.639 268.594 130.026 269.114 129.412 269.633Z" fill="#F3A140" stroke="#1C2628" stroke-width="1.05074" stroke-linecap="round" stroke-linejoin="round"/>
<path d="M178.213 230.602C174.674 228.95 168.019 230.224 165.942 230.649H165.895C162.403 231.404 158.863 232.301 155.37 233.292C154.285 234.378 153.152 235.369 152.019 236.36C144.798 242.59 137.389 248.82 129.932 254.955C120.445 263.026 110.864 270.908 100.575 277.845C100.245 278.081 99.9147 278.365 99.5371 278.601C98.1684 279.592 95.3367 281.668 92.3633 283.462L110.534 288.276C110.581 288.181 110.675 288.134 110.723 288.04C112.186 286.294 113.696 284.594 115.301 282.943C115.348 282.895 115.442 282.801 115.49 282.754C115.773 282.471 116.056 282.14 116.339 281.857C116.528 281.668 116.764 281.432 116.953 281.244C118.746 279.403 120.634 277.562 122.522 275.769C122.663 275.627 122.805 275.486 122.947 275.344C123.513 274.778 124.126 274.259 124.74 273.692C126.297 272.276 127.808 270.908 129.412 269.539L129.46 269.492C130.073 268.973 130.687 268.453 131.3 267.934C132.527 266.943 133.802 265.905 135.029 264.961C136.256 264.017 137.577 263.026 138.852 262.082C140.126 261.138 141.4 260.241 142.722 259.344C145.318 257.551 147.961 255.852 150.651 254.153C151.972 253.303 153.341 252.501 154.71 251.699C156.078 250.896 157.447 250.094 158.816 249.339C161.553 247.781 164.338 246.318 167.17 244.855C168.585 244.147 170.001 243.392 171.417 242.731C172.125 242.401 172.833 242.023 173.541 241.693C174.957 240.985 176.373 240.324 177.836 239.616C178.497 239.286 179.11 239.003 179.771 238.72C181.14 235.133 181.14 232.018 178.213 230.602Z" fill="#F3A140" stroke="#1C2628" stroke-width="1.05074" stroke-linecap="round" stroke-linejoin="round"/>
<path d="M100.528 277.892C97.6964 279.827 94.7702 281.62 91.7969 283.367L92.316 283.508C95.2894 281.668 98.1212 279.638 99.4899 278.647C99.8203 278.364 100.151 278.128 100.528 277.892Z" fill="#F3A140" stroke="#1C2628" stroke-width="1.05074" stroke-linecap="round" stroke-linejoin="round"/>
<path d="M186.756 286.294C186.661 286.483 186.52 286.672 186.425 286.86C186.237 287.191 186.378 287.568 186.614 287.899H186.661C186.473 287.427 186.52 286.907 186.756 286.294Z" fill="#F3A140" stroke="#1C2628" stroke-width="1.05074" stroke-linecap="round" stroke-linejoin="round"/>
<path d="M198.602 283.272C198.649 283.225 198.696 283.178 198.79 283.131C202.094 280.582 205.492 277.514 208.654 274.163L208.607 274.116C205.256 277.609 201.764 280.771 198.602 283.272Z" fill="#F3A140" stroke="#1C2628" stroke-width="1.05074" stroke-linecap="round" stroke-linejoin="round"/>
<path d="M191.9 280.252C189.776 282.235 187.463 284.547 186.803 286.246C188.171 284.028 189.965 282.093 191.9 280.252Z" fill="#F3A140" stroke="#1C2628" stroke-width="1.05074" stroke-linecap="round" stroke-linejoin="round"/>
<path d="M163.582 283.886L163.629 283.934C167.216 281.432 170.567 278.695 173.776 275.769C170.52 278.648 167.122 281.385 163.582 283.886Z" fill="#F3A140" stroke="#1C2628" stroke-width="1.05074" stroke-linecap="round" stroke-linejoin="round"/>
<path d="M195.582 252.406C195.11 252.925 194.686 253.491 194.214 254.01C187.653 261.75 181.046 269.16 173.73 275.768C181.707 268.735 188.833 260.712 195.582 252.406Z" fill="#F3A140" stroke="#1C2628" stroke-width="1.05074" stroke-linecap="round" stroke-linejoin="round"/>
<path d="M195.865 276.571C194.543 277.798 193.175 279.025 191.9 280.252C193.647 278.647 195.299 277.279 195.865 276.571Z" fill="#F3A140" stroke="#1C2628" stroke-width="1.05074" stroke-linecap="round" stroke-linejoin="round"/>
<path fill-rule="evenodd" clip-rule="evenodd" d="M196.243 192.278L178.402 197.848L189.777 227.629L108.552 231.404L110.77 211.912L113.224 189.116L94.6289 173.494L109.496 143.761C109.496 143.761 125.354 153.341 136.445 152.586C147.536 151.831 162.969 148.669 162.969 148.669C162.969 148.669 170.285 142.817 178.308 141.542C183.358 140.74 188.644 141.778 192.703 147.064C203.228 160.94 214.885 186.426 214.885 186.426L196.243 192.278Z" fill="#FAF6EB" stroke="#1C2628" stroke-width="1.05074" stroke-linecap="round" stroke-linejoin="round"/>
<path d="M179.865 172.408L187.086 192.655" stroke="#1C2628" stroke-width="1.05074" stroke-linecap="round" stroke-linejoin="round"/>
<path d="M138.285 244.288C138.285 244.288 151.453 242.306 157.636 240.796" stroke="#FAF6EB" stroke-width="1.05074" stroke-linecap="round" stroke-linejoin="round"/>
<path d="M118.51 221.209C126.769 229.469 131.394 219.18 137.53 216.537C142.769 214.271 145.553 220.737 149.943 220.124C157.069 219.085 158.674 211.581 162.638 210.496C170.143 208.325 172.88 213.091 178.072 204.407" stroke="#FAF6EB" stroke-width="1.05074" stroke-linecap="round" stroke-linejoin="round"/>
<path d="M133.803 222.011L141.165 243.816" stroke="#FAF6EB" stroke-width="1.05074" stroke-linecap="round" stroke-linejoin="round"/>
<path d="M152.869 220.879L157.494 240.182" stroke="#FAF6EB" stroke-width="1.05074" stroke-linecap="round" stroke-linejoin="round"/>
<path d="M171.512 213.516L174.06 231.262" stroke="#FAF6EB" stroke-width="1.05074" stroke-linecap="round" stroke-linejoin="round"/>
<path fill-rule="evenodd" clip-rule="evenodd" d="M165.894 200.679L129.789 216.112C129.789 216.112 129.836 218.425 133.754 218.378C137.624 218.331 142.296 216.065 142.296 216.065C142.296 216.065 125.447 229.186 125.494 231.262C125.494 233.339 138.19 224.844 138.19 224.844C138.19 224.844 126.58 236.124 128.798 235.982C131.016 235.84 144.326 225.74 144.326 225.74C144.326 225.74 131.535 238.861 133.754 238.908C135.925 238.955 150.461 227.298 150.461 227.298C150.461 227.298 135.594 242.023 139.228 240.277C142.91 238.578 165.092 220.454 165.092 220.454C165.092 220.454 201.622 210.354 206.342 207.853C220.878 200.066 214.743 185.765 214.743 185.765L165.894 200.679Z" fill="#CC8D7B" stroke="#1C2628" stroke-width="1.05074" stroke-linecap="round" stroke-linejoin="round"/>
<path fill-rule="evenodd" clip-rule="evenodd" d="M209.08 397.393C209.174 397.771 213.894 397.96 212.242 400.98C210.543 404.095 202.755 405.747 199.169 406.455C186.284 409.004 162.544 403.387 148.432 402.821C144.421 402.679 133.943 402.443 133.754 397.724C133.471 390.55 142.722 388.756 150.415 388.662C164.338 388.473 178.685 392.815 191.948 395.741C195.251 396.449 208.466 395.411 209.08 397.393Z" fill="#FAF6EB" stroke="#1C2628" stroke-width="1.05074" stroke-linecap="round" stroke-linejoin="round"/>
<path fill-rule="evenodd" clip-rule="evenodd" d="M178.166 400.036C180.007 395.505 189.588 390.833 192.938 389.606C193.599 389.37 194.921 388.898 196.242 388.568C198.46 389.748 200.82 391.116 202.614 391.777C213.705 396.166 213.186 397.11 211.015 399.47C208.796 401.783 187.652 402.066 178.166 400.036Z" fill="#1C2628" stroke="#1C2628" stroke-width="1.05074" stroke-linecap="round" stroke-linejoin="round"/>
<path fill-rule="evenodd" clip-rule="evenodd" d="M139.276 384.886C142.722 387.057 148.102 390.125 151.123 393.334C142.202 394.75 134.557 394.467 134.557 394.467L139.276 384.886Z" fill="#1C2628" stroke="#1C2628" stroke-width="1.05074" stroke-linecap="round" stroke-linejoin="round"/>
<path fill-rule="evenodd" clip-rule="evenodd" d="M144.089 375.07C144.089 375.07 145.222 383.565 153.717 380.308C162.213 377.052 169.198 371.341 169.198 371.341C169.198 371.341 184.631 382.338 196.289 388.521C194.967 388.851 193.693 389.276 192.985 389.559C189.681 390.786 180.053 395.459 178.212 399.989H178.165C168.679 397.96 160.514 391.824 151.452 393.287C151.31 393.287 151.263 393.287 151.122 393.287C148.148 390.078 142.721 387.01 139.275 384.839L144.089 375.07Z" fill="#FAF6EB" stroke="#1C2628" stroke-width="1.05074" stroke-linecap="round" stroke-linejoin="round"/>
<path fill-rule="evenodd" clip-rule="evenodd" d="M184.68 381.96C184.68 381.96 182.178 385.499 181.518 386.255L184.68 381.96Z" fill="#F45B49"/>
<path d="M184.68 381.96C184.68 381.96 182.178 385.499 181.518 386.255" stroke="#1C2628" stroke-width="1.05074" stroke-linecap="round" stroke-linejoin="round"/>
<path fill-rule="evenodd" clip-rule="evenodd" d="M180.478 379.129L177.363 383.282L180.478 379.129Z" fill="#F45B49"/>
<path d="M180.478 379.129L177.363 383.282" stroke="#1C2628" stroke-width="1.05074" stroke-linecap="round" stroke-linejoin="round"/>
<path fill-rule="evenodd" clip-rule="evenodd" d="M175.711 376.486L172.785 380.497L175.711 376.486Z" fill="#F45B49"/>
<path d="M175.711 376.486L172.785 380.497" stroke="#1C2628" stroke-width="1.05074" stroke-linecap="round" stroke-linejoin="round"/>
<path fill-rule="evenodd" clip-rule="evenodd" d="M26.8085 396.119C26.7142 396.45 22.4665 396.638 23.9768 399.612C25.5342 402.632 32.5665 404.237 35.8231 404.945C47.4806 407.399 68.9549 401.972 81.7451 401.452C85.3792 401.311 94.8657 401.075 95.0073 396.497C95.2433 389.512 86.8895 387.765 79.9516 387.671C67.3502 387.482 54.3712 391.683 42.3361 394.562C39.3628 395.222 27.3749 394.184 26.8085 396.119Z" fill="#FAF6EB" stroke="#1C2628" stroke-width="1.05074" stroke-linecap="round" stroke-linejoin="round"/>
<path fill-rule="evenodd" clip-rule="evenodd" d="M54.795 398.668C53.1431 394.278 44.459 389.7 41.4384 388.52C40.8249 388.284 39.6449 387.812 38.465 387.529C36.4356 388.662 34.3118 389.983 32.7071 390.691C22.6543 394.939 23.1734 395.883 25.1085 398.148C27.0907 400.367 46.2524 400.65 54.795 398.668Z" fill="#1C2628" stroke="#1C2628" stroke-width="1.05074" stroke-linecap="round" stroke-linejoin="round"/>
<path fill-rule="evenodd" clip-rule="evenodd" d="M90.0046 383.943C86.8896 386.066 82.0284 389.04 79.291 392.155C87.3616 393.523 94.2995 393.288 94.2995 393.288L90.0046 383.943Z" fill="#1C2628" stroke="#1C2628" stroke-width="1.05074" stroke-linecap="round" stroke-linejoin="round"/>
<path fill-rule="evenodd" clip-rule="evenodd" d="M94.2978 371.342C94.2978 371.342 84.6226 382.669 76.9768 379.507C69.3309 376.345 60.1277 368.132 60.1277 368.132C60.1277 368.132 48.9893 381.489 38.5117 387.53C39.6916 387.813 40.8715 388.285 41.4851 388.521C44.5057 389.701 53.1898 394.232 54.8417 398.668H54.8889C63.4786 396.686 70.8412 390.74 79.0534 392.155C79.1478 392.155 79.2422 392.155 79.3366 392.155C82.0268 389.04 86.9352 386.067 90.0501 383.943L94.2978 371.342Z" fill="#FAF6EB" stroke="#1C2628" stroke-width="1.05074" stroke-linecap="round" stroke-linejoin="round"/>
<path fill-rule="evenodd" clip-rule="evenodd" d="M47.6699 380.686C49.9353 382.999 49.7466 382.905 51.304 384.273L47.6699 380.686Z" fill="#F45B49"/>
<path d="M47.6699 380.686C49.9353 382.999 49.7466 382.905 51.304 384.273" stroke="#1C2628" stroke-width="1.05074" stroke-linecap="round" stroke-linejoin="round"/>
<path fill-rule="evenodd" clip-rule="evenodd" d="M51.3027 378.232L54.8897 381.725L51.3027 378.232Z" fill="#F45B49"/>
<path d="M51.3027 378.232L54.8897 381.725" stroke="#1C2628" stroke-width="1.05074" stroke-linecap="round" stroke-linejoin="round"/>
<path fill-rule="evenodd" clip-rule="evenodd" d="M55.0312 374.928L58.4294 378.279L55.0312 374.928Z" fill="#F45B49"/>
<path d="M55.0312 374.928L58.4294 378.279" stroke="#1C2628" stroke-width="1.05074" stroke-linecap="round" stroke-linejoin="round"/>
<path d="M313.756 319.91L309.277 290.598L327.19 305.661L313.756 319.91Z" fill="black" stroke="#1C2628" stroke-width="1.88417" stroke-linecap="round"/>
<path fill-rule="evenodd" clip-rule="evenodd" d="M196.243 191.382C198.272 188.456 200.868 186.001 199.972 181.329C198.886 175.524 193.694 174.721 192.231 167.264C191.146 161.648 193.694 160.327 191.995 156.787C189.116 150.746 180.574 152.539 178.356 147.159C177.648 145.46 177.742 143.43 178.356 141.542C183.406 140.74 188.692 141.778 192.75 147.064C203.275 160.94 214.933 186.426 214.933 186.426L196.243 191.382Z" fill="#1C2628" stroke="#1C2628" stroke-width="1.05074" stroke-linecap="round" stroke-linejoin="round"/>
<path fill-rule="evenodd" clip-rule="evenodd" d="M160.561 108.316C158.957 108.693 157.258 108.882 155.653 108.835C153.576 108.835 153.718 108.457 150.603 108.127C140.55 107.042 135.925 110.298 133.423 107.702C132.857 107.089 132.479 106.334 132.338 105.484C137.577 103.219 143.004 104.54 143.004 104.54C143.004 104.54 152.538 103.596 155.936 104.823C158.013 105.626 159.523 106.947 160.561 108.316Z" fill="#1C2628" stroke="#1C2628" stroke-width="1.05074" stroke-linecap="round" stroke-linejoin="round"/>
<path fill-rule="evenodd" clip-rule="evenodd" d="M319.141 248.846C330.704 246.25 344.013 250.875 350.621 261.117C356.001 269.47 357.889 282.969 351.47 288.538C346.609 292.786 338.963 290.709 328.674 287.971C316.12 284.621 298.374 279.854 297.289 269.612C296.392 260.881 308.097 251.347 319.141 248.846Z" fill="#1C2628" stroke="#1C2628" stroke-width="1.05074" stroke-linecap="round" stroke-linejoin="round"/>
<path fill-rule="evenodd" clip-rule="evenodd" d="M351.943 278.013C341.04 251.583 322.162 263.76 322.162 263.76H314.516L304.793 257.058L301.112 246.722L283.697 249.176L284.971 253.943L283.225 262.863C279.496 261.589 271.52 259.276 262.6 259.276C253.68 259.276 250.234 277.966 250.234 277.966L277.325 312.608L270.151 343.285L320.557 341.964L320.038 301.281L331.554 297.033L354.869 352.914L369.122 328.324C369.122 328.371 359.211 295.617 351.943 278.013Z" fill="#CC8D7B" stroke="#1C2628" stroke-width="1.05074" stroke-linecap="round" stroke-linejoin="round"/>
<path fill-rule="evenodd" clip-rule="evenodd" d="M282.661 233.46C282.189 233.035 280.678 232.563 280.442 232.091C279.404 230.015 275.959 225.248 277.894 221.897C279.876 218.546 282 220.009 282 220.009C282 220.009 283.038 212.693 290.259 218.593C291.109 219.301 291.534 218.215 292.006 219.254C292.383 220.056 292.572 220.953 292.855 221.802" fill="#1C2628"/>
<path d="M282.661 233.46C282.189 233.035 280.678 232.563 280.442 232.091C279.404 230.015 275.959 225.248 277.894 221.897C279.876 218.546 282 220.009 282 220.009C282 220.009 283.038 212.693 290.259 218.593C291.109 219.301 291.534 218.215 292.006 219.254C292.383 220.056 292.572 220.953 292.855 221.802" stroke="#1C2628" stroke-width="1.05074" stroke-linecap="round" stroke-linejoin="round"/>
<path fill-rule="evenodd" clip-rule="evenodd" d="M314.943 238.84C315.226 239.737 316.736 241.294 316.736 242.144C316.736 245.731 318.058 254.415 313.763 258.002C309.515 261.542 307.863 258.143 307.863 258.143C307.863 258.143 302.436 267.819 297.386 255.17C296.772 253.66 295.687 254.934 295.734 253.188C295.781 251.819 296.064 250.45 296.253 249.082" fill="#1C2628"/>
<path d="M314.943 238.84C315.226 239.737 316.736 241.294 316.736 242.144C316.736 245.731 318.058 254.415 313.763 258.002C309.515 261.542 307.863 258.143 307.863 258.143C307.863 258.143 302.436 267.819 297.386 255.17C296.772 253.66 295.687 254.934 295.734 253.188C295.781 251.819 296.064 250.45 296.253 249.082" stroke="#1C2628" stroke-width="1.05074" stroke-linecap="round" stroke-linejoin="round"/>
<path fill-rule="evenodd" clip-rule="evenodd" d="M278.695 239.265C278.601 227.183 281.716 229.542 282.66 226.333C284.595 219.914 286.766 217.932 298.707 219.914C300.783 220.245 303.285 220.575 305.125 221.755C313.432 227.041 312.63 234.026 312.63 234.026C312.63 234.026 315.65 250.686 297.527 250.45C279.403 250.262 297.48 250.167 288.088 246.816C278.695 243.513 278.695 239.265 278.695 239.265Z" fill="#1C2628" stroke="#1C2628" stroke-width="1.05074" stroke-linecap="round" stroke-linejoin="round"/>
<path fill-rule="evenodd" clip-rule="evenodd" d="M298.707 242.143C299.557 239.406 295.45 231.43 294.837 228.834C293.751 224.209 301.303 226.852 296.725 225.389C291.58 223.737 286.908 223.123 283.368 227.135C282 228.692 279.404 237.046 278.743 239.217C276.289 246.91 280.3 252.668 287.427 254.934C292.005 256.397 295.781 256.113 299.321 252.999C301.256 251.252 297.81 244.928 298.707 242.143Z" fill="#CC8D7B" stroke="#1C2628" stroke-width="1.05074" stroke-linecap="round" stroke-linejoin="round"/>
<path d="M284.785 237C284.785 237 284.832 238.132 285.776 238.651C286.72 239.171 287.664 238.793 287.947 237.802" stroke="#1C2628" stroke-width="1.05074" stroke-linecap="round" stroke-linejoin="round"/>
<path fill-rule="evenodd" clip-rule="evenodd" d="M300.217 253.141L298.706 248.421C298.706 248.421 290.966 247.288 288.701 249.601C286.435 251.913 288.465 259.748 288.465 259.748L293.94 260.786" fill="#CC8D7B"/>
<path fill-rule="evenodd" clip-rule="evenodd" d="M295.923 239.123C297.008 237.896 299.038 239.265 299.368 240.492C300.076 243.04 297.291 247.052 293.516 243.748" fill="#CC8D7B"/>
<path d="M295.923 239.123C297.008 237.896 299.038 239.265 299.368 240.492C300.076 243.04 297.291 247.052 293.516 243.748" stroke="#1C2628" stroke-width="1.05074" stroke-linecap="round" stroke-linejoin="round"/>
<path d="M296.016 241.767C296.016 241.767 296.629 241.2 296.535 241.295" stroke="#1C2628" stroke-width="1.05074" stroke-linecap="round" stroke-linejoin="round"/>
<path fill-rule="evenodd" clip-rule="evenodd" d="M286.059 243.087C285.54 243.607 283.888 241.813 284.171 245.117C284.171 245.117 284.313 248.657 287.192 247.76C289.174 247.193 286.059 243.087 286.059 243.087Z" fill="#1C2628" stroke="#1C2628" stroke-width="1.05074" stroke-linecap="round" stroke-linejoin="round"/>
<path fill-rule="evenodd" clip-rule="evenodd" d="M280.914 238.179C280.914 238.179 276.902 242.096 276.714 243.04C276.666 244.692 279.168 242.993 279.593 243.37" fill="#CC8D7B"/>
<path d="M280.914 238.179C280.914 238.179 276.902 242.096 276.714 243.04C276.666 244.692 279.168 242.993 279.593 243.37" stroke="#1C2628" stroke-width="1.05074" stroke-linecap="round" stroke-linejoin="round"/>
<path fill-rule="evenodd" clip-rule="evenodd" d="M287.143 221.566L283.367 227.136C288.134 221.566 288.936 238.038 300.688 238.463C301.019 238.463 307.296 240.303 307.249 239.879C307.201 239.312 306.257 239.407 305.88 238.982C305.03 238.038 304.794 237 304.606 235.82C304.37 234.357 305.738 231.336 304.558 230.156C302.623 228.221 299.98 221.802 297.62 221.991L287.143 221.566Z" fill="#1C2628" stroke="#1C2628" stroke-width="1.05074" stroke-linecap="round" stroke-linejoin="round"/>
<path fill-rule="evenodd" clip-rule="evenodd" d="M299.084 223.077C299.603 222.747 300.5 221.425 301.066 221.331C303.379 220.953 308.901 218.971 311.544 221.803C314.234 224.634 312.157 226.286 312.157 226.286C312.157 226.286 318.906 229.354 311.119 234.593C310.222 235.206 311.119 235.914 309.986 236.056C309.09 236.15 308.193 236.103 307.296 236.15" fill="#1C2628"/>
<path d="M299.084 223.077C299.603 222.747 300.5 221.425 301.066 221.331C303.379 220.953 308.901 218.971 311.544 221.803C314.234 224.634 312.157 226.286 312.157 226.286C312.157 226.286 318.906 229.354 311.119 234.593C310.222 235.206 311.119 235.914 309.986 236.056C309.09 236.15 308.193 236.103 307.296 236.15" stroke="#1C2628" stroke-width="1.05074" stroke-linecap="round" stroke-linejoin="round"/>
<path fill-rule="evenodd" clip-rule="evenodd" d="M288.514 225.814C288.561 225.201 287.947 223.69 288.183 223.218C289.127 221.095 290.59 215.384 294.46 214.817C298.33 214.204 298.519 216.8 298.519 216.8C298.519 216.8 304.843 212.93 304.843 222.322C304.843 223.407 305.929 223.077 305.41 224.115C304.985 224.918 304.466 225.625 303.947 226.381" fill="#1C2628"/>
<path d="M288.514 225.814C288.561 225.201 287.947 223.69 288.183 223.218C289.127 221.095 290.59 215.384 294.46 214.817C298.33 214.204 298.519 216.8 298.519 216.8C298.519 216.8 304.843 212.93 304.843 222.322C304.843 223.407 305.929 223.077 305.41 224.115C304.985 224.918 304.466 225.625 303.947 226.381" stroke="#1C2628" stroke-width="1.05074" stroke-linecap="round" stroke-linejoin="round"/>
<path fill-rule="evenodd" clip-rule="evenodd" d="M304.984 230.864C305.928 230.958 307.816 230.392 308.666 230.722C312.3 232.044 321.503 234.309 324.382 238.887C327.308 243.465 323.533 243.465 323.533 243.465C323.533 243.465 332.5 251.253 318.671 250.356C317.019 250.262 318.105 251.583 316.312 250.875C314.943 250.309 313.574 249.601 312.205 248.987" fill="#1C2628"/>
<path d="M304.984 230.864C305.928 230.958 307.816 230.392 308.666 230.722C312.3 232.044 321.503 234.309 324.382 238.887C327.308 243.465 323.533 243.465 323.533 243.465C323.533 243.465 332.5 251.253 318.671 250.356C317.019 250.262 318.105 251.583 316.312 250.875C314.943 250.309 313.574 249.601 312.205 248.987" stroke="#1C2628" stroke-width="1.05074" stroke-linecap="round" stroke-linejoin="round"/>
<path fill-rule="evenodd" clip-rule="evenodd" d="M358.598 410.351L349.505 415.157C348.089 416.573 346.059 417.092 344.172 416.62L340.144 419.507L311.59 411.956C311.59 411.956 296.063 411.956 277.184 411.956C264.63 411.956 234.99 412.428 216.537 406.717C207.239 403.838 200.82 399.402 200.82 392.511C200.82 372.028 245.091 350.506 245.091 350.506H266.754L290.635 374.388L272.464 383.685L286.22 389.901L304.32 391.6C304.32 391.6 310.221 385.715 315.979 385.715C324.852 385.715 327.59 394.776 327.59 394.776C327.59 394.776 351.188 394.776 355.105 398.694L358.645 402.233C360.816 404.404 360.816 408.086 358.598 410.351Z" fill="#CC8D7B" stroke="#1C2628" stroke-width="1.05074" stroke-linecap="round" stroke-linejoin="round"/>
<path fill-rule="evenodd" clip-rule="evenodd" d="M430.715 373.066V374.387L408.816 373.868L404.427 373.774C404.427 373.774 404.71 394.588 400.226 399.071C395.743 403.555 388.758 404.121 371.956 404.121C355.154 404.121 298.424 374.387 298.424 374.387L307.769 364.004L326.364 343.427L371.956 359.615H376.959L379.177 357.397L383.991 352.583C385.265 351.308 387.106 350.648 388.899 350.836L412.497 353.338C413.913 353.479 415.282 353.81 416.556 354.329C418.68 355.131 420.615 356.406 422.267 358.01L425.901 361.597C429.016 364.618 430.715 368.771 430.715 373.066Z" fill="#CC8D7B" stroke="#1C2628" stroke-width="1.05074" stroke-linecap="round" stroke-linejoin="round"/>
<path fill-rule="evenodd" clip-rule="evenodd" d="M404.427 373.727C404.427 373.727 404.71 394.54 400.226 399.024C395.743 403.508 388.758 404.074 371.956 404.074C355.154 404.074 298.424 374.34 298.424 374.34L307.769 363.957C314.282 363.155 320.653 363.91 324.665 367.072C330.234 371.461 329.809 379.202 338.635 384.393C343.402 387.178 348.216 387.697 351.237 388.027C362.988 389.302 366.528 384.204 372.475 387.178C378.469 390.198 377.666 396.617 383.094 397.797C387.2 398.694 392.345 396.004 394.563 392.181C398.527 385.384 391.448 378.022 394.563 374.293C396.687 371.745 403.011 371.65 408.769 373.727H404.427Z" fill="#1C2628" stroke="#1C2628" stroke-width="1.05074" stroke-linecap="round" stroke-linejoin="round"/>
<path fill-rule="evenodd" clip-rule="evenodd" d="M374.314 357.256C374.314 357.256 360.674 364.996 351.942 373.727C343.211 382.459 332.309 383.875 322.162 373.727C312.014 363.58 293.655 395.815 275.012 395.815C256.37 395.815 265.148 385.951 250.234 385.951C235.32 385.951 241.22 385.951 225.692 385.951C224.04 385.951 222.483 385.857 221.067 385.715C209.173 384.394 205.209 378.164 205.209 378.164L261.609 329.268H323.2L331.978 334.082L374.314 357.256Z" fill="#B0FFAE" stroke="#1C2628" stroke-width="1.05074" stroke-linecap="round" stroke-linejoin="round"/>
<path fill-rule="evenodd" clip-rule="evenodd" d="M260.869 259.768C270.45 259.296 270.138 260.154 281.724 262.085C285.358 263.501 297.667 288.585 301.301 290.001C303.802 288.679 309.731 265.337 312.233 264.016C319.973 265.054 321.099 261.047 328.839 262.085C325.299 272.987 324.994 310.956 321.454 321.858C305.69 322.142 287.785 322.425 272.069 322.708C267.868 310.862 265.07 271.567 260.869 259.768Z" fill="#1C2628" stroke="#1C2628" stroke-width="1.05074" stroke-linecap="round" stroke-linejoin="round"/>
<path d="M273.645 290.001H289.738L300.216 295.523L309.655 290.992L324.403 292.734" stroke="#FAF6EB" stroke-width="1.05074" stroke-linecap="round" stroke-linejoin="round"/>
<path d="M309.42 294.673C311.119 294.295 312.771 295.287 314.423 295.759C317.019 296.467 319.756 295.995 322.446 296.183" stroke="#FAF6EB" stroke-width="1.05074" stroke-linecap="round" stroke-linejoin="round"/>
<path d="M308.617 297.552C311.355 297.694 313.998 299.157 316.641 298.638" stroke="#FAF6EB" stroke-width="1.05074" stroke-linecap="round" stroke-linejoin="round"/>
<path d="M321.878 299.393C319.943 304.348 318.716 309.587 318.291 314.92" stroke="#FAF6EB" stroke-width="1.05074" stroke-linecap="round" stroke-linejoin="round"/>
<path d="M317.159 305.292C317.065 306.85 316.829 308.407 316.404 309.918C316.168 310.862 315.838 311.806 316.027 312.797" stroke="#FAF6EB" stroke-width="1.05074" stroke-linecap="round" stroke-linejoin="round"/>
<path d="M272.418 299.535C272.371 301.328 272.465 303.122 272.654 304.915" stroke="#FAF6EB" stroke-width="1.05074" stroke-linecap="round" stroke-linejoin="round"/>
<path d="M274.305 299.44C274.446 301.989 275.06 304.538 276.051 306.897" stroke="#FAF6EB" stroke-width="1.05074" stroke-linecap="round" stroke-linejoin="round"/>
<path d="M353.076 415.826L348.073 413.844" stroke="#1C2628" stroke-width="1.05074" stroke-linecap="round" stroke-linejoin="round"/>
<path d="M356.852 412.051L351.85 409.785" stroke="#1C2628" stroke-width="1.05074" stroke-linecap="round" stroke-linejoin="round"/>
<path d="M430.572 370.895H425.239" stroke="#1C2628" stroke-width="1.05074" stroke-linecap="round" stroke-linejoin="round"/>
<path d="M429.44 366.695H425.239" stroke="#1C2628" stroke-width="1.05074" stroke-linecap="round" stroke-linejoin="round"/>
<path d="M426.938 362.542H423.492" stroke="#1C2628" stroke-width="1.05074" stroke-linecap="round" stroke-linejoin="round"/>
<path d="M377.004 359.568L390.832 362.542" stroke="#1C2628" stroke-width="1.05074" stroke-linecap="round" stroke-linejoin="round"/>
<path d="M404.425 373.727V366.695" stroke="#1C2628" stroke-width="1.05074" stroke-linecap="round" stroke-linejoin="round"/>
<path d="M275.25 268.102C281.48 275.039 294.459 269.942 301.302 276.267C302.954 273.954 306.116 273.246 308.948 273.34C311.78 273.435 314.612 274.143 317.444 273.907" stroke="#1C2628" stroke-width="1.05074" stroke-linecap="round" stroke-linejoin="round"/>
<path d="M301.02 225.719C305.503 227.277 310.223 228.174 314.99 228.362C318.246 228.457 321.597 228.268 324.712 229.259C327.827 230.25 330.753 232.846 330.848 236.103C330.895 237.235 330.612 238.415 330.942 239.454C331.744 242.049 335.19 242.285 337.738 243.229C341.325 244.551 343.874 248.232 343.874 252.055C343.874 255.878 341.278 259.559 337.691 260.834" stroke="#1C2628" stroke-width="1.05074" stroke-linecap="round" stroke-linejoin="round"/>
<path d="M295.072 219.914C297.762 219.914 300.547 219.914 303.143 219.112C304.181 218.782 305.172 218.357 306.211 218.215C309.231 217.838 312.063 219.867 313.762 222.369C317.066 227.135 317.302 233.837 314.376 238.887" stroke="#1C2628" stroke-width="1.05074" stroke-linecap="round" stroke-linejoin="round"/>
<path d="M315.934 242.663C319.992 241.955 324.429 241.342 328.016 243.324C329.668 244.268 331.036 245.731 332.783 246.533C334.812 247.477 337.125 247.383 339.343 247.572C343.449 247.855 347.744 249.082 350.387 252.244C353.03 255.406 353.077 260.834 349.679 263.194" stroke="#1C2628" stroke-width="1.05074" stroke-linecap="round" stroke-linejoin="round"/>
<path fill-rule="evenodd" clip-rule="evenodd" d="M340.144 419.461L311.591 411.909C311.591 411.909 296.063 411.909 277.184 411.909C264.63 411.909 234.991 412.381 216.537 406.67C219.274 403.508 222.909 400.724 226.826 399.308C236.171 395.957 240.56 402.753 258.967 404.358C270.483 405.349 280.441 403.697 286.671 402.659C300.971 400.299 303.756 397.42 313.526 398.458C322.823 399.449 332.121 403.272 333.112 407.992C333.301 408.841 333.395 410.635 334.764 411.909C336.51 413.467 338.493 412.57 339.672 413.561C340.805 414.552 340.758 416.959 340.144 419.461Z" fill="#1C2628" stroke="#1C2628" stroke-width="1.05074" stroke-linecap="round" stroke-linejoin="round"/>
<path fill-rule="evenodd" clip-rule="evenodd" d="M416.65 354.235C414.432 356.831 410.562 358.908 407.022 358.908C402.633 358.908 401.783 355.651 396.545 355.746C395.223 355.793 392.486 356.453 387.011 357.822C383.613 358.672 382.386 359.049 380.923 358.436C380.309 358.153 379.743 357.775 379.224 357.303L384.038 352.489C385.312 351.215 387.153 350.554 388.946 350.743L412.544 353.244C413.96 353.433 415.329 353.763 416.65 354.235Z" fill="#1C2628" stroke="#1C2628" stroke-width="1.05074" stroke-linecap="round" stroke-linejoin="round"/>
<path fill-rule="evenodd" clip-rule="evenodd" d="M374.315 357.256C374.315 357.256 360.675 364.996 351.944 373.727C343.213 382.459 332.31 383.875 322.163 373.727C312.016 363.58 293.656 395.815 275.014 395.815C256.371 395.815 265.15 385.951 250.236 385.951C235.322 385.951 241.221 385.951 225.694 385.951C224.042 385.951 222.484 385.857 221.068 385.715C223.617 381.137 241.032 381.326 245.658 378.636C255.663 372.783 256.607 370.565 275.533 374.105C285.539 375.993 292.146 378.164 298.47 374.341C304.087 370.99 302.388 367.167 307.815 363.958C315.414 359.521 327.119 361.975 339.248 364.571C342.977 365.374 346.186 366.223 349.301 364.571C353.265 362.447 356.428 356.737 354.87 352.961C352.274 346.684 338.729 351.026 333.632 343.333C331.933 340.737 331.413 337.197 331.98 333.988L374.315 357.256Z" fill="#1C2628" stroke="#1C2628" stroke-width="1.05074" stroke-linecap="round" stroke-linejoin="round"/>
<path d="M294.223 387.555C294.223 387.555 311.685 371.981 318.293 371.792C325.797 371.603 325.514 376.087 332.121 380.287C338.729 384.488 345.714 379.249 351.944 373.727" stroke="#FAF6EB" stroke-width="1.05074" stroke-linecap="round" stroke-linejoin="round"/>
<path d="M266.706 350.506L257.172 373.727" stroke="#1C2628" stroke-width="1.05074" stroke-linecap="round" stroke-linejoin="round"/>
<path d="M301.02 339.274L307.816 364.005" stroke="#1C2628" stroke-width="1.05074" stroke-linecap="round" stroke-linejoin="round"/>
<path d="M309.656 347.249L317.16 366.694" stroke="#1C2628" stroke-width="1.05074" stroke-linecap="round" stroke-linejoin="round"/>
<path d="M322.492 339.274L352.273 367.545" stroke="#1C2628" stroke-width="1.05074" stroke-linecap="round" stroke-linejoin="round"/>
<path d="M343.92 351.639L358.504 363.674" stroke="#1C2628" stroke-width="1.05074" stroke-linecap="round" stroke-linejoin="round"/>
<path fill-rule="evenodd" clip-rule="evenodd" d="M254.577 265.553C254.577 265.553 228.807 296.137 224.984 317.894C223.427 326.673 226.872 339.274 241.975 339.274C257.078 339.274 278.741 324.691 278.741 324.691C278.741 324.691 290.493 329.41 293.655 326.248C296.817 323.086 293.655 324.219 293.655 324.219C293.655 324.219 295.024 332.336 298.375 332.336C301.726 332.336 307.578 326.484 307.578 326.484L303.755 314.543C303.755 314.543 305.832 319.735 308.947 319.735C312.014 319.735 314.563 317.233 314.563 317.233L298.375 306.19C298.375 306.19 302.575 304.443 302.575 303.499C302.575 302.555 302.575 301.328 302.575 301.328L268.924 310.154L253.255 313.458L272.983 285.754L254.577 265.553Z" fill="#CC8D7B" stroke="#1C2628" stroke-width="1.05074" stroke-linecap="round" stroke-linejoin="round"/>
<path fill-rule="evenodd" clip-rule="evenodd" d="M248.346 274.237L257.219 262.863L278.787 281.081L265.903 290.992L248.346 274.237Z" fill="#CC8D7B"/>
<path d="M245.609 313.505H253.35" stroke="#CC8D7B" stroke-width="1.05074" stroke-linecap="round" stroke-linejoin="round"/>
<path d="M289.738 317.045H296.487L298.422 332.384" stroke="#CC8D7B" stroke-width="1.05074" stroke-linecap="round" stroke-linejoin="round"/>
<path d="M295.779 313.505L300.027 314.921L301.632 331.25" stroke="#CC8D7B" stroke-width="1.05074" stroke-linecap="round" stroke-linejoin="round"/>
<path d="M301.631 312.797L304.604 329.221" stroke="#CC8D7B" stroke-width="1.05074" stroke-linecap="round" stroke-linejoin="round"/>
<path d="M298.422 306.189H289.738" stroke="#CC8D7B" stroke-width="1.05074" stroke-linecap="round" stroke-linejoin="round"/>
<path fill-rule="evenodd" clip-rule="evenodd" d="M352.981 350.506L356.757 333.233C356.757 333.233 351.329 333.988 355.105 324.737C358.881 315.487 360.297 316.667 360.297 316.667L358.503 314.873C358.503 314.873 355.766 316.761 353.972 316.761C352.179 316.761 351.849 314.873 351.849 314.873L356.049 309.115H360.25L362.562 306.803H364.497L366.432 304.868H370.302L372.521 311.333C372.521 311.333 370.822 300.525 372.521 298.874C374.22 297.175 376.108 297.175 376.108 297.175C376.108 297.175 378.515 328.419 376.108 335.781C373.701 343.144 377.335 347.627 366.574 352.866C355.86 358.011 352.981 350.506 352.981 350.506Z" fill="#CC8D7B" stroke="#1C2628" stroke-width="1.05074" stroke-linecap="round" stroke-linejoin="round"/>
<path d="M360.344 309.068L364.733 313.505" stroke="#CC8D7B" stroke-width="1.05074" stroke-linecap="round" stroke-linejoin="round"/>
<path d="M364.592 306.755L369.123 311.286" stroke="#CC8D7B" stroke-width="1.05074" stroke-linecap="round" stroke-linejoin="round"/>
<path d="M360.249 329.221L356.757 333.186" stroke="#CC8D7B" stroke-width="1.05074" stroke-linecap="round" stroke-linejoin="round"/>
<path d="M296.723 225.437L285.113 228.504L277.986 226.38" stroke="#FAF6EB" stroke-width="1.05074" stroke-linecap="round" stroke-linejoin="round"/>
<path d="M285.066 230.769C285.692 230.769 286.199 230.262 286.199 229.636C286.199 229.011 285.692 228.504 285.066 228.504C284.441 228.504 283.934 229.011 283.934 229.636C283.934 230.262 284.441 230.769 285.066 230.769Z" stroke="#FAF6EB" stroke-width="1.05074" stroke-linecap="round" stroke-linejoin="round"/>
<path fill-rule="evenodd" clip-rule="evenodd" d="M302.389 390.857L335.129 412.717L340.237 419.792C340.237 419.792 352.697 417.475 355.874 416.347C360.222 414.803 364.459 408.688 365.924 408.253L335.185 396.85L309.051 386.887L302.389 390.857Z" fill="#FAF6EB" stroke="#1C2628" stroke-width="0.898687" stroke-linecap="round" stroke-linejoin="round"/>
<path fill-rule="evenodd" clip-rule="evenodd" d="M312.546 382.918L309.063 386.117L366.207 408.144C369.127 406.519 368.813 405.26 368.813 405.26L312.546 382.918Z" fill="#1C2628" stroke="#1C2628" stroke-width="0.898687" stroke-linecap="round" stroke-linejoin="round"/>
<path fill-rule="evenodd" clip-rule="evenodd" d="M379.372 353.775L404.344 369.973L405.116 376.152C405.116 376.152 422.103 376.115 430.991 374.607C434.128 374.075 436.286 368.193 437.557 367.656L387.352 342.94L379.372 353.775Z" fill="#FAF6EB" stroke="#1C2628" stroke-width="0.898687" stroke-linecap="round" stroke-linejoin="round"/>
<path fill-rule="evenodd" clip-rule="evenodd" d="M390.827 340.35L387.417 342.962L437.15 367.236C439.921 365.998 439.743 364.839 439.743 364.839L414.273 352.565L390.827 340.35Z" fill="#1C2628" stroke="#1C2628" stroke-width="0.898687" stroke-linecap="round" stroke-linejoin="round"/>
<path d="M81.0371 320.227C83.2081 320.746 85.3792 321.218 87.5502 321.738" stroke="#1C2628" stroke-width="1.05074" stroke-linecap="round" stroke-linejoin="round"/>
<path d="M173.777 310.269C176.137 311.165 178.497 312.015 180.857 312.912" stroke="#1C2628" stroke-width="1.05074" stroke-linecap="round" stroke-linejoin="round"/>
<path fill-rule="evenodd" clip-rule="evenodd" d="M196.289 319.047C196.997 321.313 194.684 324.381 191.994 324.381C190.437 324.381 188.737 323.437 188.124 321.643C187.51 319.897 188.266 318.056 189.493 317.112C191.664 315.508 195.581 316.735 196.289 319.047Z" fill="#1C2628" stroke="#1C2628" stroke-width="1.05074" stroke-linecap="round" stroke-linejoin="round"/>
<path fill-rule="evenodd" clip-rule="evenodd" d="M200.066 307.956C198.98 307.815 197.47 303.331 199.641 301.349C200.443 300.594 201.907 300.027 202.567 300.594C203.983 301.821 201.435 308.098 200.066 307.956Z" fill="#1C2628" stroke="#1C2628" stroke-width="1.05074" stroke-linecap="round" stroke-linejoin="round"/>
<path fill-rule="evenodd" clip-rule="evenodd" d="M107.796 315.555C105.767 315.319 103.265 311.025 105.153 308.429C106.852 306.069 111.147 306.447 112.28 308.146C113.79 310.364 110.298 315.839 107.796 315.555Z" fill="#1C2628" stroke="#1C2628" stroke-width="1.05074" stroke-linecap="round" stroke-linejoin="round"/>
<path d="M250.14 118.416C250.14 118.085 250.14 117.708 250.045 117.377C249.668 115.537 248.252 114.074 246.411 113.696C243.344 113.082 240.701 115.395 240.701 118.321C240.701 118.368 240.701 118.416 240.701 118.463C240.748 119.832 240.181 121.153 239.19 122.097C237.161 124.032 236.028 126.911 236.547 130.026C237.161 133.99 240.465 137.105 244.429 137.53C249.857 138.144 254.482 133.896 254.482 128.563C254.482 125.967 253.396 123.654 251.65 122.003C250.612 121.106 250.14 119.784 250.14 118.416Z" fill="#F3A140" stroke="#1C2628" stroke-width="1.05074" stroke-linecap="round" stroke-linejoin="round"/>
<path d="M245.42 87.0767H237.019C237.019 87.0767 234.612 100.292 232.205 102.699C229.798 105.106 222.577 108.693 221.397 114.734C220.217 120.728 220.217 153.246 220.217 153.246H247.874" stroke="#1C2628" stroke-width="1.05074" stroke-linecap="round" stroke-linejoin="round"/>
<path d="M246.646 125.589H220.594" stroke="#1C2628" stroke-width="1.05074" stroke-linecap="round" stroke-linejoin="round"/>
<path d="M231.449 153.294V125.637C231.449 125.637 231.119 115.536 235.414 106.38C238.198 100.386 239.378 87.1243 239.378 87.1243" stroke="#1C2628" stroke-width="1.05074" stroke-linecap="round" stroke-linejoin="round"/>
<path d="M245.419 87.0764H253.82C253.82 87.0764 256.227 100.291 258.634 102.698C261.041 105.105 268.262 108.692 269.442 114.733C270.622 120.727 270.622 153.246 270.622 153.246H242.965" stroke="#1C2628" stroke-width="1.05074" stroke-linecap="round" stroke-linejoin="round"/>
<path d="M244.24 125.589H270.293" stroke="#1C2628" stroke-width="1.05074" stroke-linecap="round" stroke-linejoin="round"/>
<path d="M259.39 153.294V125.637C259.39 125.637 259.72 115.536 255.425 106.38C252.641 100.386 251.461 87.1243 251.461 87.1243" stroke="#1C2628" stroke-width="1.05074" stroke-linecap="round" stroke-linejoin="round"/>
<path d="M245.617 125.899V31.6675H269.561" stroke="#1C2628" stroke-width="1.05074" stroke-linecap="round" stroke-linejoin="round"/>
<path d="M314.161 316.654L310.09 287.341L328.003 301.997L314.161 316.654Z" fill="#1C2628" stroke="#1C2628" stroke-width="1.88417" stroke-linecap="round"/>
<path d="M393.8 358.356C390.788 358.057 385.518 353.994 383.259 352L381 353.869C384.89 355.988 393.122 360.525 394.929 361.721C396.736 362.918 409.229 358.12 414.5 356.5L410.5 355C406.61 355.748 396.812 358.655 393.8 358.356Z" fill="#1C2628" stroke="#1C2628" stroke-width="1.88417" stroke-linecap="round"/>
<path d="M317.6 395.992C314.4 395.663 308.8 391.193 306.4 389L304 391.056C308.133 393.387 316.88 398.377 318.8 399.693C320.72 401.009 332.4 397.774 338 395.992L334 393.935C329.867 394.758 320.8 396.321 317.6 395.992Z" fill="#1C2628" stroke="#1C2628" stroke-width="1.88417" stroke-linecap="round"/>
<path d="M426 362.5C425.121 363.249 422.228 367.428 423.283 369.225C424.601 371.471 431.841 372.679 432.5 373" stroke="#1C2628" stroke-width="1.88417" stroke-linecap="round"/>
<path d="M349.901 403C349.28 403.765 347.74 406.594 348.038 408.735C348.336 410.876 352.013 414.343 354 416" stroke="#1C2628" stroke-width="1.88417" stroke-linecap="round"/>
</svg>
