<svg width="84" height="83" viewBox="0 0 84 83" fill="none" xmlns="http://www.w3.org/2000/svg">
<path d="M64.3951 79.1588H14.8789C19.3678 72.8655 28.7662 67.2683 39.637 67.2683C50.5078 67.2683 59.9084 72.8655 64.3951 79.1588Z" fill="#F5EFD9"/>
<path d="M38.3789 78.8873V34.4812" stroke="#56303C" stroke-width="2" stroke-miterlimit="10" stroke-linecap="round"/>
<path d="M48.1708 46.6355H53.6794V47.3648C53.6794 48.5889 53.4383 49.801 52.9699 50.9319C52.5014 52.0628 51.8148 53.0904 50.9493 53.956C50.0837 54.8215 49.0561 55.5082 47.9252 55.9766C46.7943 56.445 45.5822 56.6861 44.3581 56.6861H40.6406V54.1668C40.6406 53.1779 40.8353 52.1986 41.2137 51.2849C41.5921 50.3712 42.1467 49.541 42.8459 48.8416C43.5452 48.1423 44.3753 47.5875 45.289 47.209C46.2026 46.8304 47.1819 46.6356 48.1708 46.6355Z" fill="#EDE0C4"/>
<path d="M49.9907 49.9739L41.8004 55.616C40.7452 56.3429 39.8824 57.3154 39.2864 58.4497C38.6903 59.5841 38.3789 60.8463 38.3789 62.1276V66.3394" stroke="#56303C" stroke-width="2" stroke-miterlimit="10" stroke-linecap="round"/>
<path d="M37.1624 63.1829H33.7935C31.5065 63.1829 29.3132 62.2744 27.6961 60.6572C26.079 59.0401 25.1705 56.8468 25.1705 54.5598V53.8316H30.198C32.0455 53.8316 33.8174 54.5655 35.1238 55.8719C36.4301 57.1783 37.1641 58.9501 37.1641 60.7977V63.1806L37.1624 63.1829Z" fill="#EDE0C4"/>
<path d="M28.8281 56.8314L34.9524 61.0532C36.0076 61.7801 36.8704 62.7526 37.4665 63.8869C38.0625 65.0212 38.3739 66.2834 38.3739 67.5648V71.7766" stroke="#56303C" stroke-width="2" stroke-miterlimit="10" stroke-linecap="round"/>
<path d="M40.1914 30.7261H46.3517C48.32 30.7261 50.2077 31.508 51.5996 32.8998C52.9914 34.2916 53.7733 36.1793 53.7733 38.1477V44.308H47.613C45.6447 44.308 43.757 43.526 42.3651 42.1342C40.9733 40.7424 40.1914 38.8547 40.1914 36.8864V30.7261Z" fill="#D9AF00"/>
<path d="M46.9818 37.0011L43.1641 31.8661" stroke="white" stroke-width="4" stroke-miterlimit="10" stroke-linecap="round"/>
<path d="M29.053 44.3074H22.8927V38.1476C22.8927 37.173 23.0847 36.2079 23.4577 35.3075C23.8306 34.4071 24.3773 33.5889 25.0665 32.8998C25.7556 32.2106 26.5738 31.6639 27.4742 31.291C28.3746 30.918 29.3397 30.726 30.3143 30.726H36.4746V36.8858C36.4746 38.8541 35.6927 40.7418 34.3009 42.1336C32.9091 43.5255 31.0213 44.3074 29.053 44.3074Z" fill="#D9AF00"/>
<path d="M33.6679 31.8661L29.8496 37.0011" stroke="white" stroke-width="4" stroke-miterlimit="10" stroke-linecap="round"/>
<path d="M36.4746 14.4204H30.3143C29.3397 14.4204 28.3746 14.2284 27.4742 13.8555C26.5738 13.4825 25.7556 12.9358 25.0665 12.2467C24.3773 11.5575 23.8306 10.7394 23.4577 9.83893C23.0847 8.9385 22.8927 7.97342 22.8927 6.99881V0.838518H29.053C31.0213 0.838518 32.9091 1.62044 34.3009 3.01226C35.6927 4.40408 36.4746 6.29179 36.4746 8.26012V14.4204Z" fill="#D9AF00"/>
<path d="M32.9564 12.7644L29.1387 7.62939" stroke="white" stroke-width="4" stroke-miterlimit="10" stroke-linecap="round"/>
<path d="M47.613 0.838501H53.7733V6.99879C53.7733 8.96712 52.9914 10.8548 51.5996 12.2467C50.2077 13.6385 48.32 14.4204 46.3517 14.4204H40.1914V8.26011C40.1914 7.28549 40.3834 6.32041 40.7563 5.41998C41.1293 4.51955 41.676 3.7014 42.3651 3.01224C43.757 1.62042 45.6447 0.838501 47.613 0.838501Z" fill="#D9AF00"/>
<path d="M46.9043 7.62939L43.0859 12.7644" stroke="white" stroke-width="4" stroke-miterlimit="10" stroke-linecap="round"/>
<path d="M25.166 18.1677L29.5218 22.5236L25.166 26.8795C23.7742 28.2713 21.8865 29.0532 19.9181 29.0532C17.9498 29.0532 16.0621 28.2713 14.6703 26.8795L10.3145 22.5236L14.6703 18.1677C16.0621 16.7759 17.9498 15.994 19.9181 15.994C21.8865 15.994 23.7742 16.7759 25.166 18.1677Z" fill="#D9AF00"/>
<path d="M19.918 22.5237H28.9766" stroke="white" stroke-width="4" stroke-miterlimit="10" stroke-linecap="round"/>
<path d="M61.4843 18.1677L65.8402 22.5236L61.4843 26.8795C60.0925 28.2713 58.2048 29.0532 56.2365 29.0532C54.2682 29.0532 52.3805 28.2713 50.9887 26.8795L46.6328 22.5236L50.9887 18.1677C52.3805 16.7759 54.2682 15.994 56.2365 15.994C58.2048 15.994 60.0925 16.7759 61.4843 18.1677Z" fill="#D9AF00"/>
<path d="M48.084 22.5237H57.1426" stroke="white" stroke-width="4" stroke-miterlimit="10" stroke-linecap="round"/>
<path d="M38.3797 33.4355C44.6559 33.4355 49.7437 28.3476 49.7437 22.0715C49.7437 15.7953 44.6559 10.7074 38.3797 10.7074C32.1035 10.7074 27.0156 15.7953 27.0156 22.0715C27.0156 28.3476 32.1035 33.4355 38.3797 33.4355Z" fill="#A0D6FF"/>
<path d="M36.7403 15.6656H35.5255C35.333 15.6657 35.1471 15.736 35.0028 15.8635C34.8585 15.991 34.7657 16.1668 34.7419 16.3578L34.4537 18.6854C34.4235 18.9298 34.3203 19.1595 34.1576 19.3443C33.9949 19.5292 33.7802 19.6607 33.5416 19.7217L31.04 20.3618C30.8113 20.4204 30.6075 20.5512 30.4591 20.7348C30.3106 20.9184 30.2253 21.145 30.2159 21.3809L30.1854 22.1535C30.1764 22.3841 30.2501 22.6104 30.3932 22.7916C30.5362 22.9727 30.7393 23.0968 30.9657 23.1416L31.6679 23.2796C31.7992 23.3053 31.9225 23.3622 32.0273 23.4454C32.1321 23.5286 32.2154 23.6357 32.2703 23.7578L32.5047 24.2776L32.6654 24.6351L32.395 24.3547L32.0209 23.9667C31.8824 23.8232 31.6974 23.7336 31.4988 23.714L29.6146 23.53C29.485 23.5175 29.3599 23.4753 29.2492 23.4068C29.1384 23.3383 29.0448 23.2453 28.9757 23.1349L27.1602 20.2432C27.4612 18.4003 28.2112 16.6599 29.3439 15.1754C30.4766 13.6909 31.9572 12.5079 33.6552 11.731L32.891 13.3802C32.8571 13.4532 32.8425 13.5337 32.8486 13.6139C32.8547 13.6941 32.8812 13.7715 32.9257 13.8386C32.9701 13.9056 33.031 13.9602 33.1026 13.9971C33.1741 14.0339 33.2539 14.0518 33.3343 14.0491L35.3266 13.9859C35.5103 13.9806 35.6902 14.0394 35.8353 14.1522L36.9603 15.0239C37.0197 15.0696 37.0632 15.1327 37.0848 15.2045C37.1064 15.2762 37.105 15.3529 37.0807 15.4238C37.0564 15.4946 37.0105 15.5561 36.9494 15.5995C36.8883 15.6429 36.8152 15.666 36.7403 15.6656Z" fill="#56303C"/>
<path d="M39.5227 26.9117V28.1409C39.5227 28.3392 39.447 28.5301 39.311 28.6745L37.9898 30.0744C37.9048 30.1648 37.7961 30.2296 37.6761 30.2614C37.5561 30.2932 37.4296 30.2908 37.311 30.2545L36.7601 30.0883C36.7206 30.0763 36.6789 30.0736 36.6383 30.0804C36.5976 30.0872 36.559 30.1032 36.5256 30.1273C36.4921 30.1513 36.4646 30.1828 36.4452 30.2191C36.4258 30.2555 36.415 30.2959 36.4137 30.3371L36.365 32.0334C36.3611 32.1611 36.3864 32.288 36.4387 32.4045C36.491 32.5211 36.569 32.6242 36.667 32.7062L37.5033 33.3995C36.7422 33.3419 35.9889 33.2075 35.2549 32.9983L34.0274 31.9409C33.8926 31.8247 33.8063 31.6621 33.7858 31.4853L33.5747 29.6565L31.4787 28.6086C31.2955 28.5163 31.1415 28.3749 31.0339 28.2003C30.9263 28.0256 30.8692 27.8245 30.8691 27.6194V25.9319C30.8691 25.7746 30.907 25.6196 30.9797 25.4801C31.0523 25.3406 31.1575 25.2207 31.2864 25.1305L32.3981 24.3547L32.509 24.2777L33.6439 23.4796C33.7557 23.4014 33.8885 23.3589 34.0249 23.3576C34.1613 23.3563 34.2949 23.3963 34.4081 23.4724L36.0646 24.588C36.156 24.6495 36.2343 24.7285 36.2949 24.8205C36.3555 24.9125 36.3972 25.0156 36.4176 25.1239L36.5417 25.7817C36.5588 25.8713 36.6065 25.9521 36.6767 26.0103C36.7469 26.0684 36.8352 26.1003 36.9263 26.1004H38.7103C38.9255 26.1004 39.132 26.1858 39.2843 26.3379C39.4367 26.49 39.5224 26.6964 39.5227 26.9117Z" fill="#56303C"/>
<path d="M43.4653 11.906L42.7077 12.1459C42.6205 12.1738 42.5294 12.188 42.4378 12.1881H40.8119C40.6598 12.188 40.5114 12.2342 40.3862 12.3205L38.6173 13.5397C38.5521 13.5846 38.4785 13.6157 38.4009 13.6312C38.3233 13.6466 38.2433 13.6461 38.1659 13.6296C38.0885 13.6131 38.0153 13.581 37.9508 13.5352C37.8862 13.4895 37.8317 13.431 37.7905 13.3635L37.3914 12.7084C37.3245 12.5982 37.288 12.4723 37.2857 12.3434C37.2834 12.2145 37.3153 12.0873 37.3781 11.9747L37.5233 11.7148C37.5491 11.6695 37.5655 11.6194 37.5715 11.5676C37.5775 11.5158 37.573 11.4633 37.5583 11.4133C37.5435 11.3632 37.5189 11.3167 37.4857 11.2764C37.4526 11.2362 37.4117 11.203 37.3654 11.1789L36.707 10.8298C37.2608 10.7482 37.8198 10.7073 38.3796 10.7073C40.1451 10.7044 41.8868 11.1149 43.4653 11.906Z" fill="#56303C"/>
<path d="M49.7428 22.0714C49.7445 23.7309 49.382 25.3705 48.6808 26.8746C47.9795 28.3786 46.9567 29.7104 45.6845 30.776L46.14 28.7255L46.0802 27.3589C46.0698 27.1236 45.969 26.9015 45.7989 26.7387C45.6287 26.5759 45.4024 26.485 45.1669 26.4849H43.7166C43.5863 26.485 43.4575 26.4575 43.3386 26.4043C43.2197 26.3511 43.1134 26.2734 43.0266 26.1762L42.1554 25.1976C42.004 25.028 41.9202 24.8087 41.9199 24.5813V22.5308C41.9197 22.2514 42.0075 21.979 42.1708 21.7523C42.3342 21.5256 42.5648 21.3561 42.8299 21.2679L46.201 20.144C46.4376 20.0646 46.6957 20.0797 46.9214 20.1861L49.2362 21.2712C49.3876 21.3418 49.5157 21.454 49.6057 21.5947C49.6957 21.7355 49.7438 21.8989 49.7444 22.0659L49.7428 22.0714Z" fill="#56303C"/>
<path d="M21.8044 19.3144H1.58398C1.58398 17.6918 3.42553 16.3773 5.69823 16.3773C6.19167 16.3761 6.68308 16.4404 7.15961 16.5685C7.9133 15.5709 9.06988 14.9292 10.3667 14.9292C12.3141 14.9292 13.9456 16.3701 14.3723 18.3097C15.121 17.8326 16.3285 17.4563 17.6907 17.4563C19.9629 17.4552 21.8044 18.5031 21.8044 19.3144Z" fill="#A0D6FF"/>
<path d="M71.0225 12.7424H54.5234C54.5234 10.4941 56.0751 8.67249 57.9921 8.67249C59.0855 8.67249 60.0608 9.26601 60.6959 10.1932C61.0961 10.0745 61.5115 10.0148 61.929 10.0158C63.3283 10.0158 64.5336 10.6675 65.0823 11.6063C65.7113 11.2644 66.5858 11.0167 67.5523 11.0167C69.4692 11.0167 71.0225 11.9893 71.0225 12.7424Z" fill="#A0D6FF"/>
<path d="M81.1959 52.8015V53.1784H80.8197C80.517 53.1784 80.2268 53.0581 80.0128 52.8442C79.7988 52.6302 79.6786 52.3399 79.6786 52.0373V51.7225H77.2119C76.6387 51.7225 76.089 51.4948 75.6837 51.0895C75.2783 50.6842 75.0506 50.1344 75.0506 49.5612V49.3822H74.4748C73.9016 49.3822 73.3519 49.1545 72.9465 48.7492C72.5412 48.3439 72.3135 47.7941 72.3135 47.2209V47.1062H70.4559C69.9868 47.106 69.537 46.9196 69.2054 46.5879C68.8738 46.2562 68.6875 45.8063 68.6875 45.3372V44.4666C68.6874 44.1625 68.7473 43.8614 68.8636 43.5805C68.9799 43.2995 69.1505 43.0443 69.3655 42.8292C69.5805 42.6142 69.8358 42.4437 70.1167 42.3273C70.3977 42.211 70.6988 42.1512 71.0029 42.1512H72.3684C72.6023 42.1512 72.8339 42.1973 73.05 42.2868C73.2661 42.3763 73.4624 42.5075 73.6278 42.6729C73.7932 42.8383 73.9244 43.0347 74.0139 43.2508C74.1034 43.4669 74.1495 43.6985 74.1495 43.9324V44.7082H75.2075C75.6798 44.7082 76.1329 44.8959 76.4669 45.2299C76.8009 45.564 76.9886 46.017 76.9886 46.4894V47.0436H77.9423C78.1763 47.0435 78.408 47.0895 78.6241 47.179C78.8403 47.2685 79.0367 47.3997 79.2022 47.5651C79.3676 47.7305 79.4989 47.9268 79.5884 48.143C79.678 48.3591 79.724 48.5908 79.724 48.8247V51.6571H80.051C80.2015 51.6565 80.3506 51.6857 80.4897 51.743C80.6289 51.8003 80.7553 51.8846 80.8617 51.991C80.9681 52.0974 81.0525 52.2237 81.1098 52.3628C81.1672 52.502 81.1965 52.651 81.1959 52.8015Z" fill="#56303C"/>
<path d="M80.3573 50.4885H80.3872C80.4892 50.4885 80.587 50.529 80.6591 50.6012C80.7313 50.6733 80.7718 50.7711 80.7718 50.8731V50.9031C80.7718 50.9536 80.7618 51.0036 80.7425 51.0502C80.7232 51.0969 80.6949 51.1393 80.6591 51.175C80.6234 51.2107 80.581 51.2391 80.5344 51.2584C80.4877 51.2777 80.4377 51.2877 80.3872 51.2877H79.9727V50.8731C79.9727 50.7711 80.0132 50.6733 80.0853 50.6012C80.1574 50.529 80.2553 50.4885 80.3573 50.4885Z" fill="#D9AF00"/>
<path d="M78.9791 52.7479C78.9266 52.7479 78.8747 52.7375 78.8263 52.7174C78.7778 52.6973 78.7338 52.6679 78.6968 52.6308C78.6597 52.5937 78.6303 52.5496 78.6103 52.5012C78.5903 52.4527 78.58 52.4007 78.5801 52.3483C78.58 52.2959 78.5903 52.2439 78.6103 52.1954C78.6303 52.147 78.6597 52.1029 78.6968 52.0658C78.7338 52.0287 78.7778 51.9992 78.8263 51.9792C78.8747 51.9591 78.9266 51.9487 78.9791 51.9487H79.3787V52.3483C79.3787 52.4008 79.3683 52.4527 79.3482 52.5012C79.3282 52.5497 79.2987 52.5937 79.2616 52.6308C79.2245 52.6679 79.1805 52.6974 79.132 52.7174C79.0835 52.7375 79.0316 52.7479 78.9791 52.7479Z" fill="#D9AF00"/>
<path d="M71.1411 53.1838L68.9737 56.6081L65.0445 62.0945L64.2637 61.4167L70.0826 47.8332C70.3857 47.2735 70.9393 46.9293 71.5373 46.9293C72.3032 46.9293 72.9732 47.4896 73.1688 48.2937L71.1411 53.1838Z" fill="#FFAFB1"/>
<path d="M60.0101 57.8134C60.4493 57.8134 60.8053 57.3149 60.8053 56.7C60.8053 56.0851 60.4493 55.5867 60.0101 55.5867C59.5709 55.5867 59.2148 56.0851 59.2148 56.7C59.2148 57.3149 59.5709 57.8134 60.0101 57.8134Z" fill="#56303C"/>
<path d="M60.5645 56.7C60.8415 56.7 61.112 56.7841 61.3403 56.9411C61.5686 57.0981 61.7438 57.3207 61.8429 57.5794L64.2658 63.7974" stroke="#56303C" stroke-miterlimit="10" stroke-linecap="round"/>
<path d="M70.0472 62.3752C70.1298 62.726 68.8973 63.3174 67.294 63.6953C65.6908 64.0733 64.3242 64.0971 64.2416 63.7468L64.2383 63.7175L63.2734 56.0143C63.3322 56.2621 64.3153 56.2416 65.4691 55.9695C66.6229 55.6973 67.5118 55.2745 67.4531 55.0273L70.0406 62.3486L70.0472 62.3752Z" fill="#56303C"/>
<path d="M67.4539 55.0258C67.5126 55.2735 66.6226 55.6958 65.4699 55.9679C64.3172 56.24 63.333 56.2605 63.2742 56.0128C63.2155 55.7651 64.1055 55.3428 65.2582 55.0707C66.4109 54.7986 67.3957 54.7775 67.4539 55.0258Z" fill="#A0D6FF"/>
<path d="M83.8827 78.9935H83.129L82.6579 78.2176L82.1869 78.9935H79.1018C79.0903 78.9939 79.0792 78.9902 79.0703 78.9831C79.0614 78.9759 79.0554 78.9658 79.0534 78.9545C79.0515 78.9433 79.0537 78.9317 79.0596 78.9219C79.0655 78.9122 79.0748 78.9049 79.0857 78.9015L79.406 78.7873C79.7052 78.6813 79.9543 78.4677 80.1047 78.1882C80.255 77.9086 80.296 77.5831 80.2195 77.275L79.8837 75.9194H83.011L83.8827 78.9935Z" fill="#56303C"/>
<path d="M80.7914 77.6307H80.3957C80.2907 77.6307 80.1901 77.589 80.1159 77.5148C80.0417 77.4406 80 77.3399 80 77.235C79.9999 77.183 80.0101 77.1315 80.03 77.0834C80.0498 77.0353 80.0789 76.9916 80.1157 76.9548C80.1524 76.918 80.1961 76.8888 80.2441 76.8689C80.2922 76.849 80.3437 76.8387 80.3957 76.8387V76.8387C80.5007 76.8389 80.6013 76.8807 80.6755 76.955C80.7497 77.0293 80.7914 77.13 80.7914 77.235V77.6307Z" stroke="#A0D6FF" stroke-width="0.2" stroke-miterlimit="10"/>
<path d="M81.1777 77.6307H81.5734C81.6784 77.6307 81.7791 77.589 81.8534 77.5148C81.9277 77.4406 81.9695 77.34 81.9697 77.235V77.235C81.9697 77.1299 81.9279 77.0291 81.8536 76.9548C81.7793 76.8805 81.6785 76.8387 81.5734 76.8387C81.4684 76.8389 81.3678 76.8807 81.2936 76.955C81.2194 77.0293 81.1777 77.13 81.1777 77.235V77.6307Z" stroke="#A0D6FF" stroke-width="0.2" stroke-miterlimit="10"/>
<path d="M73.5425 78.9934H72.7894L72.5998 78.2176L71.8473 78.9934H69.0763C69.0548 78.9932 69.034 78.9853 69.0177 78.9712C69.0014 78.9571 68.9906 78.9376 68.9874 78.9163C68.9841 78.895 68.9885 78.8732 68.9999 78.8548C69.0112 78.8365 69.0287 78.8227 69.0492 78.8161L69.1428 78.7867C69.8428 78.565 70.433 77.9128 70.5072 77.2744L70.6641 75.9188H73.7913L73.5425 78.9934Z" fill="#56303C"/>
<path d="M70.7648 76.6483C70.8168 76.6483 70.8682 76.6585 70.9162 76.6784C70.9643 76.6983 71.0079 76.7275 71.0446 76.7642C71.0814 76.8009 71.1105 76.8446 71.1304 76.8926C71.1503 76.9406 71.1605 76.992 71.1605 77.044V77.4397H70.7648C70.6599 77.4397 70.5592 77.398 70.485 77.3238C70.4108 77.2496 70.3691 77.1489 70.3691 77.044V77.044C70.3691 76.992 70.3794 76.9406 70.3993 76.8926C70.4191 76.8446 70.4483 76.8009 70.485 76.7642C70.5218 76.7275 70.5654 76.6983 70.6134 76.6784C70.6614 76.6585 70.7129 76.6483 70.7648 76.6483V76.6483Z" stroke="#A0D6FF" stroke-width="0.2" stroke-miterlimit="10"/>
<path d="M71.5469 77.4402H71.9426C72.0476 77.4402 72.1483 77.3986 72.2225 77.3244C72.2968 77.2502 72.3387 77.1496 72.3388 77.0446C72.3388 76.9395 72.2971 76.8387 72.2227 76.7644C72.1484 76.6901 72.0477 76.6483 71.9426 76.6483C71.8376 76.6485 71.7369 76.6903 71.6627 76.7646C71.5885 76.8389 71.5469 76.9396 71.5469 77.0446V77.4402Z" stroke="#A0D6FF" stroke-width="0.2" stroke-miterlimit="10"/>
<path d="M83.9992 75.9185H79.886L76.1968 64.8515L74.628 75.9185H70.5996L72.1685 56.6994L74.5216 53.2751C74.5216 53.2751 75.0946 56.1857 78.725 55.9507L83.9992 75.9185Z" fill="#D9AF00"/>
<path d="M76.1975 64.8515L74.7051 59.85" stroke="#56303C" stroke-width="0.2" stroke-miterlimit="10" stroke-linecap="round"/>
<path d="M78.7257 55.951C75.0953 56.186 74.5222 53.2755 74.5222 53.2755L72.1692 56.6997L66.6606 63.1554L65.043 62.0953L73.374 47.9248C73.5573 47.613 73.8289 47.3624 74.1544 47.2045C74.48 47.0467 74.8449 46.9888 75.2033 47.0381C75.5617 47.0873 75.8975 47.2415 76.1684 47.4813C76.4393 47.721 76.6332 48.0356 76.7257 48.3854L78.7257 55.951Z" fill="#FFAFB1"/>
<path d="M65.0449 62.005L72.7037 48.9147" stroke="white" stroke-width="0.2" stroke-miterlimit="10" stroke-linecap="round"/>
<path d="M78.7259 55.9511C75.0954 56.1861 74.6133 53.3658 74.6133 53.3658L75.0566 52.6288" stroke="white" stroke-width="0.2" stroke-miterlimit="10" stroke-linecap="round"/>
<path d="M64.9325 61.985L64.1938 63.1798C64.1848 63.1943 64.1801 63.2111 64.1805 63.2281C64.1808 63.2452 64.1862 63.2618 64.1958 63.2758C64.2055 63.2899 64.219 63.3008 64.2348 63.3073C64.2506 63.3138 64.2679 63.3155 64.2847 63.3122L64.6172 63.2502C64.6236 63.2487 64.6303 63.2495 64.6362 63.2524C64.6421 63.2553 64.6468 63.2602 64.6496 63.2661C64.6524 63.272 64.653 63.2788 64.6515 63.2851C64.6499 63.2915 64.6462 63.2972 64.641 63.3012L64.1561 63.7029C64.1486 63.7101 64.1393 63.7153 64.1293 63.7182C64.1193 63.721 64.1087 63.7213 64.0985 63.7191C64.0883 63.7169 64.0788 63.7123 64.0708 63.7056C64.0627 63.699 64.0565 63.6904 64.0525 63.6808L63.9627 63.4624C63.9564 63.4457 63.944 63.4319 63.9281 63.4237C63.9122 63.4155 63.8938 63.4135 63.8765 63.418C63.8591 63.4225 63.8441 63.4333 63.8342 63.4483C63.8244 63.4632 63.8204 63.4813 63.8231 63.499L63.8923 64.0637C63.9132 64.1587 63.9543 64.2481 64.0127 64.3258C64.0712 64.4036 64.1457 64.4678 64.2311 64.5143C64.3165 64.5607 64.411 64.5883 64.508 64.5951C64.605 64.6019 64.7024 64.5877 64.7934 64.5536L65.5194 64.2821C65.7513 64.1953 65.9551 64.047 66.1091 63.8531L66.6633 63.1554L64.9325 61.985Z" fill="#B4702F"/>
<path d="M75.2494 47.0438C74.8848 46.9842 74.5107 47.0364 74.1763 47.1936C73.8419 47.3508 73.563 47.6055 73.3763 47.9244L72.7889 48.9219L71.3613 46.9584C71.0953 47.1042 70.8187 47.1552 70.5345 47.0693C69.7447 46.8287 69.7109 45.7946 69.7109 44.6458C69.7109 44.1227 69.9764 43.7004 70.3405 43.4216C70.3726 44.8021 72.0512 45.3214 72.6897 45.4688L75.2494 47.0438Z" fill="#B4702F"/>
<path d="M71.7631 47.512L71.3613 46.9578C71.3613 46.9578 71.8462 46.6253 72.0125 46.4075L71.7631 47.512Z" fill="#56303C"/>
<path d="M69.6875 44.8508H69.841C69.9595 44.8508 70.0731 44.8979 70.1568 44.9817C70.2406 45.0654 70.2877 45.179 70.2877 45.2975V45.9354C70.2878 45.9607 70.298 45.9849 70.316 46.0028C70.3339 46.0207 70.3582 46.0307 70.3836 46.0307H70.5565" stroke="#56303C" stroke-width="0.2" stroke-miterlimit="10" stroke-linecap="round"/>
<path d="M70.9627 45.4017C70.9573 45.429 70.9442 45.4542 70.925 45.4743C70.9058 45.4944 70.8813 45.5087 70.8543 45.5154C70.8273 45.5222 70.799 45.5211 70.7726 45.5124C70.7462 45.5036 70.7228 45.4876 70.7052 45.4661C70.6876 45.4446 70.6764 45.4185 70.673 45.3909C70.6696 45.3633 70.6741 45.3353 70.686 45.3102C70.6979 45.285 70.7166 45.2638 70.7401 45.2489C70.7636 45.234 70.7908 45.2261 70.8187 45.2261C70.8609 45.2306 70.8997 45.2515 70.9267 45.2844C70.9537 45.3172 70.9666 45.3594 70.9627 45.4017Z" fill="#56303C"/>
<path d="M70.0179 45.4017C70.0179 45.4815 69.9747 45.5458 69.922 45.5458C69.8694 45.5458 69.8262 45.4815 69.8262 45.4017C69.8262 45.3219 69.8688 45.2582 69.922 45.2582C69.9752 45.2582 70.0179 45.3225 70.0179 45.4017Z" fill="#56303C"/>
<path d="M60.0113 56.9387V57.0008C59.1398 57.1612 58.3521 57.622 57.7851 58.303C57.2181 58.9839 56.9077 59.8421 56.9078 60.7282V63.6887C56.9078 64.6803 56.5139 65.6314 55.8127 66.3326C55.1115 67.0338 54.1604 67.4277 53.1688 67.4277H52.8224C52.6461 67.4277 52.4716 67.4624 52.3088 67.5299C52.1459 67.5973 51.9979 67.6962 51.8733 67.8209C51.7487 67.9455 51.6498 68.0935 51.5824 68.2563C51.5149 68.4192 51.4802 68.5937 51.4802 68.77V70.7971C51.4802 71.7889 51.0863 72.74 50.3851 73.4413C49.6839 74.1426 48.7328 74.5366 47.7411 74.5368H46.8932C46.6479 74.5368 46.4125 74.6342 46.239 74.8076C46.0654 74.9811 45.9679 75.2163 45.9677 75.4617V76.5291C45.9677 77.2265 45.6907 77.8953 45.1975 78.3885C44.7044 78.8816 44.0355 79.1586 43.3381 79.1586H38.6387V72.8848C38.6387 71.917 39.0231 70.989 39.7074 70.3047C40.3916 69.6204 41.3197 69.236 42.2874 69.236H43.9383C44.2517 69.236 44.5522 69.1115 44.7738 68.89C44.9954 68.6684 45.1198 68.3679 45.1198 68.0545V66.6086C45.1198 66.1295 45.2142 65.6551 45.3976 65.2124C45.581 64.7698 45.8497 64.3676 46.1886 64.0288C46.5274 63.69 46.9296 63.4213 47.3723 63.238C47.815 63.0547 48.2894 62.9604 48.7686 62.9605H50.1291C50.4424 62.9603 50.7428 62.8358 50.9644 62.6142C51.1859 62.3927 51.3105 62.0923 51.3106 61.7789V60.5875C51.3106 59.6197 51.695 58.6917 52.3793 58.0074C53.0636 57.3231 53.9916 56.9387 54.9593 56.9387H60.0113Z" fill="#A0D6FF"/>
<path d="M39.7207 73.8806C39.7207 73.4015 39.8151 72.9271 39.9985 72.4844C40.1818 72.0417 40.4506 71.6395 40.7894 71.3008C41.1282 70.962 41.5305 70.6933 41.9732 70.51C42.4159 70.3267 42.8903 70.2324 43.3694 70.2324H44.7111C44.9069 70.2324 45.1007 70.1939 45.2816 70.119C45.4625 70.0441 45.6268 69.9342 45.7652 69.7958C45.9037 69.6574 46.0135 69.493 46.0884 69.3122C46.1633 69.1313 46.2019 68.9375 46.2019 68.7417V67.6051C46.2019 66.6374 46.5863 65.7093 47.2706 65.025C47.9548 64.3408 48.8829 63.9563 49.8506 63.9563H50.9545C51.3367 63.9563 51.7032 63.8045 51.9734 63.5343C52.2436 63.2641 52.3954 62.8976 52.3954 62.5155V61.5811C52.3954 60.6134 52.7798 59.6853 53.4641 59.0011C54.1484 58.3168 55.0764 57.9324 56.0441 57.9324" stroke="white" stroke-width="4.04" stroke-miterlimit="10" stroke-linecap="round"/>
<path d="M40.8984 75.24C40.8984 74.7609 40.9927 74.2865 41.176 73.8438C41.3593 73.4011 41.628 72.9989 41.9668 72.66C42.3055 72.3212 42.7077 72.0524 43.1504 71.8691C43.593 71.6857 44.0675 71.5913 44.5466 71.5913H45.8888C46.0846 71.5913 46.2784 71.5527 46.4592 71.4778C46.6401 71.4029 46.8044 71.2931 46.9428 71.1546C47.0812 71.0162 47.1909 70.8519 47.2658 70.671C47.3406 70.4901 47.3791 70.2963 47.379 70.1006V68.9645C47.379 67.9968 47.7635 67.0687 48.4477 66.3844C49.132 65.7002 50.0601 65.3158 51.0278 65.3158H52.1323C52.5144 65.3158 52.8809 65.1639 53.1511 64.8937C53.4213 64.6235 53.5731 64.257 53.5731 63.8749" stroke="white" stroke-width="4.04" stroke-miterlimit="10" stroke-linecap="round"/>
<path d="M43.4202 67.9071C43.7731 67.9071 44.0592 67.621 44.0592 67.2681C44.0592 66.9152 43.7731 66.6292 43.4202 66.6292C43.0673 66.6292 42.7812 66.9152 42.7812 67.2681C42.7812 67.621 43.0673 67.9071 43.4202 67.9071Z" fill="#A0D6FF"/>
<path d="M37.3257 76.8071C37.4231 76.2071 37.0156 75.6417 36.4156 75.5443C35.8156 75.447 35.2503 75.8544 35.1529 76.4544C35.0555 77.0544 35.463 77.6197 36.0629 77.7171C36.6629 77.8145 37.2283 77.4071 37.3257 76.8071Z" fill="#A0D6FF"/>
<path d="M58.4051 59.5457C58.6699 59.5457 58.8845 59.331 58.8845 59.0663C58.8845 58.8015 58.6699 58.5869 58.4051 58.5869C58.1404 58.5869 57.9258 58.8015 57.9258 59.0663C57.9258 59.331 58.1404 59.5457 58.4051 59.5457Z" fill="#A0D6FF"/>
<path d="M23.6001 78.8627H18.1387L18.3016 77.2273L20.3659 76.5911L20.459 76.7961C20.5521 77.001 20.7022 77.1747 20.8914 77.2966C21.0806 77.4184 21.3008 77.4832 21.5258 77.4833H22.1354C22.4369 77.4833 22.7304 77.5798 22.973 77.7587C23.2157 77.9376 23.3946 78.1895 23.4838 78.4775L23.6001 78.8627Z" fill="#56303C"/>
<path d="M20.3945 78.9563H23.5999" stroke="#D9AF00" stroke-width="6.49" stroke-miterlimit="10" stroke-linecap="round"/>
<path d="M18.1387 78.9563H19.661" stroke="#D9AF00" stroke-width="6.49" stroke-miterlimit="10" stroke-linecap="round"/>
<path d="M20.6816 77.5885L20.9133 77.0781" stroke="#D9AF00" stroke-width="4.33" stroke-miterlimit="10" stroke-linecap="round"/>
<path d="M21.3398 77.6911L21.4695 77.368" stroke="#D9AF00" stroke-width="4.33" stroke-miterlimit="10" stroke-linecap="round"/>
<path d="M6.09329 77.1326L5.82617 78.8622H11.2882L11.169 78.4776C11.08 78.1895 10.901 77.9376 10.6584 77.7587C10.4158 77.5798 10.1222 77.4833 9.82071 77.4834H8.72233C8.62134 77.4834 8.52328 77.4494 8.44389 77.387C8.3645 77.3246 8.30837 77.2373 8.28452 77.1392L6.09329 77.1326Z" fill="#56303C"/>
<path d="M8.08203 78.9563H11.2874" stroke="#D9AF00" stroke-width="6.49" stroke-miterlimit="10" stroke-linecap="round"/>
<path d="M5.82617 78.9563H7.34851" stroke="#D9AF00" stroke-width="6.49" stroke-miterlimit="10" stroke-linecap="round"/>
<path d="M8.4668 77.7848L8.699 77.2655" stroke="#D9AF00" stroke-width="4.33" stroke-miterlimit="10" stroke-linecap="round"/>
<path d="M9.02734 77.7848L9.1742 77.3503" stroke="#D9AF00" stroke-width="4.33" stroke-miterlimit="10" stroke-linecap="round"/>
<path d="M12.2773 52.6441L20.7563 75.8466C20.7823 75.9179 20.7937 75.9937 20.7898 76.0694C20.7859 76.1452 20.7669 76.2194 20.7337 76.2877C20.7006 76.3559 20.6541 76.4168 20.5969 76.4667C20.5398 76.5166 20.4732 76.5545 20.4011 76.5781L18.3406 77.2548C18.1526 77.3166 17.9484 77.308 17.7662 77.2305C17.5841 77.153 17.4362 77.012 17.3503 76.8336L9.39891 60.3373L8.84473 76.3759C8.83725 76.5948 8.74498 76.8023 8.58739 76.9545C8.42981 77.1067 8.21924 77.1917 8.00015 77.1916H5.97351C5.75325 77.1917 5.54166 77.1058 5.3838 76.9522C5.22595 76.7986 5.1343 76.5894 5.12838 76.3692L4.6213 57.2289C4.5415 55.5043 4.94162 53.8888 5.78176 52.3914L7.01925 50.7444L12.2773 52.6441Z" fill="#B4702F"/>
<path d="M9.55273 60.5167L9.83703 56.0877L10.5226 55.8699" stroke="#56303C" stroke-width="0.2" stroke-miterlimit="10" stroke-linecap="round"/>
<path d="M12.8674 38.9684L16.4781 40.2392C16.6755 40.3087 16.8372 40.4538 16.9277 40.6425C17.0182 40.8312 17.03 41.0482 16.9605 41.2456L16.7125 41.9503L11.613 40.1555L11.8611 39.4508C11.9305 39.2534 12.0756 39.0917 12.2643 39.0012C12.4531 38.9107 12.67 38.8989 12.8674 38.9684Z" fill="#D9AF00"/>
<path d="M15.955 41.2522L12.0087 52.5436L9.04492 51.5156L12.9951 40.1837L15.955 41.2522Z" fill="#A0D6FF"/>
<path d="M13.0805 40.0764L9.10816 51.3656C8.97962 51.7306 8.71135 52.0296 8.36235 52.1969C8.01336 52.3641 7.61224 52.3858 7.24722 52.2573L6.69303 52.0622C6.32627 51.9333 6.0226 51.6691 5.84409 51.3237C5.66559 50.9783 5.62572 50.5778 5.73264 50.2041L8.50355 40.5097C8.59998 40.1725 8.81898 39.8835 9.11756 39.6995C9.41614 39.5154 9.77272 39.4496 10.1173 39.515L13.0805 40.0764Z" fill="#D9AF00"/>
<path d="M12.0711 52.2937L15.9542 41.2522L17.4732 42.1644C17.7634 42.3385 17.9811 42.6115 18.0861 42.9332C18.1912 43.2549 18.1766 43.6038 18.0451 43.9156L14.1465 53.2392C14.0932 53.3664 14.0134 53.4808 13.9123 53.5747C13.8113 53.6686 13.6914 53.7398 13.5606 53.7836C13.4298 53.8274 13.2911 53.8428 13.1539 53.8287C13.0167 53.8146 12.8841 53.7714 12.7649 53.7019L12.5394 53.5706C12.3247 53.4457 12.1604 53.2497 12.0749 53.0166C11.9894 52.7835 11.988 52.5278 12.0711 52.2937Z" fill="#D9AF00"/>
<path d="M12.5332 51.1743L14.6823 51.9308" stroke="white" stroke-width="0.2" stroke-miterlimit="10" stroke-linecap="round"/>
<path d="M6.16992 48.9027L9.51718 50.0809" stroke="white" stroke-width="0.2" stroke-miterlimit="10" stroke-linecap="round"/>
<path d="M13.7188 47.8986L15.8679 48.655" stroke="white" stroke-width="0.2" stroke-miterlimit="10" stroke-linecap="round"/>
<path d="M7.17188 45.5947L10.6106 46.8051" stroke="white" stroke-width="0.2" stroke-miterlimit="10" stroke-linecap="round"/>
<path d="M14.9043 44.5325L17.3261 45.3848" stroke="white" stroke-width="0.2" stroke-miterlimit="10" stroke-linecap="round"/>
<path d="M8.17578 42.1644L11.7957 43.4385" stroke="white" stroke-width="0.2" stroke-miterlimit="10" stroke-linecap="round"/>
<path d="M28.6892 75.4471H26.6592C26.5184 75.4471 26.4043 75.5613 26.4043 75.7021V76.3693C26.4043 76.5101 26.5184 76.6242 26.6592 76.6242H28.6892C28.83 76.6242 28.9441 76.5101 28.9441 76.3693V75.7021C28.9441 75.5613 28.83 75.4471 28.6892 75.4471Z" fill="#FFAFB1"/>
<path d="M24.3047 79.1584L25.1598 76.3564L27.5428 79.1612L24.3047 79.1584Z" fill="#D9AF00"/>
<path d="M31.1846 76.8997H27.363C26.7634 76.8997 26.2773 77.3856 26.2773 77.985C26.2773 78.5845 26.7634 79.0704 27.363 79.0704H31.1846C31.7842 79.0704 32.2703 78.5845 32.2703 77.985C32.2703 77.3856 31.7842 76.8997 31.1846 76.8997Z" stroke="#A0D6FF" stroke-width="2.71" stroke-miterlimit="10"/>
<path d="M27.361 79.0709C27.9606 79.0709 28.4467 78.5849 28.4467 77.9853C28.4467 77.3857 27.9606 76.8997 27.361 76.8997C26.7614 76.8997 26.2754 77.3857 26.2754 77.9853C26.2754 78.5849 26.7614 79.0709 27.361 79.0709Z" stroke="#A0D6FF" stroke-width="2.71" stroke-miterlimit="10"/>
<path d="M27.1658 78.2595C27.3174 78.1967 27.3894 78.023 27.3266 77.8714C27.2638 77.7199 27.0901 77.6479 26.9385 77.7107C26.7869 77.7734 26.715 77.9472 26.7777 78.0988C26.8405 78.2503 27.0143 78.3223 27.1658 78.2595Z" stroke="#A0D6FF" stroke-width="2.71" stroke-miterlimit="10"/>
<path d="M25.9059 76.5588C26.047 76.5588 26.1613 76.4444 26.1613 76.3033C26.1613 76.1622 26.047 76.0479 25.9059 76.0479C25.7648 76.0479 25.6504 76.1622 25.6504 76.3033C25.6504 76.4444 25.7648 76.5588 25.9059 76.5588Z" fill="#56303C"/>
<path d="M24.4795 77.7002C24.5321 77.4771 24.394 77.2535 24.1709 77.2008C23.9477 77.1482 23.7242 77.2864 23.6715 77.5095C23.6189 77.7326 23.757 77.9561 23.9802 78.0088C24.2033 78.0615 24.4268 77.9233 24.4795 77.7002Z" fill="#A0D6FF"/>
<path d="M5.70312 48.6266L30.5427 76.9281C30.871 77.3151 31.0511 77.8061 31.0508 78.3136V78.9032" stroke="#56303C" stroke-miterlimit="10" stroke-linecap="round"/>
<path d="M28.8884 78.9023L28.8801 77.969C28.8778 77.7074 28.8274 77.4483 28.7315 77.2048L26.9609 72.7087L32.2606 76.8945C32.5141 77.0947 32.7191 77.3497 32.86 77.6404C33.0009 77.9312 33.0741 78.25 33.0741 78.5731V78.9023" stroke="#56303C" stroke-miterlimit="10" stroke-linecap="round"/>
<path d="M4.21491 47.9926L7.30448 44.708L8.85619 39.906L8.42947 39.8312C7.98548 39.7538 7.52878 39.7992 7.10876 39.9626C6.68875 40.1261 6.32141 40.4012 6.04648 40.7583L0.7546 45.9238C0.286824 46.3804 0.0162419 47.0019 0.00070764 47.6553C-0.0148266 48.3088 0.22592 48.9424 0.671473 49.4207L5.19748 53.5771L6.98582 51.3775L4.21491 47.9926Z" fill="#EDE0C4"/>
<path d="M7.09188 54.0952L5.74023 52.9109L6.98603 51.3792L7.8223 51.2368C8.08465 51.1921 8.35441 51.2346 8.59039 51.3576L9.55467 51.8619L9.50313 51.9605C9.45987 52.0431 9.39022 52.1089 9.30526 52.1474C9.2203 52.1859 9.12492 52.1948 9.03429 52.1728L8.77327 52.109C8.6926 52.0894 8.60769 52.0974 8.53207 52.1316C8.45644 52.1659 8.39445 52.2245 8.35597 52.298C8.32303 52.3612 8.31649 52.4348 8.33779 52.5027C8.35909 52.5707 8.40649 52.6274 8.46958 52.6605L9.79574 53.3992C9.8386 53.423 9.8731 53.4594 9.89454 53.5035C9.91598 53.5476 9.92332 53.5973 9.91557 53.6457C9.90783 53.6941 9.88536 53.739 9.85123 53.7742C9.8171 53.8094 9.77296 53.8333 9.7248 53.8425L7.64385 54.2449C7.54652 54.2636 7.44621 54.2598 7.35056 54.2339C7.2549 54.2079 7.16643 54.1605 7.09188 54.0952Z" fill="#FFAFB1"/>
<path d="M18.3458 50.957L19.0152 44.6898C19.0285 43.9433 18.727 43.4817 18.3109 43.2622L18.1446 43.173L14.9453 51.2795L15.9584 58.4806L18.5719 58.0627L18.3458 50.957Z" fill="#EDE0C4"/>
<path d="M18.5144 59.9341L18.5732 57.9435L17.3429 57.9335C16.8635 57.9294 16.3989 58.0996 16.0356 58.4124L15.9563 58.4805C15.7547 58.6544 15.6155 58.8895 15.5601 59.15L15.334 60.214L15.4448 60.2373C15.5361 60.2568 15.6312 60.2451 15.715 60.2041C15.7988 60.1631 15.8664 60.0952 15.907 60.0112L16.0245 59.7695C16.0607 59.6949 16.1209 59.6345 16.1954 59.5981C16.2699 59.5616 16.3545 59.5511 16.4357 59.5684C16.4702 59.5757 16.503 59.5897 16.532 59.6097C16.5611 59.6297 16.586 59.6552 16.6052 59.6848C16.6244 59.7144 16.6375 59.7475 16.6439 59.7822C16.6503 59.8169 16.6498 59.8525 16.6424 59.887L16.572 61.395C16.5695 61.4477 16.5817 61.5002 16.6071 61.5464C16.6326 61.5927 16.6704 61.631 16.7163 61.6572C16.7622 61.6833 16.8145 61.6962 16.8672 61.6944C16.92 61.6926 16.9713 61.6763 17.0154 61.6471L17.8804 61.0758C18.0699 60.9502 18.2263 60.7809 18.3367 60.5823C18.447 60.3836 18.508 60.1613 18.5144 59.9341Z" fill="#FFAFB1"/>
<path d="M16.3339 40.389L15.828 41.6143C15.6213 42.0998 15.0327 42.3347 14.5201 42.1302L13.4805 41.7207C12.9739 41.5212 12.7351 40.9737 12.9457 40.4965L13.5242 39.1903L16.3339 40.389Z" fill="#FFAFB1"/>
<path d="M17.9603 40.2155C17.9613 40.2527 17.9539 40.2897 17.9387 40.3238C17.9235 40.3578 17.9009 40.388 17.8726 40.4122C17.8442 40.4364 17.8108 40.4539 17.7748 40.4635C17.7387 40.4731 17.701 40.4745 17.6644 40.4676L17.297 40.3978C17.2232 40.5515 17.117 40.6873 16.9856 40.7958C16.8542 40.9044 16.7008 40.9831 16.536 41.0265C16.3712 41.07 16.1989 41.0771 16.0311 41.0473C15.8633 41.0176 15.7039 40.9518 15.564 40.8544L13.7097 39.5638C13.5847 39.4768 13.4893 39.3535 13.4366 39.2106C13.3839 39.0677 13.3763 38.912 13.4149 38.7646L13.7164 37.9555C14.0162 36.805 15.2443 36.2204 16.2778 36.8073L17.2 37.3337C17.4513 37.4766 17.6541 37.6914 17.7825 37.9504C17.9108 38.2094 17.9589 38.5008 17.9204 38.7873L17.9603 40.2155Z" fill="#FFAFB1"/>
<path d="M14.0918 38.6154C14.0918 38.6154 14.4648 38.8187 14.2747 39.2183" stroke="#56303C" stroke-width="3.25" stroke-miterlimit="10" stroke-linecap="round"/>
<path d="M13.9473 38.9651L14.2842 38.8359" stroke="#56303C" stroke-width="3.25" stroke-miterlimit="10" stroke-linecap="round"/>
<path d="M17.2264 39.7537C17.2059 39.77 17.181 39.7798 17.155 39.7819C17.1289 39.784 17.1028 39.7784 17.0799 39.7657C17.057 39.753 17.0384 39.7338 17.0264 39.7106C17.0145 39.6873 17.0096 39.6611 17.0126 39.6351C17.0155 39.6091 17.026 39.5845 17.0429 39.5645C17.0598 39.5445 17.0822 39.53 17.1073 39.5227C17.1324 39.5154 17.1591 39.5157 17.1841 39.5236C17.209 39.5315 17.2311 39.5466 17.2475 39.567C17.2584 39.5806 17.2665 39.5963 17.2714 39.613C17.2762 39.6298 17.2777 39.6474 17.2758 39.6647C17.2738 39.6821 17.2685 39.6989 17.26 39.7142C17.2515 39.7295 17.2401 39.7429 17.2264 39.7537Z" fill="#56303C"/>
<path d="M17.1001 38.9623H17.7042V39.0243C17.7042 39.0987 17.6747 39.17 17.6221 39.2226C17.5695 39.2752 17.4982 39.3048 17.4238 39.3048H16.7754V39.287C16.7754 39.2009 16.8096 39.1183 16.8705 39.0574C16.9314 38.9965 17.014 38.9623 17.1001 38.9623Z" fill="#56303C"/>
<path d="M18.8395 37.8679C18.6517 38.344 18.0814 38.5645 17.5649 38.3612C17.3337 38.2711 17.1419 38.1018 17.024 37.8835C16.907 37.9434 16.7784 37.9775 16.6469 37.9832C16.5155 37.9889 16.3844 37.9663 16.2626 37.9167C16.1663 37.8791 16.077 37.8257 15.9982 37.7588L16.0021 37.7931C16.0287 38.0315 15.9835 38.2724 15.8724 38.485C15.7612 38.6976 15.5891 38.8721 15.3781 38.9863L15.1564 39.1054C15.0323 39.4468 14.9065 39.7455 15.2252 40.0475L15.7583 40.4443L15.9162 40.3889C16.3642 40.2289 16.8537 40.2289 17.3017 40.3889L16.9503 41.5056C16.9255 41.5826 16.8821 41.6523 16.824 41.7086C16.7659 41.7648 16.6949 41.806 16.6171 41.8283C16.5394 41.8506 16.4573 41.8535 16.3782 41.8367C16.2991 41.8198 16.2253 41.7838 16.1634 41.7317L14.6399 40.4493C14.5529 40.3759 14.4889 40.2789 14.4556 40.17C14.4223 40.0611 14.4211 39.9449 14.4521 39.8353L14.7164 39.1703C14.7789 39.0116 14.7784 38.8351 14.7151 38.6767C14.6517 38.5184 14.5303 38.3903 14.3756 38.3185L14.3617 38.3124C14.1989 38.2363 14.0125 38.2278 13.8434 38.2886C13.6743 38.3495 13.5361 38.4748 13.459 38.6371L13.6252 37.4146C13.6545 37.1943 13.7697 36.9945 13.9456 36.8587C14.1216 36.723 14.344 36.6622 14.5646 36.6897C14.5726 36.6587 14.5824 36.6282 14.5939 36.5983C14.7602 36.1771 15.2656 35.9821 15.7206 36.1622C15.8662 36.2192 15.9952 36.3118 16.0958 36.4315C16.2142 36.3681 16.3451 36.3317 16.4792 36.3247C16.6133 36.3177 16.7473 36.3403 16.8716 36.391C17.045 36.459 17.194 36.5773 17.2995 36.7308C17.4386 36.6386 17.5983 36.5818 17.7644 36.5655C17.9306 36.5492 18.0982 36.5737 18.2527 36.6371C18.7642 36.8405 19.028 37.3919 18.8395 37.8679Z" fill="#56303C"/>
</svg>
